<?xml version="1.0" standalone="no"?><!DOCTYPE svg PUBLIC "-//W3C//DTD SVG 1.1//EN" "http://www.w3.org/Graphics/SVG/1.1/DTD/svg11.dtd"><svg class="icon" width="32px" height="29.10px" viewBox="0 0 1126 1024" version="1.1" xmlns="http://www.w3.org/2000/svg"><path d="M296.2432 0.9216c26.9312 0 48.8448 20.2752 48.8448 45.3632v108.7488c0 25.088-21.8112 45.4656-48.8448 45.4656-26.8288 0-48.7424-20.2752-48.7424-45.4656V46.1824c0.1024-24.9856 21.9136-45.2608 48.7424-45.2608z m528.1792 0c26.8288 0 48.7424 20.2752 48.7424 45.3632v108.7488c0 25.088-21.8112 45.4656-48.7424 45.4656s-48.7424-20.2752-48.7424-45.4656V46.1824c0-24.9856 21.8112-45.2608 48.7424-45.2608z" fill="#C9C9C9" /><path d="M47.9232 286.208h1029.4272c26.9312 0 48.8448 13.312 48.8448 31.0272v-184.32c0-43.008-37.2736-77.6192-83.2512-77.6192H911.1552v100.9664c0 43.4176-37.7856 78.5408-84.3776 78.5408-46.592 0-84.3776-35.1232-84.3776-78.5408V55.296H384.2048v100.9664c0 43.4176-37.6832 78.5408-84.3776 78.5408-46.592 0-84.2752-35.1232-84.2752-78.5408V55.296H84.1728C38.0928 55.296 1.024 90.0096 1.024 132.9152V319.488a48.4352 48.4352 0 0 1 47.104-33.28z m1029.3248 90.8288H47.9232a48.4352 48.4352 0 0 1-47.0016-33.28v602.2144c0 42.9056 37.2736 77.6192 83.2512 77.6192h958.5664c46.08 0 83.3536-34.816 83.3536-77.6192V347.2384c-4.8128 16.384-21.8112 29.696-48.8448 29.696z" fill="#C9C9C9" /><path d="M857.9072 484.352a51.2 51.2 0 0 0-68.8128 0l-291.84 271.872-147.3536-137.216a51.2 51.2 0 0 0-68.8128 0 43.2128 43.2128 0 0 0 0 64.1024L460.0832 849.92c10.24 9.5232 23.8592 13.9264 37.376 13.2096a50.4832 50.4832 0 0 0 37.2736-13.312L858.112 548.864a43.4176 43.4176 0 0 0-0.2048-64.3072z" fill="#FFFFFF" /></svg>