<?xml version="1.0" standalone="no"?><!DOCTYPE svg PUBLIC "-//W3C//DTD SVG 1.1//EN" "http://www.w3.org/Graphics/SVG/1.1/DTD/svg11.dtd"><svg class="icon" width="32px" height="27.75px" viewBox="0 0 1181 1024" version="1.1" xmlns="http://www.w3.org/2000/svg"><path d="M1022.818462 551.384615H1181.538462l-582.892308 393.846154L0 551.384615h158.72A87.748923 87.748923 0 0 1 157.538462 536.812308v-445.046154C157.538462 41.511385 200.388923 0 254.188308 0h673.161846C981.149538 0 1024 41.432615 1024 91.844923v445.046154c0 4.883692-0.393846 9.767385-1.181538 14.493538zM517.513846 264.034462l-6.301538 6.774153 6.301538-6.774153z" fill="#1D77DE" /><path d="M810.692923 471.670154c0 23.158154-22.055385 42.535385-47.891692 42.535384H650.476308c-1.811692 0-3.702154 1.890462-3.702154 3.780924v98.146461c0 25.915077-19.298462 47.182769-43.323077 47.182769-23.867077 0-43.244308-21.267692-43.244308-47.261538V518.065231c0-1.890462-1.811692-3.702154-3.702154-3.702154H445.124923c-26.781538 0-47.891692-19.456-47.891692-42.535385 0-23.236923 22.055385-42.692923 47.891692-42.692923h112.324923c1.890462 0 3.702154-1.811692 3.702154-3.702154V371.790769c0-1.890462-1.811692-3.702154-3.702154-3.702154H445.124923c-26.781538 0-47.891692-19.456-47.891692-42.535384 0-23.236923 22.055385-41.747692 47.891692-41.747693h57.974154c2.756923 0 4.647385-2.756923 2.756923-5.513846l-21.110154-38.912-27.648-51.830154c-11.972923-23.158154-5.513846-50.963692 15.675077-61.124923 21.110154-11.027692 48.836923-0.945231 60.731077 22.212923l23.000615 41.747693c0 0.787692 0.945231 1.811692 0.945231 1.811692l23.000616 43.480615 20.322461 37.96677c0.866462 2.756923 4.568615 2.756923 6.380308 0l20.322461-37.96677 23.945846-43.480615c0-0.945231 0.866462-0.945231 0.866462-1.890461l22.055385-41.668924c12.051692-23.158154 39.699692-32.374154 60.809846-22.212923 21.267692 11.106462 28.593231 37.966769 15.753846 61.124923l-27.726769 53.720616-21.110154 38.833231c-0.945231 1.890462 0 5.513846 2.756923 5.513846h57.028923c26.781538 0 48.836923 19.456 48.836923 42.614154 0 23.158154-22.055385 42.614154-47.891692 42.614153H650.476308c-1.811692 0-3.702154 1.811692-3.702154 3.702154v53.720616c0 1.811692 1.890462 3.702154 3.702154 3.702154h112.324923c26.781538-1.890462 47.891692 16.620308 47.891692 39.778461z" fill="#FFFFFF" /></svg>