<?xml version="1.0" standalone="no"?><!DOCTYPE svg PUBLIC "-//W3C//DTD SVG 1.1//EN" "http://www.w3.org/Graphics/SVG/1.1/DTD/svg11.dtd"><svg class="icon" width="32px" height="32.00px" viewBox="0 0 1024 1024" version="1.1" xmlns="http://www.w3.org/2000/svg"><path d="M896.384 0H120.32A78.208 78.208 0 0 0 42.688 78.72v866.56C42.688 988.8 77.44 1024 120.256 1024h776.128a78.208 78.208 0 0 0 77.632-78.72V78.72A78.208 78.208 0 0 0 896.384 0zM456.64 275.712c0-29.056 23.168-52.544 51.712-52.48 28.544-0.064 51.712 23.424 51.776 52.48a52.096 52.096 0 0 1-51.776 52.48 52.096 52.096 0 0 1-51.712-52.48z m-0.064 398.016c0-29.056 23.232-52.544 51.712-52.48 28.544-0.064 51.712 23.424 51.776 52.48a52.096 52.096 0 0 1-51.776 52.48 52.096 52.096 0 0 1-51.712-52.48z" fill="#1D77DE" /><path d="M898.176 906.944a39.296 39.296 0 0 1-39.04 39.552H157.568a39.296 39.296 0 0 1-39.04-39.552V369.728A536.832 536.832 0 0 0 469.44 511.36v48.256a118.912 118.912 0 0 0-76.288 131.968 117.44 117.44 0 0 0 115.264 98.56 117.44 117.44 0 0 0 115.2-98.56 118.912 118.912 0 0 0-76.16-131.968V511.36a536.704 536.704 0 0 0 350.784-140.48v536.064z" fill="#E5F1FF" /><path d="M111.168 114.944c0-22.272 17.792-40.32 39.68-40.32h714.88c22.016 0 39.744 18.048 39.744 40.32v80.64c0 125.312-156.8 228.48-357.376 241.792v-47.552a121.152 121.152 0 0 0 77.696-134.4 119.68 119.68 0 0 0-117.44-100.48 119.68 119.68 0 0 0-117.44 100.48 121.152 121.152 0 0 0 77.76 134.4v47.552c-200.64-12.096-357.504-115.264-357.504-241.856v-80.64z" fill="#E5F1FF" /></svg>