<?xml version="1.0" standalone="no"?><!DOCTYPE svg PUBLIC "-//W3C//DTD SVG 1.1//EN" "http://www.w3.org/Graphics/SVG/1.1/DTD/svg11.dtd"><svg class="icon" width="32px" height="27.75px" viewBox="0 0 1181 1024" version="1.1" xmlns="http://www.w3.org/2000/svg"><path d="M851.495385 11.342769c172.662154 0 312.713846 152.418462 312.713846 340.283077 0 275.849846-369.348923 547.131077-515.150769 643.544616a105.629538 105.629538 0 0 1-116.578462 0C386.678154 898.756923 17.329231 627.396923 17.329231 351.547077 17.329231 163.84 157.380923 11.421538 330.358154 11.421538c98.855385 0 187.076923 50.097231 244.420923 128.157539a20.007385 20.007385 0 0 0 32.374154 0C664.418462 61.361231 752.403692 11.342769 851.574154 11.342769zM527.123692 449.457231H399.675077a63.172923 63.172923 0 0 0-63.803077 62.542769c0 34.579692 28.593231 62.542769 63.803077 62.542769H526.966154v125.243077c0 34.500923 28.514462 62.542769 63.724308 62.542769a63.172923 63.172923 0 0 0 63.724307-62.621538V574.542769h127.369846a63.172923 63.172923 0 0 0 63.803077-62.542769 63.172923 63.172923 0 0 0-63.803077-62.542769H654.572308v-125.243077a63.172923 63.172923 0 0 0-63.724308-62.542769 63.172923 63.172923 0 0 0-63.724308 62.621538v125.164308z" fill="#1D77DE" /></svg>