<?xml version="1.0" standalone="no"?><!DOCTYPE svg PUBLIC "-//W3C//DTD SVG 1.1//EN" "http://www.w3.org/Graphics/SVG/1.1/DTD/svg11.dtd"><svg class="icon" width="32px" height="27.75px" viewBox="0 0 1181 1024" version="1.1" xmlns="http://www.w3.org/2000/svg"><path d="M932.125679 456.091757c-93.102294 0-170.766307 79.239347-170.766306 170.372473 0 66.479134 41.588842 126.341862 100.270068 153.98899a197.940834 197.940834 0 0 1-185.495688 129.965131 198.019601 198.019601 0 0 1-194.396331-162.338264c22.52729-31.349165 41.667609-71.205139 48.992917-100.270069C696.29804 538.796841 761.359373 207.897739 761.359373 172.058869c0-61.438062-113.739182-170.372473-113.739183-170.372473h-39.777207a85.540687 85.540687 0 0 0-97.276932 55.68809 85.304387 85.304387 0 0 0 51.986053 108.93441c9.294476 3.15067 18.904019 4.489705 28.198495 4.410938v1.417802h56.869591c-1.023968 52.143586-63.801065 397.53577-227.478364 397.53577-163.519766 0-227.635898-397.53577-227.635897-397.53577h37.020371a84.280419 84.280419 0 0 0 89.794091-38.044339 87.037255 87.037255 0 0 0-26.465627-118.937787 82.941384 82.941384 0 0 0-43.479244-13.07528V1.765163h-56.790825S78.766747 96.285259 78.766747 157.250721c0 36.232703 66.321601 382.648855 234.961205 492.134632 11.499945 32.058066 32.294366 77.348945 55.845623 109.328244C392.573465 908.52795 519.624227 1024 676.133753 1024a310.340982 310.340982 0 0 0 300.573905-234.094771c71.992806-20.479354 126.026795-87.588622 126.026794-163.440999 0-91.054359-77.427712-170.372473-170.608773-170.372473z m0 227.163297a56.712058 56.712058 0 1 1 0-113.581648 56.712058 56.712058 0 1 1 0 113.581648z" fill="#1D77DE" /></svg>