<?xml version="1.0" standalone="no"?><!DOCTYPE svg PUBLIC "-//W3C//DTD SVG 1.1//EN" "http://www.w3.org/Graphics/SVG/1.1/DTD/svg11.dtd"><svg class="icon" width="19px" height="19.00px" viewBox="0 0 1024 1024" version="1.1" xmlns="http://www.w3.org/2000/svg"><path d="M819.2 0H204.8C92.16 0 0 92.16 0 204.8v614.4C0 931.84 92.16 1024 204.8 1024h614.4c112.64 0 204.8-92.16 204.8-204.8V204.8C1024 92.16 931.84 0 819.2 0z" fill="#047EFF" /><path d="M600.171789 215.578947H321.374316c-28.240842-0.431158-51.523368 24.144842-51.900632 54.810948v482.842947c0.215579 30.396632 22.851368 54.972632 50.876632 55.188211h383.299368c28.079158 0 50.876632-24.737684 50.876632-55.188211V355.866947L600.171789 215.578947zM379.580632 366.807579h104.555789c11.317895-0.215579 20.695579 9.593263 20.911158 21.935158v0.754526c0.377263 12.126316-8.353684 22.258526-19.509895 22.689684H379.580632c-11.156211 0.431158-20.48-9.054316-20.911158-21.126736v-1.562948c-0.161684-12.288 8.838737-22.474105 20.210526-22.635789h0.700632zM621.406316 464.033684c11.641263-1.616842 22.312421 7.275789 23.821473 19.941053 1.509053 12.611368-6.736842 24.198737-18.378105 25.815579a19.617684 19.617684 0 0 1-5.389473 0H379.526737c-11.317895 0.215579-20.695579-9.593263-20.911158-21.935158v-0.754526c0.808421-12.234105 9.701053-21.989053 20.911158-23.066948h241.825684z m0 246.89179H379.580632c-11.641263-1.616842-19.833263-13.204211-18.324211-25.815579a22.204632 22.204632 0 0 1 18.324211-19.941053h240.424421c12.126316-0.431158 22.258526 9.916632 22.635789 23.066947 0.215579 12.341895-8.838737 22.474105-20.156631 22.689685h-1.077895z m0-101.699369H379.580632c-11.533474 0-20.911158-10.132211-20.911158-22.689684 0-12.503579 9.377684-22.635789 20.911158-22.635789h240.424421c12.018526-0.485053 22.096842 9.647158 22.635789 22.635789 0.215579 12.341895-8.838737 22.474105-20.156631 22.689684h-1.077895z m-12.557474-234.442105c-8.245895 0.215579-15.090526-6.844632-15.306105-15.845053V272.276211l114.634105 102.507789h-99.328z" fill="#FFFFFF" /></svg>