<?xml version="1.0" standalone="no"?><!DOCTYPE svg PUBLIC "-//W3C//DTD SVG 1.1//EN" "http://www.w3.org/Graphics/SVG/1.1/DTD/svg11.dtd"><svg class="icon" width="19px" height="19.00px" viewBox="0 0 1024 1024" version="1.1" xmlns="http://www.w3.org/2000/svg"><path d="M0 0m215.578947 0l592.842106 0q215.578947 0 215.578947 215.578947l0 592.842106q0 215.578947-215.578947 215.578947l-592.842106 0q-215.578947 0-215.578947-215.578947l0-592.842106q0-215.578947 215.578947-215.578947Z" fill="#00E2A0" /><path d="M424.097684 512c0 50.122105 39.289263 91.028211 87.417263 91.028211 48.181895 0 87.417263-40.96 87.417264-91.028211v-0.808421a48.828632 48.828632 0 0 1-36.540632 15.791158c-28.025263 0-50.876632-23.929263-50.876632-53.140211a53.355789 53.355789 0 0 1 28.887579-47.750737 82.189474 82.189474 0 0 0-28.887579-4.958315C463.386947 420.917895 424.151579 461.877895 424.151579 512z m418.492632-51.738947C788.048842 388.688842 655.737263 269.473684 511.784421 269.473684 367.454316 269.473684 235.142737 388.634947 180.978526 460.261053c-12.449684 16.222316-18.863158 33.953684-19.294315 51.738947 0.431158 17.785263 7.275789 35.516632 19.294315 51.738947C235.142737 635.311158 367.454316 754.526316 511.784421 754.526316s276.264421-119.161263 330.805895-190.787369c12.449684-16.222316 19.294316-33.953684 19.725473-51.738947a91.297684 91.297684 0 0 0-19.725473-51.738947zM512 663.552c-80.572632 0-146.000842-67.853474-146.000842-151.498105S431.373474 360.501895 512 360.501895s145.946947 67.853474 145.946947 151.498105-65.374316 151.498105-145.946947 151.498105z" fill="#FFFFFF" /></svg>