<?xml version="1.0" encoding="UTF-8"?>
<svg width="19px" height="19px" viewBox="0 0 19 19" version="1.1" xmlns="http://www.w3.org/2000/svg" xmlns:xlink="http://www.w3.org/1999/xlink">
    <!-- Generator: Sketch 52.6 (67491) - http://www.bohemiancoding.com/sketch -->
    <title>card_icon3</title>
    <desc>Created with Sketch.</desc>
    <defs>
        <path d="M15.2007161,0 L3.79928393,0 C1.71040876,0 0,1.71039171 0,3.79928393 L0,15.2007161 C0,17.2895912 1.71039171,19 3.79928393,19 L15.2007161,19 C17.2896147,19 19,17.2896083 19,15.2007161 L19,3.79928393 C18.9999782,1.71038532 17.289587,1.21143134e-15 15.2007161,1.21143134e-15 Z" id="path-1"></path>
    </defs>
    <g id="card_icon3" stroke="none" stroke-width="1" fill="none" fill-rule="evenodd">
        <g id="形状">
            <mask id="mask-2" fill="white">
                <use xlink:href="#path-1"></use>
            </mask>
            <use id="Mask" fill="#00E2A0" fill-rule="nonzero" xlink:href="#path-1"></use>
        </g>
        <g id="监控"></g>
        <g id="监控" transform="translate(3.000000, 5.000000)" fill="#FFFFFF" fill-rule="nonzero">
            <path d="M4.8689709,4.5 C4.8689709,5.42977223 5.59753954,6.18872017 6.49111502,6.18872017 C7.38469049,6.18872017 8.11325913,5.42977223 8.11325913,4.5 L8.11325913,4.48535792 C7.94317516,4.6708243 7.70454989,4.77819957 7.43546182,4.77819957 C6.91505565,4.77819957 6.49111502,4.3340564 6.49111502,3.79229935 C6.49111502,3.39940347 6.71450888,3.06263557 7.02675259,2.90645336 C6.85666862,2.84300434 6.67643038,2.81372017 6.49111502,2.81372017 C5.59753954,2.81127983 4.8689709,3.57022777 4.8689709,4.5 Z M12.6344464,3.5409436 C11.6215583,2.21095445 9.1667643,0 6.49619215,0 C3.8180043,0 1.36321031,2.21095445 0.357937903,3.5409436 C0.126928334,3.84110629 0.00761570006,4.17055315 0,4.5 C0.00761570006,4.82944685 0.134544034,5.15889371 0.357937903,5.4590564 C1.36321031,6.78904555 3.8180043,9 6.49619215,9 C9.17438,9 11.6215583,6.78904555 12.6344464,5.4590564 C12.865456,5.15889371 12.9923843,4.82944685 13,4.5 C12.9847686,4.17055315 12.865456,3.84110629 12.6344464,3.5409436 Z M6.49873072,7.31127983 C5.00351494,7.31127983 3.79008006,6.05206074 3.79008006,4.5 C3.79008006,2.94793926 5.00351494,1.68872017 6.49873072,1.68872017 C7.99394649,1.68872017 9.20738137,2.94793926 9.20738137,4.5 C9.20738137,6.05206074 7.99394649,7.31127983 6.49873072,7.31127983 Z" id="形状"></path>
        </g>
    </g>
</svg>