<?xml version="1.0" standalone="no"?><!DOCTYPE svg PUBLIC "-//W3C//DTD SVG 1.1//EN" "http://www.w3.org/Graphics/SVG/1.1/DTD/svg11.dtd"><svg class="icon" width="19px" height="19.00px" viewBox="0 0 1024 1024" version="1.1" xmlns="http://www.w3.org/2000/svg"><path d="M819.2 0H204.8C92.16 0 0 92.16 0 204.8v614.4C0 931.84 92.16 1024 204.8 1024h614.4c112.64 0 204.8-92.16 204.8-204.8V204.8C1024 92.16 931.84 0 819.2 0z" fill="#FFC25D" /><path d="M178.930526 538.516211c-22.743579 26.085053-23.013053 51.523368-0.700631 76.153263l235.250526 236.597894c10.132211 8.192 21.719579 11.856842 34.816 10.886737 13.042526-0.970105 23.174737-5.066105 30.504421-12.395789a40263.787789 40263.787789 0 0 0 156.833684-157.426527l58.044632-58.044631c18.863158-18.863158 35.732211-35.786105 50.445474-50.822737l36.325052-36.648421c9.431579-9.431579 14.389895-14.551579 14.874948-15.575579 1.455158-1.940211 3.988211-5.389474 7.599157-10.509474A30.989474 30.989474 0 0 0 808.421053 502.137263V458.644211c0-11.102316-0.161684-23.713684-0.377264-37.726316-0.269474-14.012632-0.377263-28.240842-0.377263-42.792421a42464.741053 42464.741053 0 0 1-1.455158-113.178948c-0.485053 0-0.700632-0.269474-0.700631-0.754526a349.453474 349.453474 0 0 0-3.233684-18.162526 33.522526 33.522526 0 0 0-9.862737-16.707369 37.187368 37.187368 0 0 0-16.707369-10.886737A59.607579 59.607579 0 0 0 758.298947 215.578947H518.736842a122.88 122.88 0 0 0-6.575158 0.377264 33.037474 33.037474 0 0 0-7.275789 1.077894 66.991158 66.991158 0 0 0-15.898948 9.431579L178.930526 538.516211z m519.114106-166.912a45.002105 45.002105 0 0 1-33.414737-14.174316 46.618947 46.618947 0 0 1-13.743158-33.738106c0-13.042526 4.581053-24.144842 13.743158-33.414736a45.594947 45.594947 0 0 1 33.414737-13.689264c13.096421-0.053895 24.198737 4.527158 33.414736 13.743158a45.433263 45.433263 0 0 1 13.743158 33.414737c0 12.988632-4.527158 24.252632-13.743158 33.684211a45.002105 45.002105 0 0 1-33.414736 14.174316z" fill="#FFFFFF" /></svg>