<?xml version="1.0" standalone="no"?><!DOCTYPE svg PUBLIC "-//W3C//DTD SVG 1.1//EN" "http://www.w3.org/Graphics/SVG/1.1/DTD/svg11.dtd"><svg class="icon" width="32px" height="32.00px" viewBox="0 0 1024 1024" version="1.1" xmlns="http://www.w3.org/2000/svg"><path d="M1023.326316 512c0 281.6-229.726316 511.326316-511.326316 511.326316C230.4 1030.736842 0.673684 793.6 0.673684 512c0-214.905263 133.389474-407.578947 326.063158-481.684211 59.284211-22.231579 118.568421-29.642105 185.263158-29.642105 66.694737 0 125.978947 14.821053 185.263158 37.052632 192.673684 74.105263 326.063158 259.368421 326.063158 474.273684z m-711.410527-111.157895c0 88.926316 44.463158 163.031579 111.157895 200.084211 29.642105 14.821053 59.284211 29.642105 88.926316 29.642105 29.642105 0 59.284211-7.410526 88.926316-22.231579 66.694737-37.052632 111.157895-111.157895 111.157895-200.08421 0-125.978947-88.926316-222.315789-200.084211-222.31579-111.157895-7.410526-200.084211 96.336842-200.084211 214.905263z m200.084211 592.842106c148.210526 0 281.6-66.694737 370.526316-177.852632-7.410526-88.926316-96.336842-155.621053-214.905263-192.673684C630.568421 660.210526 571.284211 689.852632 512 689.852632c-66.694737 0-118.568421-22.231579-163.031579-66.694737-111.157895 29.642105-200.084211 96.336842-214.905263 177.852631 81.515789 118.568421 222.315789 192.673684 377.936842 192.673685z" fill="#A8A8A8" /></svg>