<?xml version="1.0" encoding="UTF-8"?>
<svg width="18px" height="16px" viewBox="0 0 18 16" version="1.1" xmlns="http://www.w3.org/2000/svg" xmlns:xlink="http://www.w3.org/1999/xlink">
    <!-- Generator: Sketch 52.6 (67491) - http://www.bohemiancoding.com/sketch -->
    <title>details_ft_icon1_s</title>
    <desc>Created with Sketch.</desc>
    <g id="details_ft_icon1_s" stroke="none" stroke-width="1" fill="none" fill-rule="evenodd">
        <path d="M1,6.85696003 L2.41674809,6.74752003 L2.41674809,16 L1,16 L1,6.85696003 Z M16.9964135,7.46790403 C17.0062041,7.61217808 16.9959272,7.75706512 16.965856,7.8987154 L15.6944364,13.8944365 C15.4345648,15.1197988 14.3163502,15.9999999 13.0188143,15.9999999 L4.03386605,15.9999999 L4.03386605,6.6655634 L4.08446623,6.6622354 L4.03386605,6.66439312 L7.60990942,0 L8.22599413,0.175798857 C9.11206666,0.428690284 9.67855712,1.26204342 9.56581703,2.14634056 L9.02927672,6.34907426 L15.2091036,5.95746741 C15.246355,5.95497031 15.283686,5.95373222 15.3210275,5.95375541 C16.1989957,5.95375546 16.9379178,6.61112689 16.9964135,7.46790403 Z" id="Shape" fill="#FF7D36" fill-rule="nonzero"></path>
    </g>
</svg>