<svg height="28.44" viewBox="0 0 1152 1024" width="32" xmlns="http://www.w3.org/2000/svg"><path d="m64 438.848 90.688-7.04v592.192h-90.688zm916.544-57.792c56.192 0 103.488 42.048 107.2 96.896.64 9.216 0 18.56-1.92 27.52l-81.408 383.744c-16.64 78.464-88.192 134.784-171.136 134.784h-575.104v-597.376l3.2-.256-3.2.128 228.864-426.496 39.424 11.264c56.704 16.192 92.992 69.504 85.76 126.08l-34.368 269.056 395.52-25.088c2.368-.128 4.8-.192 7.168-.192zm29.12 109.44a28.16 28.16 0 0 0 .576-7.68 29.44 29.44 0 0 0 -31.744-26.752l-489.216 30.976 45.824-358.848a40.704 40.704 0 0 0 -11.328-33.6l-187.904 350.208v504.32h497.28c45.952 0 85.952-31.488 95.168-74.88l81.344-383.68z" fill="#444"/></svg>