<?xml version="1.0" encoding="UTF-8"?>
<svg width="18px" height="16px" viewBox="0 0 18 16" version="1.1" xmlns="http://www.w3.org/2000/svg" xmlns:xlink="http://www.w3.org/1999/xlink">
    <!-- Generator: Sketch 52.6 (67491) - http://www.bohemiancoding.com/sketch -->
    <title>details_ft_icon3</title>
    <desc>Created with Sketch.</desc>
    <g id="details_ft_icon3" stroke="none" stroke-width="1" fill="none" fill-rule="evenodd">
        <path d="M8.78570759,15.9977693 L8.78570759,16 L2.35713616,16 L2.35713616,15.9972826 L1.46880804,15.9955184 L2.64519643,13.6649734 C1.01113393,12.2166185 8.52651283e-14,10.2132725 8.52651283e-14,8 C8.52651283e-14,3.58172877 4.02942857,-6.39488462e-14 9,-6.39488462e-14 C13.9705714,-6.39488462e-14 18,3.58172877 18,8 C18,12.4182712 13.9705714,16 9,16 C8.9283817,16 8.8569442,15.9992497 8.78570759,15.9977693 Z M8.57143527,14.6925425 C8.71320536,14.699275 8.85610045,14.7027022 9,14.7027022 C13.3121049,14.7027022 16.7142857,11.6316755 16.7142857,8 C16.7142857,4.36830418 13.3121049,1.29729785 9,1.29729785 C4.68789509,1.29729785 1.28571429,4.36832446 1.28571429,8 C1.28571429,10.1188948 2.44384152,12.0469252 4.26511607,13.2855158 L3.56285491,14.7027022 L8.57143527,14.7027022 L8.57143527,14.6925425 Z M12.3448303,7.00002345 L14,7.00002345 L14,9 L12.3448303,9 L12.3448303,7 L12.3448303,7.00002345 Z M8.17240536,7.00002345 L9.82757508,7.00002345 L9.82757508,9 L8.17240536,9 L8.17240536,7 L8.17240536,7.00002345 Z M4,7.00002345 L5.65516973,7.00002345 L5.65516973,9 L4,9 L4,7 L4,7.00002345 Z" id="Combined-Shape" fill="#FFFFFF" fill-rule="nonzero"></path>
    </g>
</svg>