<?xml version="1.0" encoding="UTF-8"?>
<svg width="18px" height="16px" viewBox="0 0 18 16" version="1.1" xmlns="http://www.w3.org/2000/svg" xmlns:xlink="http://www.w3.org/1999/xlink">
    <!-- Generator: Sketch 52.6 (67491) - http://www.bohemiancoding.com/sketch -->
    <title>details_ft_icon1_n</title>
    <desc>Created with Sketch.</desc>
    <g id="details_ft_icon1_n" stroke="none" stroke-width="1" fill="none" fill-rule="evenodd">
        <path d="M1,6.85696003 L2.41674809,6.74752003 L2.41674809,16 L1,16 L1,6.85696003 Z M15.3210276,5.95375546 C16.1989957,5.95375546 16.9379178,6.61112689 16.9964135,7.46790403 C17.0062041,7.61217808 16.9959272,7.75706512 16.965856,7.8987154 L15.6944364,13.8944365 C15.4345648,15.1197988 14.3163502,15.9999999 13.0188143,15.9999999 L4.03386605,15.9999999 L4.03386605,6.6655634 L4.08446623,6.6622354 L4.03386605,6.66439312 L7.60990942,0 L8.22599413,0.175798857 C9.11206666,0.428690284 9.67855712,1.26204342 9.56581703,2.14634056 L9.02927672,6.34907426 L15.2091036,5.95746741 C15.246355,5.95497031 15.283686,5.95373222 15.3210275,5.95375541 Z M15.7762014,7.66420117 C15.7844956,7.62497832 15.7873236,7.58478632 15.7847044,7.54459432 C15.7685146,7.30907432 15.5649181,7.12448003 15.3210276,7.12448003 C15.310304,7.12448003 15.2995804,7.12488232 15.2888378,7.12565032 L7.6447184,7.60994746 L8.36057998,2.00330976 C8.38588007,1.80507434 8.31686947,1.61503091 8.18389691,1.47805262 L5.24821342,6.94926632 L5.24821342,14.8292754 L13.0188143,14.8292754 C13.7360993,14.8292754 14.3610666,14.3373714 14.5047817,13.659904 L15.7762014,7.66420117 Z" id="Shape" fill="#444444" fill-rule="nonzero"></path>
    </g>
</svg>