<?xml version="1.0" standalone="no"?><!DOCTYPE svg PUBLIC "-//W3C//DTD SVG 1.1//EN" "http://www.w3.org/Graphics/SVG/1.1/DTD/svg11.dtd"><svg class="icon" width="16px" height="16.00px" viewBox="0 0 1024 1024" version="1.1" xmlns="http://www.w3.org/2000/svg"><path d="M512 0C229.12 0 0 229.12 0 512s229.12 512 512 512 512-229.12 512-512c0-282.688-229.312-512-512-512z" fill="#FFFFFF" /><path d="M512 0C229.696 0 0 229.696 0 512s229.696 512 512 512 512-229.696 512-512-229.696-512-512-512zM446.464 211.456c17.152-18.56 38.912-27.776 65.536-27.776 26.624 0 48.384 9.152 65.536 27.392 17.024 18.368 25.6 41.216 25.6 68.736 0 23.68-35.648 197.888-47.488 324.672h-85.76c-10.432-126.72-49.024-300.928-49.024-324.672 0-27.072 8.512-49.92 25.6-68.352z m129.92 602.56A88.96 88.96 0 0 1 512 840.32c-24.832 0-46.336-8.704-64.384-26.24a85.504 85.504 0 0 1-26.88-63.744c0-24.768 8.96-46.272 26.88-64.256A88 88 0 0 1 512 659.2c24.832 0 46.272 8.96 64.32 26.944 17.92 17.984 26.944 39.488 26.944 64.256 0 24.96-8.96 46.144-26.88 63.68z" fill="#FF3636" /></svg>