<?xml version="1.0" standalone="no"?><!DOCTYPE svg PUBLIC "-//W3C//DTD SVG 1.1//EN" "http://www.w3.org/Graphics/SVG/1.1/DTD/svg11.dtd"><svg class="icon" width="32px" height="32.00px" viewBox="0 0 1024 1024" version="1.1" xmlns="http://www.w3.org/2000/svg"><path d="M943.7184 0L955.733333 260.573867h-35.976533c-16.042667-84.855467-40.004267-139.400533-71.953067-163.6352-27.989333-24.234667-86.016-36.317867-173.8752-36.317867h-83.968v793.736533c0 56.661333 7.918933 92.9792 23.9616 109.021867 20.002133 16.247467 61.917867 26.350933 125.952 30.3104V1024H290.133333v-30.3104c63.8976-3.959467 103.901867-16.110933 119.944534-36.317867 15.906133-12.151467 23.9616-52.497067 23.9616-121.173333V60.6208h-83.968c-87.927467 0-145.954133 12.0832-173.8752 36.317867-32.085333 24.234667-55.978667 78.779733-71.953067 163.6352H68.266667L80.2816 0h863.4368z" fill="#141414" /></svg>