<?xml version="1.0" standalone="no"?><!DOCTYPE svg PUBLIC "-//W3C//DTD SVG 1.1//EN" "http://www.w3.org/Graphics/SVG/1.1/DTD/svg11.dtd"><svg class="icon" width="32px" height="32.00px" viewBox="0 0 1024 1024" version="1.1" xmlns="http://www.w3.org/2000/svg"><path d="M500.258133 715.093333c103.424 0 187.255467-82.602667 187.255467-184.456533V184.7296c0-101.853867-83.831467-184.456533-187.255467-184.456533-103.492267 0-187.323733 82.602667-187.323733 184.456533v345.9072c0 101.853867 83.831467 184.456533 187.323733 184.456533z" fill="#141414" /><path d="M828.0064 484.488533a34.816 34.816 0 0 0-35.157333 34.6112v3.003734c0 158.9248-131.2768 288.1536-292.590934 288.1536-161.3824 0-292.6592-129.297067-292.6592-288.221867v-2.935467a34.816 34.816 0 0 0-35.157333-34.6112 34.816 34.816 0 0 0-35.089067 34.6112v2.935467c0 185.412267 144.042667 338.193067 327.748267 355.669333v102.536534c0 19.114667 15.701333 34.542933 35.157333 34.542933a34.816 34.816 0 0 0 35.089067-34.542933v-102.536534c183.637333-17.476267 327.748267-170.257067 327.748267-355.669333v-2.935467a34.816 34.816 0 0 0-35.089067-34.6112z" fill="#141414" /></svg>