<svg height="32" viewBox="0 0 1024 1024" width="32" xmlns="http://www.w3.org/2000/svg"><path d="m808.768 1023.168a47.872 47.872 0 0 1 -36.096-17.088 64.256 64.256 0 0 1 0-82.368c197.952-225.92 197.952-593.728 0-819.712a64.256 64.256 0 0 1 0-82.368 46.592 46.592 0 0 1 72.192 0c237.696 271.36 237.696 713.024 0 984.448a47.744 47.744 0 0 1 -36.096 17.088z" fill="#58a5fc"/><path d="m641.024 835.776a48 48 0 0 1 -36.096-17.088 64.32 64.32 0 0 1 0-82.368c107.392-122.688 107.392-322.24 0-444.864a64.32 64.32 0 0 1 0-82.432 46.72 46.72 0 0 1 72.192 0c147.2 168.064 147.2 441.6 0 609.6a47.68 47.68 0 0 1 -36.096 17.152z" fill="#58a5fc"/><path d="m191.36 669.44c0 34.88-24.512 58.048-54.528 51.392l-82.24-18.112c-30.08-6.72-54.592-40.64-54.592-75.584v-267.904c0-34.944 24.576-68.864 54.592-75.52l82.24-18.176c30.08-6.656 54.592 16.512 54.592 51.456v352.448zm326.4 282.048c0 34.88-19.392 45.312-43.072 23.232l-208.448-194.688c-23.68-22.08-43.008-68.736-43.008-103.68v-366.4c0-34.88 19.328-81.536 43.008-103.68l208.448-194.624c23.68-22.08 43.008-11.584 43.008 23.296v916.608z" fill="#1d77de"/></svg>