<svg height="32" viewBox="0 0 1024 1024" width="32" xmlns="http://www.w3.org/2000/svg"><path d="m729.088 685.116235 174.441412 174.200471-44.272941 44.212706-174.441412-174.260706a343.100235 343.100235 0 0 1 -219.979294 79.390118 344.184471 344.184471 0 0 1 -344.365177-344.124236 344.184471 344.184471 0 0 1 344.365177-344.064 344.184471 344.184471 0 0 1 264.252235 564.645647zm-264.252235 60.958118a281.6 281.6 0 0 0 281.72047-281.539765 281.6 281.6 0 0 0 -281.72047-281.419294 281.6 281.6 0 0 0 -281.780706 281.47953 281.6 281.6 0 0 0 281.780706 281.539764z" fill="#1d77de"/></svg>