<?xml version="1.0" standalone="no"?><!DOCTYPE svg PUBLIC "-//W3C//DTD SVG 1.1//EN" "http://www.w3.org/Graphics/SVG/1.1/DTD/svg11.dtd"><svg class="icon" width="32px" height="32.00px" viewBox="0 0 1024 1024" version="1.1" xmlns="http://www.w3.org/2000/svg"><path d="M512 512m-512 0a512 512 0 1 0 1024 0 512 512 0 1 0-1024 0Z" fill="#FAF5EB" /><path d="M621.149091 637.207273c-0.768-0.698182-1.512727-0.698182-3.002182-0.698182-2.978909 0-6.702545-0.698182-8.192-1.396364-3.002182-3.584-11.938909-16.384-20.154182-28.462545-0.744727-0.698182-3.723636-4.980364-8.96-7.121455 0-2.839273 0.744727-7.098182 1.489455-8.517818l1.512727-1.419636c4.468364-4.980364 12.683636-15.662545 13.428364-28.462546v-14.917818c8.936727-2.862545 19.386182-9.960727 20.875636-25.6 1.489455-14.219636 3.723636-38.4-2.978909-49.803636 1.489455-13.498182 6.725818-53.294545 5.957818-61.137455-2.978909-22.039273-16.407273-36.258909-37.282909-42.658909-8.215273-17.082182-32.837818-27.042909-68.654545-28.462545-87.272727 3.560727-102.213818 50.501818-105.192728 71.121454-0.744727 7.819636 3.723636 47.639273 5.981091 61.160727-6.725818 11.380364-4.491636 35.560727-3.002182 49.780364 2.257455 15.639273 12.683636 22.737455 20.89891 25.6v14.917818c0.744727 12.8 8.96 23.482182 13.428363 28.462546 0.744727 0.698182 0.744727 1.396364 1.489455 1.396363 0.744727 1.442909 1.489455 5.701818 1.489454 8.541091-4.468364 2.141091-8.192 6.4-8.936727 7.121455-8.215273 12.101818-17.92 24.901818-19.409455 27.741091-1.489455 0.698182-5.213091 1.396364-8.215272 1.396363-0.744727 0-2.234182 0.721455-2.978909 0.721455l-60.439273 33.419636c-3.723636 2.141091-5.213091 6.4-2.978909 9.960728a7.749818 7.749818 0 0 0 10.472727 2.839272h324.514909a7.912727 7.912727 0 0 0 6.725818-3.537454 6.935273 6.935273 0 0 0-3.723636-9.262546l-64.186182-32.698182z" fill="#FFFFFF" /><path d="M685.288727 669.928727l-64.162909-32.698182c-0.744727-0.698182-1.489455-0.698182-2.978909-0.698181-2.978909 0-6.702545-0.721455-8.192-1.442909-3.002182-3.560727-11.938909-16.360727-20.154182-28.439273-0.744727-0.698182-3.723636-4.980364-8.96-7.121455 0-2.839273 0.744727-7.098182 1.489455-8.517818l1.512727-1.419636c4.468364-4.980364 12.683636-15.662545 13.428364-28.462546v-14.917818c8.936727-2.862545 19.386182-9.960727 20.875636-25.6 1.489455-14.219636 3.723636-38.4-2.978909-49.803636 1.489455-13.498182 6.725818-53.294545 5.957818-61.137455-2.978909-22.039273-16.407273-36.258909-37.282909-42.658909-8.215273-17.082182-32.837818-27.042909-68.654545-28.462545-87.272727 3.560727-102.213818 50.501818-105.192728 71.121454-0.744727 7.819636 3.723636 47.639273 5.981091 61.160727-6.725818 11.380364-4.491636 35.560727-3.002182 49.780364 2.257455 15.639273 12.683636 22.737455 20.89891 25.6v14.917818c0.744727 12.8 8.96 23.482182 13.428363 28.462546 0.744727 0.698182 0.744727 1.396364 1.489455 1.396363 0.744727 1.442909 1.489455 5.701818 1.489454 8.541091-4.468364 2.141091-8.192 6.4-8.936727 7.121455-8.215273 12.101818-17.92 24.901818-19.409455 27.741091-1.489455 0.698182-5.213091 1.396364-8.215272 1.396363-0.744727 0-2.234182 0.721455-2.978909 0.721455l-60.439273 33.419636c-3.723636 2.141091-5.213091 6.4-2.978909 9.960728a7.749818 7.749818 0 0 0 10.472727 2.839272l61.160727-32c7.447273-0.698182 11.938909-2.117818 14.894546-4.258909 0.768-0.698182 3.025455-2.839273 22.411636-30.580363 0.744727-0.698182 2.978909-2.839273 4.468364-2.839273s2.978909-1.419636 4.468363-2.141091c5.236364-5.678545 2.257455-21.317818-1.489454-26.996364-0.744727-0.721455-0.744727-1.442909-1.489455-2.164363-3.723636-4.258909-9.704727-12.078545-10.449454-19.898182-0.744727-12.101818 0-19.921455 0-19.921455a6.330182 6.330182 0 0 0-2.234182-4.980363c-1.489455-1.396364-3.723636-4.258909-5.213091-4.258909-2.234182 0-12.683636-1.419636-14.196364-14.219637-2.978909-23.458909-1.466182-38.4 0.768-41.239273a7.866182 7.866182 0 0 0 2.234182-5.701818c-3.723636-26.298182-6.725818-55.458909-5.981091-60.439272 3.002182-20.619636 17.92-55.458909 90.298182-58.321455 29.835636 1.442909 51.456 9.960727 55.947637 22.760727a8.797091 8.797091 0 0 0 5.21309 4.980364c17.152 3.560727 26.856727 14.219636 29.835637 31.301818 0.744727 4.258909-2.978909 34.117818-5.957818 60.439273 0 2.141091 0.744727 4.258909 2.234181 5.678545 2.234182 2.862545 3.723636 17.780364 0.744728 41.262546-1.489455 12.8-11.938909 14.196364-14.173091 14.196363-2.234182 0-3.723636 0.721455-5.213091 2.141091a7.493818 7.493818 0 0 0-2.234182 4.980364s0.744727 8.541091 0 19.921454c0 8.541091-6.725818 16.360727-10.472727 19.898182-0.721455 0.698182-1.466182 1.442909-1.466182 2.141091-4.491636 5.701818-6.725818 21.341091-1.512727 27.019637 1.512727 1.419636 3.002182 2.141091 4.491636 2.14109s3.723636 2.141091 4.468364 2.839273c19.409455 28.439273 22.388364 30.580364 23.133091 31.301818 2.978909 2.117818 7.447273 3.537455 14.917818 4.258909l61.184 32c1.489455 0.698182 2.234182 0.698182 3.723636 0.698182a7.912727 7.912727 0 0 0 6.725818-3.537454 6.935273 6.935273 0 0 0-3.723636-9.262546z" fill="#CFA866" /><path d="M604.834909 742.702545a10.007273 10.007273 0 0 1-10.286545-9.82109 10.007273 10.007273 0 0 1 10.286545-9.797819h106.682182c15.662545 0 28.416-12.194909 28.416-27.136v-92.322909c0-5.352727 4.584727-9.797818 10.286545-9.797818 5.608727 0 10.263273 4.352 10.263273 9.797818v92.392728c0 25.762909-21.992727 46.754909-48.965818 46.754909h-106.682182v-0.069819z m-280.436364 0c-26.973091 0-48.965818-20.992-48.965818-46.754909v-92.322909c0-5.352727 4.584727-9.797818 10.286546-9.797818 5.608727 0 10.263273 4.352 10.263272 9.797818v92.392728c0 14.964364 12.776727 27.136 28.509091 27.136h110.312728a10.007273 10.007273 0 0 1 10.263272 9.82109c0 5.352727-4.561455 9.797818-10.263272 9.797819H324.421818v-0.069819z m-58.112-221.672727a10.077091 10.077091 0 0 1-10.286545-9.797818c0-5.352727 4.584727-9.821091 10.286545-9.821091h503.272728c5.632 0 10.286545 4.375273 10.286545 9.821091 0 5.352727-4.584727 9.797818-10.286545 9.797818H266.286545z m484.00291-92.392727a10.007273 10.007273 0 0 1-10.286546-9.821091v-92.322909c0-15.034182-12.753455-27.229091-28.392727-27.229091h-106.775273a10.007273 10.007273 0 0 1-10.286545-9.774545c0-5.352727 4.584727-9.821091 10.286545-9.821091h106.682182c26.973091 0 48.965818 20.992 48.965818 46.731636v92.416a10.007273 10.007273 0 0 1-10.193454 9.797818z m-464.570182 0a10.077091 10.077091 0 0 1-10.286546-9.821091v-92.322909c0-25.762909 21.992727-46.754909 48.965818-46.754909h110.312728a10.007273 10.007273 0 0 1 10.286545 9.821091c0 5.352727-4.584727 9.797818-10.286545 9.797818h-110.312728c-15.732364 0-28.485818 12.194909-28.485818 27.205818v92.392727a9.984 9.984 0 0 1-10.193454 9.658182z" fill="#D2AA67" /></svg>