<?xml version="1.0" standalone="no"?><!DOCTYPE svg PUBLIC "-//W3C//DTD SVG 1.1//EN" "http://www.w3.org/Graphics/SVG/1.1/DTD/svg11.dtd"><svg class="icon" width="32px" height="32.00px" viewBox="0 0 1024 1024" version="1.1" xmlns="http://www.w3.org/2000/svg"><path d="M512 512m-512 0a512 512 0 1 0 1024 0 512 512 0 1 0-1024 0Z" fill="#FAF5EB" /><path d="M796.625455 385.745455c0-8.494545-8.936727-25.367273-22.17891-29.626182-13.242182-8.494545-26.624-12.613818-39.866181-16.872728v-33.88509c0-21.131636-17.733818-38.004364-44.357819-38.004364h-93.160727c-22.178909 0-44.357818 16.872727-44.357818 38.004364v29.626181h-4.747636c-8.936727 4.258909-22.178909 8.517818-31.092364 12.637091-39.889455-16.872727-79.918545-25.367273-119.808-25.367272-79.918545 0-137.658182 33.861818-141.963636 37.98109-13.265455 4.258909-17.710545 16.896-17.710546 29.649455v283.322182c0 12.613818 4.468364 21.131636 17.687273 29.649454 8.936727 8.494545 22.178909 8.494545 35.560727 8.494546 0 0 66.56-12.637091 128.744727-12.637091 35.560727 0 62.208 4.258909 88.855273 12.637091 4.445091 0 8.913455 4.258909 13.242182 4.258909h13.242182s62.208-16.896 97.605818-16.896c35.607273 0 75.473455 8.517818 97.652364 12.637091h26.624c8.936727 0 17.710545 0 22.178909-4.235637 13.242182-8.517818 22.178909-21.154909 22.178909-33.908363l-4.328727-287.418182v-0.046545z" fill="#D3B074" /><path d="M587.985455 305.361455c0-4.235636 4.468364-8.494545 8.936727-8.494546h93.160727c4.468364 0 8.913455 4.258909 8.913455 8.494546v211.456l-31.092364-12.637091c-17.687273-8.517818-31.115636-8.517818-48.826182 0l-31.092363 16.989091v-215.808z" fill="#FFFFFF" /><path d="M761.064727 681.844364h-26.624c-22.202182-4.258909-62.208-12.613818-102.120727-12.613819-39.866182 0-106.542545 16.872727-106.542545 16.872728h-8.913455c-31.115636-8.517818-57.762909-12.613818-97.629091-12.613818-66.536727 0-137.658182 12.613818-137.658182 12.613818h-8.936727c-4.468364 0-4.468364-4.258909-4.468364-8.517818V390.004364c0-4.235636 4.468364-4.235636 4.468364-8.494546 4.468364-4.235636 53.294545-29.649455 124.276364-29.649454 35.560727 0 75.450182 8.517818 111.010909 25.413818l8.936727 4.235636 8.913455-4.235636c4.468364-4.258909 17.687273-4.258909 31.115636-8.517818v203.054545l79.918545-33.885091c8.936727-4.258909 13.265455-4.258909 22.178909 0l79.918546 33.885091v-194.56c8.913455 4.258909 17.687273 8.494545 26.624 8.494546 4.468364 0 4.468364 4.258909 4.468364 8.517818v283.322182c-4.468364 0-8.936727 0-8.936728 4.235636v0.023273z" fill="#FFFFFF" /><path d="M459.264 440.785455h-124.276364c-8.913455 0-13.242182 4.235636-13.242181 12.613818 0 8.494545 8.936727 12.637091 13.265454 12.637091h124.253091c8.913455 0 13.265455-4.258909 13.265455-12.637091 0-8.378182-4.468364-12.613818-13.265455-12.613818z m0 55.016727h-124.276364c-8.913455 0-13.242182 4.258909-13.242181 12.613818 0 8.517818 8.936727 12.637091 13.265454 12.637091h124.253091c8.913455 0 13.265455-4.258909 13.265455-12.637091 0-8.494545-4.468364-12.613818-13.265455-12.613818z m0 54.900363h-124.276364c-8.913455 0-13.242182 4.235636-13.242181 12.613819 0 8.494545 8.936727 12.613818 13.265454 12.613818h124.253091c8.913455 0 13.265455-4.258909 13.265455-12.613818 0-8.378182-4.468364-12.613818-13.265455-12.613819z" fill="#CFA866" /></svg>