<?xml version="1.0" standalone="no"?><!DOCTYPE svg PUBLIC "-//W3C//DTD SVG 1.1//EN" "http://www.w3.org/Graphics/SVG/1.1/DTD/svg11.dtd"><svg class="icon" width="32px" height="32.00px" viewBox="0 0 1024 1024" version="1.1" xmlns="http://www.w3.org/2000/svg"><path d="M512 512m-512 0a512 512 0 1 0 1024 0 512 512 0 1 0-1024 0Z" fill="#FAF5EB" /><path d="M506.949818 740.165818L330.472727 671.557818v-216.064h359.028364v216.064z" fill="#FFFFFF" /><path d="M506.949818 740.165818L330.472727 671.557818v-216.064h40.331637v188.416l137.169454 53.248 141.172364-53.248v-188.416h40.354909v216.064z" fill="#CFA866" /><path d="M724.782545 355.141818h40.35491v232.448h-40.35491z" fill="#D3B074" /><path d="M509.975273 471.877818L211.479273 365.381818l298.496-107.52 299.52 107.52-299.52 106.496zM330.472727 365.381818l179.502546 64.512 179.525818-64.512-179.525818-64.512L330.472727 365.381818z" fill="#CFA866" /><path d="M330.472727 365.381818l179.502546 64.512 179.525818-64.512-179.525818-64.512z" fill="#FFFFFF" /></svg>