<?xml version="1.0" standalone="no"?><!DOCTYPE svg PUBLIC "-//W3C//DTD SVG 1.1//EN" "http://www.w3.org/Graphics/SVG/1.1/DTD/svg11.dtd"><svg class="icon" width="32px" height="32.00px" viewBox="0 0 1024 1024" version="1.1" xmlns="http://www.w3.org/2000/svg"><path d="M512 0C229.376 0 0 229.376 0 512S229.376 1024 512 1024 1024 794.624 1024 512 794.624 0 512 0zM384 329.242947C389.12 254.490947 431.104 204.8 513.509053 204.8c84.506947 0 121.370947 56.858947 125.952 124.442947 21.018947 0 23.066947 27.648 19.994947 48.613053-2.586947 19.941053-18.970947 44.570947-34.330947 52.762947-47.104 143.36-179.685053 143.845053-226.789053 0-15.36-8.192-31.744-32.282947-34.277053-52.762947-2.586947-21.018947-1.077895-48.613053 19.941053-48.613053z m419.301053 489.957053H220.698947v-122.88c0-71.68 52.170105-133.658947 125.898106-149.018947l53.786947-11.264L512 758.298947l111.616-222.208 53.733053 11.317895c73.728 15.306105 125.952 77.285053 125.952 148.965053v122.88z" fill="#1D77DE" /></svg>