<svg height="27.44" viewBox="0 0 1194 1024" width="32" xmlns="http://www.w3.org/2000/svg"><g fill="#007aff"><path d="m613.091556 114.232889-308.451556 96.711111a27.591111 27.591111 0 0 0 -19.399111 26.225778l1.536 380.245333.398222 4.266667c.568889 2.673778 13.198222 66.275556 76.288 127.544889 48.469333 47.217778 167.480889 108.942222 218.282667 135.224889 7.964444 4.152889 13.994667 7.224889 17.351111 9.102222l5.859555 3.072c3.982222 2.104889 8.590222 2.218667 12.686223.170666l8.419555-4.209777c29.696-14.336 180.565333-88.803556 236.657778-143.36 63.146667-61.383111 75.776-124.928 76.344889-127.601778l1.934222-384.568889a27.477333 27.477333 0 0 0 -19.342222-26.282667l-308.565333-96.540444zm275.911111 500.508444c-2.446222 9.329778-16.042667 55.409778-62.008889 100.124445-44.373333 43.235556-164.977778 105.073778-208.668445 126.862222a13.425778 13.425778 0 0 1 -12.515555-.113778h-.113778c-44.714667-23.096889-163.214222-84.536889-206.449778-126.691555-46.136889-44.771556-59.619556-90.851556-61.952-100.124445l-1.479111-353.223111c0-5.233778 3.527111-10.069333 8.533333-11.662222l260.380445-81.692445a27.534222 27.534222 0 0 1 16.668444 0l260.380445 81.692445c5.12 1.592889 8.647111 6.257778 8.647111 11.662222l-1.479111 353.166222z"/><path d="m613.148444 525.425778c-63.146667 0-114.403556-50.631111-114.403555-112.981334 0-62.293333 51.313778-112.981333 114.403555-112.981333 63.146667 0 114.460444 50.631111 114.460445 112.981333 0 62.293333-51.427556 112.981333-114.460445 112.981334zm0-178.062222c-36.352 0-65.934222 29.184-65.934222 65.080888 0 35.896889 29.582222 65.080889 65.991111 65.080889 36.352 0 65.934222-29.184 65.934223-65.080889 0-35.896889-29.582222-65.080889-65.991112-65.080888z"/><path d="m615.765333 669.639111a24.177778 24.177778 0 0 1 -24.234666-23.893333v-120.661334c0-13.255111 10.979556-23.950222 24.234666-23.950222 13.425778 0 24.291556 10.695111 24.291556 23.893334v120.604444c0 13.141333-10.979556 23.950222-24.291556 23.950222z"/></g></svg>