<?xml version="1.0" standalone="no"?><!DOCTYPE svg PUBLIC "-//W3C//DTD SVG 1.1//EN" "http://www.w3.org/Graphics/SVG/1.1/DTD/svg11.dtd"><svg class="icon" width="16px" height="16.00px" viewBox="0 0 1024 1024" version="1.1" xmlns="http://www.w3.org/2000/svg"><path d="M512 0C229.12 0 0 229.12 0 512s229.12 512 512 512 512-229.12 512-512c0-282.688-229.312-512-512-512z" fill="#6C83A6" /><path d="M832 717.568v34.112H192v-34.112c0-50.496 40.96-91.392 91.392-91.392h107.968s39.68-39.04 39.68-78.464S352 469.568 352 352a160.064 160.064 0 0 1 320 0c0 117.568-79.104 156.608-79.104 196.032 0 39.36 39.68 78.4 39.68 78.4h108.032A90.88 90.88 0 0 1 832 717.568zM192 832h640v-45.824H192V832z" fill="#FFFFFF" /></svg>