<?xml version="1.0" standalone="no"?><!DOCTYPE svg PUBLIC "-//W3C//DTD SVG 1.1//EN" "http://www.w3.org/Graphics/SVG/1.1/DTD/svg11.dtd"><svg class="icon" width="16px" height="16.00px" viewBox="0 0 1024 1024" version="1.1" xmlns="http://www.w3.org/2000/svg"><path d="M512 0C229.12 0 0 229.12 0 512s229.12 512 512 512 512-229.12 512-512c0-282.688-229.312-512-512-512z" fill="#F0BD2B" /><path d="M320 256m64 0l0 0q64 0 64 64l0 384q0 64-64 64l0 0q-64 0-64-64l0-384q0-64 64-64Z" fill="#FFFFFF" /><path d="M576 256m64 0l0 0q64 0 64 64l0 384q0 64-64 64l0 0q-64 0-64-64l0-384q0-64 64-64Z" fill="#FFFFFF" /></svg>