<svg height="27.44" viewBox="0 0 1194 1024" width="32" xmlns="http://www.w3.org/2000/svg"><path d="m289.166222 822.499556a30.776889 30.776889 0 1 1 -61.610666 0v-677.888a30.776889 30.776889 0 1 1 61.610666 0zm-30.776889 30.833777a30.776889 30.776889 0 1 1 0-61.610666h685.624889a30.776889 30.776889 0 1 1 0 61.610666zm176.298667-155.704889a30.549333 30.549333 0 1 1 -61.041778 0v-236.259555a30.549333 30.549333 0 0 1 61.041778 0v236.202667zm146.090667 0a30.549333 30.549333 0 1 1 -61.041778 0v-334.449777a30.549333 30.549333 0 0 1 61.041778 0zm292.238222 0a30.549333 30.549333 0 0 1 -61.041778 0v-481.28a30.549333 30.549333 0 1 1 61.041778 0zm-146.204445 0a30.549333 30.549333 0 0 1 -61.041777 0v-93.582222a30.549333 30.549333 0 1 1 61.041777 0z" fill="#007aff"/></svg>