<?xml version="1.0" standalone="no"?><!DOCTYPE svg PUBLIC "-//W3C//DTD SVG 1.1//EN" "http://www.w3.org/Graphics/SVG/1.1/DTD/svg11.dtd"><svg class="icon" width="16px" height="16.00px" viewBox="0 0 1024 1024" version="1.1" xmlns="http://www.w3.org/2000/svg"><path d="M512 0C229.12 0 0 229.12 0 512s229.12 512 512 512 512-229.12 512-512c0-282.688-229.312-512-512-512z m251.264 416l-269.888 269.888a54.848 54.848 0 0 1-39.552 16.064 54.848 54.848 0 0 1-39.616-16L260.736 532.48A55.168 55.168 0 0 1 338.752 454.4L453.76 569.6l231.424-231.488a55.168 55.168 0 0 1 78.016 78.016z" fill="#02E1A0" /></svg>