<?xml version="1.0" standalone="no"?><!DOCTYPE svg PUBLIC "-//W3C//DTD SVG 1.1//EN" "http://www.w3.org/Graphics/SVG/1.1/DTD/svg11.dtd"><svg class="icon" width="32px" height="30.01px" viewBox="0 0 1092 1024" version="1.1" xmlns="http://www.w3.org/2000/svg"><path d="M1029.461333 142.5408a34.133333 34.133333 0 0 0-41.847466 24.098133l-26.8288 100.283734A510.7712 510.7712 0 0 0 512 0a512 512 0 0 0 0 1024c235.383467 0 433.152-159.061333 493.021867-375.466667h-3.413334a34.133333 34.133333 0 1 0-68.266666 0c0 0.477867 0.2048 0.8192 0.2048 1.365334A443.665067 443.665067 0 0 1 68.266667 512 443.733333 443.733333 0 0 1 512 68.266667c177.493333 0 330.274133 104.448 401.2032 255.112533l-134.621867-35.976533a34.133333 34.133333 0 1 0-17.6128 65.877333l197.8368 52.974933a34.133333 34.133333 0 0 0 41.7792-24.098133l1.8432-6.690133h2.594134c-0.4096-1.570133-1.024-2.935467-1.4336-4.5056l49.9712-186.641067a34.133333 34.133333 0 0 0-24.098134-41.7792" fill="#0285FF" /></svg>