<?xml version="1.0" standalone="no"?><!DOCTYPE svg PUBLIC "-//W3C//DTD SVG 1.1//EN" "http://www.w3.org/Graphics/SVG/1.1/DTD/svg11.dtd"><svg class="icon" width="32px" height="28.25px" viewBox="0 0 1160 1024" version="1.1" xmlns="http://www.w3.org/2000/svg"><path d="M1105.781255 674.884965h-289.040488c-14.745571 0-29.218075 16.452234-29.218075 33.2458s14.472504 33.2458 29.218075 33.2458h289.040488c14.745571 0 29.218075-16.452234 29.218075-33.2458s-14.335971-33.2458-29.218075-33.2458z m-289.040488-100.624866h289.040488c14.745571 0 29.218075-16.383967 29.218075-33.177533s-14.472504-33.2458-29.218075-33.2458h-289.040488c-14.745571 0-29.218075 16.383967-29.218075 33.2458 0 16.7253 14.335971 33.177534 29.218075 33.177533z m289.040488 267.877865h-289.040488c-18.022364 0-29.218075 12.697575-29.218075 33.2458 0 16.7253 14.472504 33.177534 29.218075 33.177534h289.040488c14.745571 0 29.218075-16.383967 29.218075-33.177534s-14.335971-33.2458-29.218075-33.2458zM892.926214 67.108047a108.40725 108.40725 0 0 0-37.819658-47.718304A108.338983 108.338983 0 0 0 792.710948 0.002048H108.816849c-22.527955-0.136533-44.373245 6.69012-62.805208 19.524228-34.338065 24.439418-51.609497 66.286801-44.373244 107.656318 4.095992 21.913556 14.882104 42.052183 30.993004 57.548685l288.289557 281.053304v439.158588c0.068267 14.404238 8.874649 27.374879 22.254889 32.972735l186.026295 79.462241a36.454327 36.454327 0 0 0 50.653765-33.109268V465.85285l288.289557-281.053305c16.247434-15.496502 27.170079-35.635129 31.334337-57.616951 3.54986-20.275159 1.365331-41.096451-6.621853-60.074547z m-809.299715 66.218534a35.566862 35.566862 0 0 1-0.273066-50.517232 36.181261 36.181261 0 0 1 25.531683-10.649579h683.894098a35.635129 35.635129 0 1 1 25.258617 61.235078L507.629918 435.405977v494.591011l-113.32244-48.469236V435.54251L83.558233 133.394848z" fill="#000000" /></svg>