<?xml version="1.0" standalone="no"?><!DOCTYPE svg PUBLIC "-//W3C//DTD SVG 1.1//EN" "http://www.w3.org/Graphics/SVG/1.1/DTD/svg11.dtd"><svg class="icon" width="32px" height="32.00px" viewBox="0 0 1024 1024" version="1.1" xmlns="http://www.w3.org/2000/svg"><path d="M133.008213 647.566222V378.936889C133.008213 169.870222 302.821547 0.398222 512.229547 0.398222c209.408 0 379.221333 169.472 379.221333 378.538667v268.629333l71.850667 143.473778a37.831111 37.831111 0 0 1-33.905778 54.727111H95.063324a37.831111 37.831111 0 0 1-33.905777-54.727111l71.850666-143.473778z m735.004445 122.538667l-48.355556-96.654222a37.774222 37.774222 0 0 1-4.039111-16.896V378.88A303.104 303.104 0 0 0 512.229547 76.117333 303.104 303.104 0 0 0 208.841102 378.88v277.617778a37.831111 37.831111 0 0 1-3.982222 16.896l-48.412444 96.654222h711.566222zM342.58688 950.613333a37.831111 37.831111 0 0 1-4.892444-53.304889 37.944889 37.944889 0 0 1 53.418666-4.892444A188.871111 188.871111 0 0 0 512.229547 936.049778a188.871111 188.871111 0 0 0 121.116444-43.633778 37.944889 37.944889 0 0 1 53.418667 4.892444 37.831111 37.831111 0 0 1-4.949334 53.304889A264.760889 264.760889 0 0 1 512.229547 1011.768889a264.760889 264.760889 0 0 1-169.642667-61.155556z" fill="#303133" /></svg>