<svg height="27.44" viewBox="0 0 1194 1024" width="32" xmlns="http://www.w3.org/2000/svg"><path d="m334.563556 900.209778c-2.616889-2.275556-5.290667-5.12-7.964445-7.964445 2.901333 2.844444 5.347556 5.688889 7.964445 7.964445zm-8.533334-3.640889c-2.730667-2.56-5.461333-5.12-7.964444-7.964445 2.503111 2.844444 5.233778 5.404444 7.964444 7.964445zm688.583111-659.228445a33.393778 33.393778 0 0 0 -23.324444-9.443555h-163.555556v-51.256889c0-34.702222-27.989333-62.862222-62.464-62.862222h-279.153777c-34.474667 0-62.464 28.16-62.464 62.862222v51.256889h-164.408889a31.857778 31.857778 0 0 0 -31.687111 31.914667c0 17.635556 14.222222 31.971556 31.744 31.971555h27.989333v555.576889c0 34.702222 27.989333 62.862222 62.464 62.862222h560.924444c34.474667 0 62.464-28.16 62.464-62.862222v-555.576889h18.204445c17.521778 0 32.654222-14.279111 32.654222-31.971555a31.630222 31.630222 0 0 0 -9.329778-22.471112zm-528.554666-60.529777h279.04v51.655111h-279.04zm424.504889 670.435555h-560.810667v-555.406222h560.810667v555.463111zm-285.240889-448.455111c-17.635556 0-31.857778 14.392889-31.857778 32.142222v297.813334c0 17.749333 14.222222 32.085333 31.857778 32.085333s31.914667-14.336 31.914666-32.085333v-297.870223a31.971556 31.971556 0 0 0 -31.857777-32.142222zm-172.771556 0c-17.635556 0-31.857778 14.392889-31.857778 32.142222v297.813334c0 17.749333 14.222222 32.085333 31.857778 32.085333s31.857778-14.336 31.857778-32.085333v-297.870223a31.971556 31.971556 0 0 0 -31.857778-32.142222zm343.779556 0c-17.635556 0-31.857778 14.392889-31.857778 32.142222v297.813334c0 17.749333 14.222222 32.085333 31.857778 32.085333s31.914667-14.336 31.914666-32.085333v-297.870223a31.971556 31.971556 0 0 0 -31.857777-32.142222z" fill="#ff3b30"/></svg>