<?xml version="1.0" standalone="no"?><!DOCTYPE svg PUBLIC "-//W3C//DTD SVG 1.1//EN" "http://www.w3.org/Graphics/SVG/1.1/DTD/svg11.dtd"><svg class="icon" width="32px" height="32.00px" viewBox="0 0 1024 1024" version="1.1" xmlns="http://www.w3.org/2000/svg"><path d="M512 512m-512 0a512 512 0 1 0 1024 0 512 512 0 1 0-1024 0Z" fill="#F9FAFC" /><path d="M668.267163 572.53507c6.334512-6.953674 19.289302-21.003907 24.861767-26.004837 7.501395-6.739349 15.741023-38.983442 17.241303-56.248559 1.500279-17.241302 9.763721-41.221953-11.240186-42.722232-8.954047-0.642977-14.050233 1.428837-17.003163 4.000744 1.309767-18.884465 1.952744-35.768558 1.571721-48.628093-1.666977-59.534884-25.052279-164.792558-172.055814-164.792558-148.884837 0-169.341023 90.35014-172.127256 146.789209-0.809674 16.479256-0.261953 39.769302 1.095442 65.583628-3.262512-1.857488-8.096744-2.786233-14.526512-2.762419-21.027721 0.071442-14.431256 24.599814-14.074046 41.912559 0.333395 17.312744 6.38214 50.009302 13.407255 57.272558 5.953488 6.120186 21.194419 24.623628 25.766698 30.243721l0.095256 0.809674c2.119442 19.241674 6.144 38.221395 12.002232 56.677209 4.953302 16.122047 94.017488 108.758326 111.97321 120.022326 17.979535 11.264 50.938047 8.239628 74.918697 0 0 0 93.42214-100.852093 100.780652-118.474419a263.382326 263.382326 0 0 0 17.312744-63.678511z m11.264 75.585488c-4.953302 11.883163-21.122977 31.86307-51.461954 66.44093l-4.048372 4.596093a3321.784558 3321.784558 0 0 1-46.699163 51.771535l-4.429395 4.786605-5.286698 5.715349-7.358511 2.524279c-35.268465 12.145116-75.442605 13.264372-101.447442-3.048186-25.48093-15.979163-117.926698-113.78307-125.023256-136.858791a322.821953 322.821953 0 0 1-12.216558-54.176744 514.905302 514.905302 0 0 0-18.336744-21.38493c-13.716837-14.09786-21.62307-50.723721-22.170791-78.228838a139.287814 139.287814 0 0 0-0.523907-8.287255l-0.214325-2.548093c-1.047814-13.978791-0.881116-22.313674 2.452837-32.267907a42.960372 42.960372 0 0 1 25.623814-27.195535c-0.333395-14.288372-0.285767-26.552558 0.214325-36.554419 5.23907-106.162605 62.130605-176.223256 203.037768-176.223256 140.16893 0 199.846698 82.491535 202.990139 194.845768 0.166698 5.215256 0.166698 11.02586 0.047628 17.384186 13.812093 4.858047 23.813953 15.693395 27.671814 30.315163 2.690977 10.144744 2.309953 18.503442 0.333395 32.315535l-0.381023 2.524279a140.502326 140.502326 0 0 0-1.095442 8.406325c-2.381395 27.386047-12.764279 63.416558-27.386046 76.585675-2.690977 2.429023-9.049302 9.049302-16.479256 17.098418a294.769116 294.769116 0 0 1-17.812837 61.463814z" fill="#1D77DE" /></svg>