<?xml version="1.0" standalone="no"?><!DOCTYPE svg PUBLIC "-//W3C//DTD SVG 1.1//EN" "http://www.w3.org/Graphics/SVG/1.1/DTD/svg11.dtd"><svg class="icon" width="32px" height="32.00px" viewBox="0 0 1024 1024" version="1.1" xmlns="http://www.w3.org/2000/svg"><path d="M512 512m-512 0a512 512 0 1 0 1024 0 512 512 0 1 0-1024 0Z" fill="#F9FAFC" /><path d="M693.509953 514.309953a91.350326 91.350326 0 0 0-91.397953 91.37414 91.683721 91.683721 0 0 0 59.558698 85.634977 95.35107 95.35107 0 0 1-25.790512 33.196651 91.112186 91.112186 0 0 1-57.629767 20.313302 91.636093 91.636093 0 0 1-91.683721-91.683721v-108.377302c56.820093-3.024372 102.114233-20.861023 134.215442-53.509953 24.69507-24.980837 41.436279-58.177488 49.675907-98.518326 3.834047-18.955907 5.477209-36.244837 5.762976-50.485581h0.261954v-72.751628h-155.862326v33.768186h122.117954v14.288372c0.261953 13.693023 0.547721 39.507349-5.47721 68.036465-6.882233 34.03014-20.59907 61.463814-40.626604 81.777116-28.814884 29.100651-71.632372 43.91293-127.33321 43.91293-55.438884 0-98.256372-14.812279-127.071255-43.91293-42.245953-43.103256-45.818047-107.305674-45.818047-140.240372v-23.861581h122.117954v-33.768186h-155.88614v58.749023c0 16.193488 0.833488 38.959628 6.048744 64.202418 8.239628 40.626605 24.980837 73.823256 49.675907 98.804094 32.101209 32.64893 77.395349 50.485581 134.191628 53.509953v109.782326a123.904 123.904 0 0 0 36.768744 87.254325 125.261395 125.261395 0 0 0 88.635535 36.768744 126.356837 126.356837 0 0 0 78.776558-27.719442 125.356651 125.356651 0 0 0 38.673861-53.509953 91.683721 91.683721 0 0 0 89.469023-91.37414 91.421767 91.421767 0 0 0-91.37414-91.68372z m0 149.003907a58.034605 58.034605 0 0 1-57.915534-57.629767 57.915535 57.915535 0 0 1 115.807255 0 57.867907 57.867907 0 0 1-57.891721 57.629767z" fill="#A8A8A8" /></svg>