<?xml version="1.0" standalone="no"?><!DOCTYPE svg PUBLIC "-//W3C//DTD SVG 1.1//EN" "http://www.w3.org/Graphics/SVG/1.1/DTD/svg11.dtd"><svg class="icon" width="32px" height="32.00px" viewBox="0 0 1024 1024" version="1.1" xmlns="http://www.w3.org/2000/svg"><path d="M512 512m-512 0a512 512 0 1 0 1024 0 512 512 0 1 0-1024 0Z" fill="#F9FAFC" /><path d="M505.236837 424.96a401.217488 401.217488 0 0 1-208.062511-57.46307c-23.266233-14.193116-35.887628-25.338047-36.554419-26.028651l-18.622512-16.907907h44.532093l2.333768 1.714605c5.667721 4.048372 11.645023 8.096744 17.955721 11.811721a378.403721 378.403721 0 0 0 162.863628 53.081302c88.064 8.096744 178.818977-14.193116 269.216744-65.583628l2.000372-1.357395h57.486884l-28.576745 17.931907c-88.087814 55.081674-177.175814 82.801116-264.573023 82.801116z" fill="#A8A8A8" /><path d="M524.192744 770.405209c-46.532465 0-86.420837-17.241302-118.331535-51.366697-41.86493-44.627349-69.465302-116.61693-82.086697-213.968372-9.311256-71.989581-6.667907-130.119442-6.667907-132.500838l0.357209-9.120744 27.909953-0.333395v9.787535c-0.333395 24.004465 0.333395 86.873302 11.62121 153.457116 13.978791 81.13414 38.578605 140.264186 73.466046 176.104186 25.6 26.362047 56.843907 39.531163 93.06493 39.531163 60.820837 0 106.353116-53.390884 134.596466-158.83907 22.932837-85.515907 27.600372-179.485767 28.267162-215.659163l0.333396-9.120744 28.576744-0.333395v9.787535c0 0.690605 0.333395 65.583628-11.645023 141.97879-15.955349 103.424-44.865488 177.437767-86.397024 219.707535-26.266791 27.386047-57.510698 40.888558-93.06493 40.888558z" fill="#A8A8A8" /></svg>