<?xml version="1.0" standalone="no"?><!DOCTYPE svg PUBLIC "-//W3C//DTD SVG 1.1//EN" "http://www.w3.org/Graphics/SVG/1.1/DTD/svg11.dtd"><svg class="icon" width="32px" height="32.00px" viewBox="0 0 1024 1024" version="1.1" xmlns="http://www.w3.org/2000/svg"><path d="M163.84 860.603733c192.580267 192.580267 504.797867 192.580267 697.378133 0 192.580267-192.546133 192.580267-504.797867 0-697.378133C668.637867-29.422933 356.352-29.422933 163.805867 163.157333c-192.580267 192.580267-192.580267 504.832 0 697.378134v0.034133z" fill="#24B46B" /><path d="M285.7984 564.906667c30.856533-121.002667-104.6528-147.217067-114.346667-50.005334-7.031467 71.509333 33.757867 154.692267 57.2416 190.907734 3.9936 1.160533 7.7824 2.286933 11.844267 3.310933h14.4384v23.04c0 10.3424 12.731733 18.773333 28.501333 18.773333 15.803733 0 28.5696-8.430933 28.5696-18.773333v-23.04h399.872v23.04c0 10.3424 12.868267 18.773333 28.603734 18.773333 15.7696 0 28.5696-8.430933 28.5696-18.773333v-23.04h12.9024c5.12-2.116267 9.045333-5.700267 14.165333-7.850667 24.576-48.2304 71.236267-128.682667 53.077333-204.561066-12.1856-50.858667-92.945067-61.508267-110.250666 0-7.611733 27.306667 11.946667 43.451733-8.192 72.8064 0 0-203.400533-109.6704-444.928-4.539734m20.5824-27.306666c3.413333-69.0176-31.607467-95.061333-77.5168-109.124267-27.886933-229.5808 433.322667-226.645333 530.705066-118.135467 23.3472 26.043733 36.6592 73.489067 36.7616 118.135467-46.250667 13.653333-84.411733 36.420267-77.585066 109.124267 0 0-199.850667-92.945067-412.330667 0" fill="#FFFFFF" /></svg>