<?xml version="1.0" standalone="no"?><!DOCTYPE svg PUBLIC "-//W3C//DTD SVG 1.1//EN" "http://www.w3.org/Graphics/SVG/1.1/DTD/svg11.dtd"><svg class="icon" width="32px" height="32.00px" viewBox="0 0 1024 1024" version="1.1" xmlns="http://www.w3.org/2000/svg"><path d="M163.84 860.603733c192.580267 192.580267 504.797867 192.580267 697.378133 0 192.580267-192.546133 192.580267-504.797867 0-697.378133C668.637867-29.422933 356.352-29.422933 163.805867 163.157333c-192.580267 192.580267-192.580267 504.832 0 697.378134v0.034133z" fill="#F18C36" /><path d="M778.205867 554.257067a18.466133 18.466133 0 0 0 6.2464-2.1504c5.154133-2.491733 8.874667-6.826667 10.683733-11.4688a13.994667 13.994667 0 0 0-0.7168-10.752c-3.345067-6.109867-11.0592-8.977067-19.182933-7.509334a18.466133 18.466133 0 0 0-6.2464 2.116267 21.742933 21.742933 0 0 0-10.683734 11.4688 13.994667 13.994667 0 0 0 0.7168 10.786133c2.935467 6.075733 10.683733 8.942933 19.182934 7.509334z" fill="#FFFFFF" /><path d="M876.9536 539.5456a103.8336 103.8336 0 0 0-10.683733-30.446933c-23.586133-43.008-76.288-65.979733-130.833067-56.661334a152.644267 152.644267 0 0 0-33.1776 9.693867v-86.016l-51.575467-75.6736-68.949333 66.696533v168.482134a84.241067 84.241067 0 0 0-30.208-13.277867v-161.28a16.9984 16.9984 0 0 1 4.778667-10.410667l64.512-62.395733H340.002133l-60.074666 88.541867v205.4144c0 7.8848 3.310933 15.428267 8.874666 20.821333a175.616 175.616 0 0 0-18.807466 17.92c-26.555733 31.163733-35.771733 65.604267-27.989334 103.594667 3.652267 23.278933 13.994667 44.4416 30.549334 63.453866 16.5888 18.978133 38.331733 33.314133 63.761066 43.349334 16.5888 5.768533 34.269867 10.069333 50.858667 13.312 21.742933 4.266667 43.1104 6.792533 64.853333 7.850666 12.9024 1.092267 26.555733 1.092267 39.458134 0 39.424-1.058133 84.002133-11.093333 105.3696-41.233066 10.3424-14.336 15.121067-31.163733 16.5888-48.0256 0.375467-6.826667 0.750933-14.336 0-21.845334 18.090667 6.075733 38.331733 7.509333 58.9824 3.925334a225.962667 225.962667 0 0 0 37.205333-9.3184l102.0928-32.256 0.750933-0.341334a140.014933 140.014933 0 0 0 61.5424-58.094933c8.465067-16.145067 12.9024-33.348267 13.243734-50.176 0-1.809067-9.216-54.1696-10.308267-55.6032z m-138.922667-10.0352c3.310933-10.0352 11.0592-18.6368 20.992-23.6544a48.128 48.128 0 0 1 12.151467-3.925333c17.339733-2.8672 33.928533 4.3008 41.301333 18.261333 4.437333 8.260267 5.12 17.578667 2.184534 26.555733a41.7792 41.7792 0 0 1-20.992 23.6544 48.128 48.128 0 0 1-12.151467 3.925334c-17.339733 2.8672-33.928533-4.3008-41.301333-18.261334a33.041067 33.041067 0 0 1-2.184534-26.555733z m-180.974933 44.100267a76.663467 76.663467 0 0 0-5.5296 12.561066v-17.92c1.8432 1.4336 3.6864 3.208533 5.5296 5.358934z m8.874667 187.4944c-1.1264 10.0352-3.6864 21.162667-10.3424 30.1056-12.9024 16.861867-47.172267 21.162667-68.539734 22.2208h-31.709866a435.541333 435.541333 0 0 1-57.105067-6.826667 185.685333 185.685333 0 0 1-41.984-11.093333 135.611733 135.611733 0 0 1-47.2064-31.163734 92.296533 92.296533 0 0 1-21.742933-45.533866c-5.154133-26.897067 1.092267-51.268267 20.2752-73.489067 11.0592-13.277867 26.180267-24.3712 42.3936-33.723733h196.4032c-0.341333 10.410667 0.750933 21.879467 3.310933 34.816l8.123733 45.8752a6.826667 6.826667 0 0 0 0.341334 2.8672c-1.809067 10.752-1.809067 21.504 2.2528 30.1056 5.5296 10.0352 6.997333 24.712533 5.5296 35.84z m288.5632-125.098667c-10.717867 20.411733-29.115733 37.614933-51.6096 48.7424l-102.8096 32.631467c-36.864 10.0352-67.447467 10.376533-92.16 1.058133-0.7168-2.491733-1.8432-5.0176-2.935467-7.509333-0.750933-1.4336-0.750933-4.676267 0-8.6016 20.2752 8.942933 41.984 11.4688 64.853333 6.826666 11.434667-1.809067 134.519467-42.666667 134.519467-42.666666a135.68 135.68 0 0 0 58.606933-53.794134c-1.467733 8.260267-4.437333 15.7696-8.465066 23.313067z" fill="#FFFFFF" /><path d="M398.2336 621.6704c-45.704533 0-82.568533 31.163733-82.568533 70.2464 0 39.082667 36.864 70.280533 84.036266 70.280533 45.704533 0 84.036267-31.197867 84.036267-70.280533-1.8432-39.082667-38.7072-70.2464-85.504-70.2464z m243.6096-421.239467c0-16.145067-13.653333-29.3888-30.242133-29.3888h-241.390934c-16.554667 0-30.208 13.243733-30.208 29.3888v58.7776h301.841067V200.430933z" fill="#FFFFFF" /></svg>