<?xml version="1.0" standalone="no"?><!DOCTYPE svg PUBLIC "-//W3C//DTD SVG 1.1//EN" "http://www.w3.org/Graphics/SVG/1.1/DTD/svg11.dtd"><svg class="icon" width="32px" height="32.00px" viewBox="0 0 1024 1024" version="1.1" xmlns="http://www.w3.org/2000/svg"><path d="M163.84 860.603733c192.580267 192.580267 504.797867 192.580267 697.378133 0 192.580267-192.546133 192.580267-504.797867 0-697.378133C668.637867-29.422933 356.352-29.422933 163.805867 163.157333c-192.580267 192.580267-192.580267 504.832 0 697.378134v0.034133z" fill="#1D77DE" /><path d="M505.6512 413.627733a513.399467 513.399467 0 0 1-260.949333-70.007466c-29.184-17.271467-45.021867-30.856533-45.841067-31.709867l-23.3472-20.5824H231.424l2.901333 2.048c7.099733 4.949333 14.574933 9.898667 22.528 14.4384a484.010667 484.010667 0 0 0 204.219734 64.648533c110.4896 9.898667 224.256-17.3056 337.646933-79.872l2.525867-1.672533h72.0896l-35.84 21.845333c-110.455467 67.106133-222.173867 100.864-331.776 100.864z" fill="#FFFFFF" /><path d="M381.0304 771.925333c-52.5312-54.3744-87.1424-142.097067-102.980267-260.676266-11.6736-87.722667-8.328533-158.549333-8.328533-161.450667l0.4096-11.093333L305.152 338.261333c95.8464 32.802133 161.0752 50.653867 195.652267 53.521067 109.704533 9.147733 187.1872-10.6496 232.448-59.2896l35.84-0.4096v11.946667c0 0.8192 0.4096 79.872-14.574934 172.9536-20.002133 125.986133-56.285867 216.1664-108.373333 267.6736-32.938667 33.348267-72.123733 49.834667-116.736 49.834666-58.368 0-108.373333-21.026133-148.3776-62.600533z" fill="#FFFFFF" /></svg>