<?xml version="1.0" standalone="no"?><!DOCTYPE svg PUBLIC "-//W3C//DTD SVG 1.1//EN" "http://www.w3.org/Graphics/SVG/1.1/DTD/svg11.dtd"><svg class="icon" width="32px" height="32.00px" viewBox="0 0 1024 1024" version="1.1" xmlns="http://www.w3.org/2000/svg"><path d="M163.84 860.603733c192.580267 192.580267 504.797867 192.580267 697.378133 0 192.580267-192.546133 192.580267-504.797867 0-697.378133C668.637867-29.422933 356.352-29.422933 163.805867 163.157333c-192.580267 192.580267-192.580267 504.832 0 697.378134v0.034133z" fill="#1D77DE" /><path d="M724.036267 606.4128l-1.024 6.314667a332.6976 332.6976 0 0 1-22.4256 76.629333c-10.001067 22.971733-136.772267 154.385067-136.772267 154.385067-32.529067 10.752-77.277867 14.677333-101.649067 0-24.3712-14.677333-145.237333-135.406933-151.9616-156.398934a367.274667 367.274667 0 0 1-16.384-74.922666c-6.2464-7.304533-26.9312-31.402667-34.986666-39.389867-9.557333-9.454933-17.749333-52.087467-18.193067-74.6496-0.477867-22.528-9.454933-54.4768 19.114667-54.5792 8.704 0 15.291733 1.160533 19.694933 3.584-1.8432-33.655467-2.594133-64-1.501867-85.435733C281.736533 288.392533 309.486933 170.666667 511.522133 170.666667c199.4752 0 231.2192 137.147733 233.472 214.698666 0.512 16.759467-0.341333 38.8096-2.116266 63.419734 3.959467-3.413333 10.922667-6.075733 23.074133-5.256534 28.4672 1.979733 17.271467 33.211733 15.2576 55.671467-2.048 22.528-13.243733 64.512-23.415467 73.3184-7.509333 6.519467-25.122133 24.814933-33.757866 33.8944z" fill="#FFFFFF" /></svg>