<?xml version="1.0" standalone="no"?><!DOCTYPE svg PUBLIC "-//W3C//DTD SVG 1.1//EN" "http://www.w3.org/Graphics/SVG/1.1/DTD/svg11.dtd"><svg class="icon" width="32px" height="32.00px" viewBox="0 0 1024 1024" version="1.1" xmlns="http://www.w3.org/2000/svg"><path d="M163.84 860.603733c192.580267 192.580267 504.797867 192.580267 697.378133 0 192.580267-192.546133 192.580267-504.797867 0-697.378133C668.637867-29.422933 356.352-29.422933 163.805867 163.157333c-192.580267 192.580267-192.580267 504.832 0 697.378134v0.034133z" fill="#E24D5F" /><path d="M786.773333 641.2288c-36.727467 0-66.491733-28.808533-66.491733-64.375467 0-35.5328 29.764267-64.341333 66.525867-64.341333 36.727467 0 66.525867 28.808533 66.525866 64.341333 0 35.566933-29.7984 64.375467-66.56 64.375467z m15.701334 31.402667a29.9008 29.9008 0 0 1 35.874133 21.469866 28.842667 28.842667 0 0 1-22.1184 34.747734l-99.054933 21.2992c-8.260267 1.911467-14.916267 0.273067-19.933867-3.8912a7.953067 7.953067 0 0 1-3.003733-2.833067l-0.375467-0.682667a30.788267 30.788267 0 0 1-3.8912-6.382933l-46.592-77.482667H197.5296a16.861867 16.861867 0 0 1-11.946667-4.881066 15.872 15.872 0 0 1-5.802666-11.195734l-2.184534-32.085333a16.2816 16.2816 0 0 1 15.496534-17.134933l450.696533-28.8768c12.322133-2.1504 20.514133 4.232533 23.552 9.216l69.393067 113.800533 65.706666-15.0528z m-171.554134-138.1376l-74.8544-13.312a30.651733 30.651733 0 0 1-19.0464-10.8544l-0.443733-0.546134-0.034133-0.068266a29.354667 29.354667 0 0 1-3.652267-6.144l-30.139733-50.7904-16.930134 84.5824-116.4288 5.358933 33.28-155.5456c9.591467-37.512533 39.287467-43.178667 59.0848-41.472 23.108267-2.082133 47.445333 11.229867 57.173334 24.644267l70.382933 96.768 51.4048 9.147733c16.622933 2.594133 27.886933 17.749333 25.1904 33.860267-2.696533 16.042667-18.363733 26.965333-34.986667 24.3712zM513.536 333.482667c-36.727467 0-66.525867-28.808533-66.525867-64.341334 0-35.566933 29.7984-64.375467 66.56-64.375466 36.727467 0 66.491733 28.808533 66.491734 64.375466 0 35.5328-29.764267 64.341333-66.525867 64.341334zM631.808 703.146667l5.051733 21.6064c0 5.9392-1.911467 10.752-8.021333 10.752H147.626667A10.922667 10.922667 0 0 1 136.533333 724.753067v-21.435734a10.922667 10.922667 0 0 1 11.093334-10.717866h470.1184c6.109867 0 11.605333 3.822933 14.062933 10.5472z" fill="#FFFFFF" /></svg>