<?xml version="1.0" standalone="no"?><!DOCTYPE svg PUBLIC "-//W3C//DTD SVG 1.1//EN" "http://www.w3.org/Graphics/SVG/1.1/DTD/svg11.dtd"><svg class="icon" width="32px" height="32.00px" viewBox="0 0 1024 1024" version="1.1" xmlns="http://www.w3.org/2000/svg"><path d="M163.84 860.603733c192.580267 192.580267 504.797867 192.580267 697.378133 0 192.580267-192.546133 192.580267-504.797867 0-697.378133C668.637867-29.422933 356.352-29.422933 163.805867 163.157333c-192.580267 192.580267-192.580267 504.832 0 697.378134v0.034133z" fill="#1D77DE" /><path d="M560.503467 399.906133h-27.374934v-26.385066c0-10.24-8.6016-18.500267-19.1488-18.500267-10.581333 0-19.114667 8.260267-19.114666 18.500267v26.385066h-27.409067c-10.581333 0-19.114667 8.260267-19.114667 18.500267 0 4.949333 1.9456 9.557333 5.563734 13.073067a19.797333 19.797333 0 0 0 13.550933 5.393066h27.374933v26.385067c0 4.949333 1.979733 9.557333 5.632 13.1072a19.797333 19.797333 0 0 0 27.0336 0 17.885867 17.885867 0 0 0 5.632-13.1072V436.906667h27.374934a19.114667 19.114667 0 0 0 13.550933-5.393067 17.885867 17.885867 0 0 0 5.597867-13.073067c0-10.24-8.567467-18.500267-19.114667-18.500266z m-173.909334 249.0368a13.243733 13.243733 0 0 0-13.2096 13.2096c0 7.2704 5.9392 13.2096 13.2096 13.2096h254.7712a13.243733 13.243733 0 0 0 13.2096-13.2096 13.243733 13.243733 0 0 0-13.2096-13.2096h-254.7712z m0-61.576533a13.243733 13.243733 0 0 0-13.2096 13.175467c0 7.2704 5.9392 13.2096 13.2096 13.2096h254.7712a13.243733 13.243733 0 0 0 13.2096-13.2096 13.243733 13.243733 0 0 0-13.2096-13.175467h-254.7712z m0-61.713067a13.243733 13.243733 0 0 0-13.2096 13.175467c0 7.2704 5.9392 13.2096 13.2096 13.2096h254.7712a13.243733 13.243733 0 0 0 13.2096-13.2096 13.243733 13.243733 0 0 0-13.2096-13.175467h-254.7712z m286.344534 232.8576H354.986667c-30.242133 0-54.784-23.7568-54.784-53.009066V360.8576c0-29.252267 24.576-53.009067 54.784-53.009067h27.409066v-13.312c0-16.1792 13.5168-29.149867 30.139734-29.149866 8.021333 0 15.598933 3.072 21.333333 8.567466a28.4672 28.4672 0 0 1 8.8064 20.6848v13.312h142.4384v-13.312c0-7.816533 3.208533-15.189333 8.8064-20.6848a30.685867 30.685867 0 0 1 21.333333-8.567466c16.622933 0 30.139733 13.073067 30.139734 29.149866v13.312h27.409066c30.242133 0 54.749867 23.7568 54.749867 53.009067V705.536c0.136533 29.252267-24.405333 53.009067-54.647467 53.009067z" fill="#FFFFFF" /></svg>