<?xml version="1.0" standalone="no"?><!DOCTYPE svg PUBLIC "-//W3C//DTD SVG 1.1//EN" "http://www.w3.org/Graphics/SVG/1.1/DTD/svg11.dtd"><svg class="icon" width="32px" height="32.00px" viewBox="0 0 1024 1024" version="1.1" xmlns="http://www.w3.org/2000/svg"><path d="M163.84 860.603733c192.580267 192.580267 504.797867 192.580267 697.378133 0 192.580267-192.546133 192.580267-504.797867 0-697.378133C668.637867-29.422933 356.352-29.422933 163.805867 163.157333c-192.580267 192.580267-192.580267 504.832 0 697.378134v0.034133z" fill="#5743D0" /><path d="M301.397333 553.1648c-65.536 0-118.6816 51.541333-118.6816 115.029333 0 63.522133 53.1456 115.063467 118.6816 115.063467s118.6816-51.541333 118.6816-115.029333c-0.068267-63.488-53.179733-115.029333-118.6816-115.029334z m395.5712 0c-65.536 0-118.6816 51.541333-118.6816 115.029333 0 63.522133 53.1456 115.063467 118.6816 115.063467s118.6816-51.541333 118.6816-115.029333-53.179733-115.029333-118.6816-115.029334z m-89.975466-35.362133c4.5056 5.256533 10.001067 8.772267 16.145066 8.772266h6.144c3.310933 0.341333 6.4512 0.512 9.728 0h89.770667c14.472533 0 26.350933-17.066667 26.350933-38.365866 0-21.162667-11.8784-38.365867-26.385066-38.365867h-81.3056l-25.224534-21.742933a76.765867 76.765867 0 0 0-8.362666-101.2736 82.944 82.944 0 0 0-114.688 0l-114.688 111.3088a76.936533 76.936533 0 0 0 0 111.172266 82.261333 82.261333 0 0 0 75.093333 20.923734v97.962666c0 21.230933 17.749333 38.4 39.594667 38.4 21.845333 0 39.594667-17.1008 39.594666-38.365866v-153.429334c0-1.160533-0.580267-2.048-0.648533-3.1744l29.0816-28.194133 39.799467 34.372267z m89.975466-156.330667c43.656533 0 79.086933-34.338133 79.086934-76.663467s-35.4304-76.731733-79.086934-76.731733c-43.690667 0-79.121067 34.338133-79.121066 76.663467s35.464533 76.731733 79.121066 76.731733z" fill="#FFFFFF" /></svg>