<?xml version="1.0" standalone="no"?><!DOCTYPE svg PUBLIC "-//W3C//DTD SVG 1.1//EN" "http://www.w3.org/Graphics/SVG/1.1/DTD/svg11.dtd"><svg class="icon" width="32px" height="32.00px" viewBox="0 0 1024 1024" version="1.1" xmlns="http://www.w3.org/2000/svg"><path d="M163.84 860.603733c192.580267 192.580267 504.797867 192.580267 697.378133 0 192.580267-192.546133 192.580267-504.797867 0-697.378133C668.637867-29.422933 356.352-29.422933 163.805867 163.157333c-192.580267 192.580267-192.580267 504.832 0 697.378134v0.034133z" fill="#77B72D" /><path d="M529.066667 170.666667A85.333333 85.333333 0 1 1 443.733333 256C443.050667 209.237333 481.621333 170.666667 529.066667 170.666667zM803.4304 684.680533c2.8672 2.730667 4.983467 6.178133 5.700267 9.6256l2.1504 10.308267c2.1504 8.226133-2.8672 17.851733-12.868267 26.112a23.313067 23.313067 0 0 1-10.717867 7.543467 147.626667 147.626667 0 0 1-53.589333 17.885866c-35.703467 1.365333-64.3072 1.365333-89.2928 3.413334-2.1504 0-4.3008 0.682667-6.4512 0.682666-30.72 2.7648-59.2896 8.942933-93.5936 24.064-5.7344 0.682667-11.434667 0-15.701333-0.682666a29.7984 29.7984 0 0 1-15.735467 0.682666 299.485867 299.485867 0 0 0-90.043733-24.064c-4.3008 0-9.284267-0.682667-13.585067-1.365333-24.302933-2.048-51.438933-2.048-85.742933-3.413333-20.002133-2.7648-38.570667-8.942933-52.872534-17.2032a25.224533 25.224533 0 0 1-12.151466-8.226134c-9.284267-8.260267-14.301867-17.2032-12.151467-25.429333l2.8672-10.308267c0.682667-3.413333 2.8672-6.8608 5.700267-8.942933A24.064 24.064 0 0 1 238.933333 662.016c0-13.073067 12.151467-24.064 25.736534-23.381333 24.2688 0 49.288533-17.169067 72.874666-51.541334 27.8528-40.516267 53.589333-103.082667 77.141334-187.562666a24.644267 24.644267 0 0 1 30.72-16.520534c2.184533 0.682667 4.334933 1.365333 5.7344 2.048a38.912 38.912 0 0 1 23.586133-8.192h12.868267c13.585067 4.096 27.8528 6.144 42.154666 6.144 15.018667 0 30.037333-2.730667 43.588267-7.543466h10.001067c10.001067 0 17.885867 3.413333 25.019733 8.942933l4.266667-2.048c13.585067-3.447467 27.170133 4.096 30.72 16.452267 23.586133 83.831467 50.039467 147.080533 77.2096 187.5968 23.552 33.6896 47.138133 50.858667 71.441066 50.858666h1.4336c13.585067 0 25.7024 9.6256 25.7024 23.3472a23.4496 23.4496 0 0 1-15.701333 24.064z m-184.7296-77.073066c-10.922667-23.4496-21.1968-55.159467-30.8224-95.607467L580.266667 595.6608c0 0.477867 0.341333 0.9216 0.341333 1.365333l7.2704 39.560534c6.621867-0.477867 13.9264 0 20.8896 2.286933l37.7856 9.659733c0.682667 0 1.3312-0.443733 1.979733-0.443733-10.581333-7.850667-20.548267-21.162667-29.832533-40.482133z m-179.985067 0.546133c-9.045333 19.0464-18.773333 32.221867-29.115733 39.936 0.648533 0 1.297067 0 1.9456 0.443733l36.864-9.557333c6.826667-1.774933 13.6192-2.696533 20.411733-2.2528l7.441067-38.980267c0.341333-1.365333 0.955733-2.730667 1.604267-4.096L469.469867 512c-9.728 41.301333-19.7632 72.567467-30.72 96.1536z" fill="#FFFFFF" /></svg>