<?xml version="1.0" standalone="no"?><!DOCTYPE svg PUBLIC "-//W3C//DTD SVG 1.1//EN" "http://www.w3.org/Graphics/SVG/1.1/DTD/svg11.dtd"><svg class="icon" width="32px" height="32.00px" viewBox="0 0 1024 1024" version="1.1" xmlns="http://www.w3.org/2000/svg"><path d="M222.127522 432.605165h234.651734v77.508326h-234.730503a38.517858 38.517858 0 0 1-38.832932-38.439088c0-21.74014 17.565403-39.069238 38.911701-39.069238z m0 191.092683h161.869524v77.587096H222.127522a38.517858 38.517858 0 0 1-38.911701-38.439089c0-21.74014 17.565403-39.148007 38.911701-39.148007z m394.000662 365.48642H38.281552a37.80894 37.80894 0 0 1-38.281552-37.80894V37.895585A37.80894 37.80894 0 0 1 38.281552 0.007877h784.929346a37.80894 37.80894 0 0 1 38.281552 37.80894v488.444243H782.960131V77.594972H79.083699v833.45082H616.758333v78.217244h-0.630149z m126.817486 34.815732c-155.016654 0-281.203991-124.139353-281.203991-278.053246 0-153.913893 125.557188-277.423097 281.203991-277.423096C898.434935 468.523658 1023.992123 592.66301 1023.992123 745.946754c-0.630149 153.283744-126.108568 277.423097-281.125222 278.053246z m0-477.889247c-111.772679 0-202.75044 89.402389-202.750441 199.836001 0 110.512381 90.426381 200.46615 202.671672 200.466151a201.096299 201.096299 0 0 0 202.671672-200.466151 201.726448 201.726448 0 0 0-202.671672-199.836001z m107.282867 247.648557H742.788132a33.319128 33.319128 0 0 1-33.240359-32.925286V679.544804a38.596626 38.596626 0 0 1 39.541849-38.439089c21.976446 0 38.911701 17.329097 38.911701 38.439089v36.62741h62.148445c21.897678 0 39.463081 17.329097 39.463081 38.517858a39.935693 39.935693 0 0 1-39.463081 39.069238z" fill="#80869A" /></svg>