<?xml version="1.0" standalone="no"?><!DOCTYPE svg PUBLIC "-//W3C//DTD SVG 1.1//EN" "http://www.w3.org/Graphics/SVG/1.1/DTD/svg11.dtd"><svg class="icon" width="32px" height="32.00px" viewBox="0 0 1024 1024" version="1.1" xmlns="http://www.w3.org/2000/svg"><path d="M0 481.8944h481.8944V0H0v481.8944z m120.490667-361.403733h240.981333v240.981333h-240.981333v-240.981333zM542.037333 0v481.8944H1024V0H542.1056z m361.403734 361.403733h-240.981334v-240.981333h240.981334v240.981333zM180.701867 301.192533h120.490666V180.701867H180.701867v120.490666zM0 1024h481.8944V542.1056H0V1024z m120.490667-361.403733h240.981333v240.981333h-240.981333v-240.981333z m722.807466-481.8944h-120.490666v120.490666h120.490666V180.701867zM542.037333 1024h120.490667v-120.490667H542.037333V1024z m120.490667-361.403733v240.981333h120.490667v-240.981333H662.596267z m240.981333 240.981333H783.018667V1024H1024v-240.981333h-120.490667v120.490666z m0-240.981333H1024V542.037333h-120.490667v120.490667zM542.037333 542.037333v120.490667h120.490667V542.037333H542.037333z m-361.403733 301.192534h120.490667v-120.490667H180.701867v120.490667z" fill="#FFFFFF" /></svg>