<?xml version="1.0" standalone="no"?><!DOCTYPE svg PUBLIC "-//W3C//DTD SVG 1.1//EN" "http://www.w3.org/Graphics/SVG/1.1/DTD/svg11.dtd"><svg class="icon" width="32px" height="32.00px" viewBox="0 0 1024 1024" version="1.1" xmlns="http://www.w3.org/2000/svg"><path d="M86.9376 0C67.4816 0 48.0768 19.6096 48.0768 39.2192v945.5616c0 19.6096 19.456 39.2192 38.8608 39.2192h798.9248c19.456 0 38.8608-19.6096 38.8608-39.2192V222.9248L701.2864 0H86.9376z" fill="#1D77DE" /><path d="M701.2864 0v183.7568c0 19.5584 19.456 39.168 38.912 39.168h182.0672L701.2864 0z" fill="#0A57AE" /><path d="M698.88 710.4512a185.856 185.856 0 0 1-116.5824-48.9984c-65.536 14.6944-123.8016 34.304-186.9824 61.2352-48.5376 88.1664-92.2624 129.8432-133.5296 129.8432a46.592 46.592 0 0 1-24.2688-7.3728c-16.9984-7.3216-26.7264-24.4736-26.7264-44.0832 0-14.6944 2.4064-53.9136 152.9856-117.6064 33.9968-63.6928 63.1296-127.3856 84.992-195.9424-19.456-39.2192-60.7232-129.8432-31.5904-178.8416 9.728-17.152 29.184-26.9824 48.5888-26.9824a47.616 47.616 0 0 1 41.2672 22.0672c21.8624 29.3888 19.456 88.2176-7.2704 176.384 24.2688 48.9984 58.2656 88.2176 97.1264 124.928 33.9968-7.3216 67.9936-12.288 97.1264-12.288 75.264 2.5088 84.992 36.8128 84.992 58.88 0 58.7776-53.4016 58.7776-80.128 58.7776z m-437.0944 97.9456l4.864-2.4064c21.8624-7.3728 38.8608-24.5248 53.4016-44.1344-26.7264 9.8304-43.7248 26.9824-58.2656 46.592z m208.8448-475.2384s-2.4576-4.9152-7.3216-2.4576c-4.8128 2.4576-4.8128 4.9152-4.8128 4.9152-7.3216 26.9312-2.4576 56.32 9.728 80.8448 9.6768-29.3888 9.6768-53.9136 2.4064-83.3024z m9.728 227.84s-31.5904 75.9296-51.0464 110.2336l111.7184-34.304a319.3344 319.3344 0 0 1-60.7232-75.9296z m213.6576 85.76c-14.5408 0-26.7264 0-41.2672 2.4064 16.9984 7.3728 36.4032 12.288 48.5376 12.288 12.1856 0 21.8624 0 31.5904-2.4576-2.4064-2.4576-7.2704-12.288-38.8608-12.288z" fill="#FFFFFF" /></svg>