<?xml version="1.0" standalone="no"?><!DOCTYPE svg PUBLIC "-//W3C//DTD SVG 1.1//EN" "http://www.w3.org/Graphics/SVG/1.1/DTD/svg11.dtd"><svg class="icon" width="32px" height="28.44px" viewBox="0 0 1152 1024" version="1.1" xmlns="http://www.w3.org/2000/svg"><path d="M979.797333 160.981333c63.573333 60.629333 94.122667 140.544 85.418667 224.341334-8.576 82.816-53.546667 164.608-129.152 236.672-21.12 20.138667-77.824 74.453333-159.232 152.490666l-114.816 110.208-38.186667 36.608-15.146666 14.506667a47.402667 47.402667 0 0 1-65.365334 0l-131.84-126.634667-27.818666-26.666666c-243.370667-232.576-288.298667-314.325333-296.874667-397.184-8.661333-83.797333 21.76-163.712 85.418667-224.341334 62.634667-59.648 139.946667-84.992 222.378666-72.533333 61.098667 9.216 123.136 38.997333 181.418667 86.485333 58.325333-47.488 120.32-77.226667 181.461333-86.485333 82.346667-12.501333 159.701333 12.885333 222.293334 72.533333z" fill="#E43E52" /></svg>