<?xml version="1.0" standalone="no"?><!DOCTYPE svg PUBLIC "-//W3C//DTD SVG 1.1//EN" "http://www.w3.org/Graphics/SVG/1.1/DTD/svg11.dtd"><svg class="icon" width="32px" height="28.44px" viewBox="0 0 1152 1024" version="1.1" xmlns="http://www.w3.org/2000/svg"><path d="M762.24 120.064c-54.869333 8.277333-111.658667 35.413333-166.016 79.701333l-20.224 16.469334-20.224-16.469334c-54.272-44.245333-111.104-71.381333-165.973333-79.701333-72.405333-10.922667-139.946667 11.093333-195.498667 64.085333C137.685333 238.08 110.933333 308.266667 118.613333 382.037333c8.704 83.84 70.144 169.941333 287.189334 377.386667l27.904 26.709333 131.754666 126.634667c5.76 5.546667 15.274667 5.546667 21.034667 0l15.189333-14.592 38.144-36.565333a202442.666667 202442.666667 0 0 1 274.133334-262.784c70.698667-67.370667 111.701333-142.378667 119.424-216.746667 7.68-73.813333-19.114667-144-75.690667-197.930667-55.594667-52.992-123.093333-75.050667-195.413333-64.085333z m-9.557333-63.274667c92.16-13.952 179.413333 14.549333 249.173333 81.066667 70.741333 67.413333 104.917333 157.013333 95.189333 250.794667-9.386667 90.666667-57.856 179.242667-138.922666 256.512a202464.768 202464.768 0 0 0-273.962667 262.613333l-38.186667 36.608-15.146666 14.506667a79.402667 79.402667 0 0 1-109.653334 0l-131.797333-126.592-27.818667-26.666667c-227.498667-217.429333-295.850667-313.173333-306.602666-416.981333-9.728-93.781333 24.448-183.424 95.146666-250.837334 69.802667-66.432 157.013333-94.933333 249.258667-81.024 59.733333 9.045333 119.808 35.626667 176.64 77.653334 56.917333-42.026667 116.906667-68.608 176.64-77.653334z" fill="#333333" /></svg>