<?xml version="1.0" standalone="no"?><!DOCTYPE svg PUBLIC "-//W3C//DTD SVG 1.1//EN" "http://www.w3.org/Graphics/SVG/1.1/DTD/svg11.dtd"><svg class="icon" width="32px" height="32.00px" viewBox="0 0 1024 1024" version="1.1" xmlns="http://www.w3.org/2000/svg"><path d="M384 426.666667v384l49.194667 16.384a512 512 0 0 0 161.877333 26.282666h153.344a128 128 0 0 0 125.482667-102.912l32-159.829333a128 128 0 0 0-134.058667-152.789333l-153.173333 10.197333 15.530666-170.922667A58.453333 58.453333 0 0 0 576 213.333333a113.066667 113.066667 0 0 0-96.938667 54.869334L384 426.666667z" fill="#0285FF" /><path d="M85.333333 384m42.666667 0l128 0q42.666667 0 42.666667 42.666667l0 384q0 42.666667-42.666667 42.666666l-128 0q-42.666667 0-42.666667-42.666666l0-384q0-42.666667 42.666667-42.666667Z" fill="#00E2A0" /></svg>