<?xml version="1.0" standalone="no"?><!DOCTYPE svg PUBLIC "-//W3C//DTD SVG 1.1//EN" "http://www.w3.org/Graphics/SVG/1.1/DTD/svg11.dtd"><svg class="icon" width="48px" height="16.00px" viewBox="0 0 3072 1024" version="1.1" xmlns="http://www.w3.org/2000/svg"><path d="M342.584889 461.444741H275.949037c-6.33363 0-12.705185-6.33363-12.705185-12.66726-9.481481-18.962963-15.853037-37.925926-25.372445-60.03674-3.185778-6.33363-6.33363-9.481481-9.519407-15.815111C180.754963 445.62963 117.266963 493.037037 37.925926 521.481481v-63.222518c0-3.147852 6.33363-9.481481 9.519407-12.629333 104.751407-50.555259 155.496296-139.07437 177.720889-246.518519v-6.33363H37.925926V129.592889h203.131259l9.481482-123.259259h73.007407l-9.481481 123.259259h250.69037V189.62963h-177.720889c0 6.33363 0 12.629333 3.185778 15.815111 25.41037 97.962667 76.155259 180.148148 168.201481 233.851259 3.185778 3.185778 6.33363 6.33363 9.481482 12.667259v72.666074c-19.000889-9.481481-34.891852-15.777185-50.744889-25.258666-107.899259-66.37037-171.387259-167.518815-199.945482-290.778074 0-6.33363-6.33363-9.481481-9.519407-15.815112-3.185778 3.185778-6.33363 9.481481-9.519407 12.66726l-28.558223 85.333333c-3.185778 12.629333-3.185778 18.962963 3.147852 28.444445 31.744 41.073778 53.968593 88.481185 69.82163 142.222222zM1567.668148 417.185185h-136.495407c-15.853037 0-22.186667-3.147852-22.186667-22.110815V353.962667h155.496296v-85.333334h-133.309629V205.444741h133.309629V126.407111h-146.014814V75.851852c0-3.147852 6.371556-9.481481 12.705185-9.481482h47.634963c-9.519407-22.110815-15.890963-44.259556-25.410371-66.37037h66.635852c3.185778 0 6.371556 6.33363 9.557334 9.481481 6.33363 15.815111 9.481481 31.592296 19.038814 44.259556 3.147852 6.295704 12.667259 12.629333 19.038815 12.629333h82.488889c6.371556 0 12.705185-6.33363 15.890963-9.481481 6.33363-15.815111 12.705185-31.592296 19.038815-44.259556 3.185778-3.147852 6.33363-9.481481 9.519407-9.481481h63.488l-28.558222 66.37037h60.302222v56.888889h-130.123852c-12.705185 0-15.890963 3.185778-15.890963 15.815111v50.555259c0 12.667259 3.185778 15.815111 15.890963 15.815112h117.418667v63.222518h-98.379852c-34.891852 0-34.891852 0-34.891852 37.925926 0 47.407407 0 47.407407 47.559111 47.407407h114.270815V417.185185h-161.867852v113.777778h-76.155259v-113.777778zM1151.886222 72.704h-190.388148c-3.185778 0-12.705185 6.295704-12.705185 9.481481V303.407407h225.317926v63.222519h-199.945482c-25.41037 0-25.41037 0-25.41037 25.258667v132.74074h-76.155259V379.259259c0-12.629333-9.481481-15.815111-19.038815-15.815111h-193.573926c-15.890963 0-19.038815-3.147852-19.038815-18.962963 0-47.407407 0-47.407407 44.411259-47.407407h168.201482c12.705185 0 19.038815-3.147852 19.038815-18.962963v-199.111111c0-12.629333-3.147852-18.962963-15.853037-15.777185h-187.240297V9.481481c0-3.147852 3.147852-6.33363 9.481482-6.333629H1132.847407c15.890963 0 22.224593 6.33363 22.224593 22.148741-3.185778 18.962963-3.185778 31.592296-3.185778 47.407407zM2732.411259 12.629333c9.519407 60.074667 0 113.777778-31.744 164.370963-6.33363 12.629333-6.33363 22.110815-3.147852 34.740148 31.706074 66.37037 31.706074 135.926519 6.33363 205.444741-3.185778 9.481481-9.519407 15.815111-22.224593 12.629334h-50.782814c6.371556-28.444444 15.890963-53.703111 19.038814-78.999704 9.519407-50.555259 3.185778-101.148444-22.186666-145.370074-6.371556-9.481481-3.185778-15.815111 3.147852-22.148741 25.41037-34.740148 31.744-72.666074 34.891851-116.92563h-60.302222v451.96326h-63.450074V12.629333h190.426074z m-19.038815 505.704297v-56.888889h180.906667c25.41037 0 28.558222-3.185778 34.891852-31.630222h-57.116444c-9.519407-53.703111-15.853037-104.296296-25.410371-161.185186h53.968593c3.185778 0 9.519407 9.481481 9.519407 15.815111 6.371556 37.925926 9.519407 75.851852 15.890963 116.92563 0 6.33363 3.147852 15.815111 6.33363 22.148741 3.185778-6.33363 6.33363-9.481481 6.333629-15.815111L2976.805926 284.444444c3.147852-12.629333 9.481481-18.962963 22.186667-18.962963h41.263407c-9.481481 66.37037-34.891852 129.592889-63.450074 189.62963h92.008296v53.741037c0 3.147852-9.481481 6.295704-15.853037 6.295704h-320.549926c-6.33363 6.33363-12.705185 6.33363-19.038815 3.185778zM1958.039704 208.592593c-25.41037 15.815111-47.634963 28.444444-73.007408 44.259555v-66.37037c0-3.185778 6.33363-9.481481 9.519408-12.667259 53.968593-34.740148 88.860444-85.333333 104.713481-148.517926 3.185778-9.481481 6.371556-15.815111 19.076741-12.66726h57.116444c-3.185778 41.111704-22.224593 72.704-38.077629 107.482074-6.371556 9.481481-9.519407 25.258667-9.519408 34.740149v344.519111c0 18.962963-6.371556 22.110815-22.224592 22.110814-47.597037 0-47.597037 0-47.597037-47.407407v-265.481481z m787.07674 28.444444c-6.371556-15.815111-12.705185-25.296593-15.890963-37.925926 0-3.147852 0-9.481481 3.185778-12.629333C2776.860444 135.888593 2799.047111 75.851852 2808.566519 12.629333h133.309629c12.705185 0 15.853037 3.185778 19.038815 15.815111 15.890963 60.036741 47.597037 110.629926 101.56563 145.370075 3.185778 3.185778 9.519407 9.481481 9.519407 12.667259v63.184592c-25.41037-15.777185-47.597037-28.444444-69.82163-47.407407-41.263407-31.592296-69.82163-72.666074-88.860444-123.259259-3.185778-9.481481-9.519407-12.629333-19.038815-12.629334h-31.744c-22.224593 69.518222-53.968593 129.592889-117.418667 170.666667z m-1482.145185 284.444444c15.890963-50.555259 31.744-101.148444 44.449185-151.703703 3.147852-9.481481 6.33363-22.110815 9.481482-31.592297 6.371556-28.444444 6.371556-28.444444 34.929778-28.444444H1399.466667c-12.705185 44.22163-22.224593 85.333333-34.891852 129.554963-6.371556 25.296593-15.928889 47.407407-25.410371 72.704-3.185778 6.33363-9.519407 9.481481-12.705185 12.629333-19.038815-3.147852-41.263407-3.147852-63.488-3.147852zM825.002667 271.815111h-66.635852c-3.185778 0-9.519407-3.185778-12.705185-6.33363-25.41037-47.407407-41.263407-101.148444-50.782815-158.037333h69.821629c3.185778 0 6.371556 3.185778 9.519408 6.33363 6.371556 25.296593 12.705185 53.741037 22.224592 78.999703 6.33363 25.296593 19.038815 50.593185 28.558223 79.03763z m301.511111-164.370963c-9.519407 56.888889-25.41037 110.629926-50.782815 158.037333-3.185778 3.147852-9.519407 6.33363-12.705185 6.33363h-63.450074c3.147852-6.33363 3.147852-12.667259 6.333629-15.815111 12.705185-44.259556 28.558222-88.481185 41.263408-132.740741 3.185778-12.629333 9.481481-18.962963 22.224592-15.815111h57.116445zM2779.97037 426.666667c-9.481481-53.741037-15.853037-104.296296-25.41037-158.037334h50.820741c3.147852 0 6.33363 3.185778 6.333629 6.33363 12.705185 50.555259 22.224593 97.962667 22.224593 151.703704H2779.97037z m-1517.037037-414.037334h66.673778c3.147852 0 9.481481 3.185778 9.481482 3.185778 19.076741 34.740148 41.263407 72.666074 63.488 113.777778h-69.783704c-3.185778 0-9.557333-3.185778-12.705185-9.481482A3326.938074 3326.938074 0 0 1 1262.933333 12.629333z m130.123852 259.185778h-60.302222c-6.33363 0-12.667259-3.185778-12.667259-6.33363-19.076741-34.778074-34.929778-69.518222-53.968593-107.444148h66.635852c3.185778 0 9.519407 3.147852 9.519407 6.295704l57.154371 104.296296c-3.185778 0-3.185778 0-6.371556 3.185778z m1571.00563-41.111704h-146.014815V186.481778c0-3.185778 6.371556-9.481481 12.705185-9.481482h120.604445c3.185778 0 12.705185 6.295704 12.705185 9.481482v44.221629z m-590.317037 75.851852c-9.519407 0-15.853037 3.185778-19.038815 6.33363 9.481481 50.555259 25.41037 94.814815 66.635852 129.592889 3.185778 3.147852 6.371556 6.295704 6.371555 9.481481V512c-44.449185-15.815111-73.007407-44.259556-95.194074-78.999704-22.262519-34.778074-38.115556-75.851852-41.301333-120.111407-3.147852-3.147852-6.33363-9.481481-9.481482-12.629333 0 6.295704-6.371556 9.481481-6.371555 15.777185v199.111111h-69.82163v-199.111111c0-3.147852-3.185778-9.481481-6.371555-12.629334-3.147852 3.147852-9.481481 9.481481-9.481482 12.629334-6.371556 56.888889-28.596148 107.482074-63.488 151.703703a119.277037 119.277037 0 0 1-73.007407 47.407408c0-22.110815-3.185778-41.073778 0-60.036741 0-6.33363 6.33363-12.629333 12.705185-15.815111 34.891852-31.592296 50.782815-69.518222 57.116444-116.92563 3.185778-15.815111-3.185778-18.962963-15.853037-18.962963h-53.968592V246.518519h136.457481c15.890963 0 15.890963-6.33363 15.890963-18.962963 0-9.481481 0-18.962963-15.890963-18.962963h-98.379852V9.481481h295.177482c15.853037 0 19.038815 6.33363 19.038815 18.962963-3.185778 31.592296-3.185778 66.37037-3.185778 101.148445-3.185778 63.184593-44.411259 75.851852-85.712593 78.999704H2278.58963v37.925926h111.122963c47.597037 0 47.597037 0 44.373333 47.407407 0 9.481481-3.147852 12.629333-12.667259 12.629333H2373.783704zM2173.838222 151.703704c41.263407 0 82.526815 3.147852 120.604445 3.147852 28.558222 0 44.411259-15.777185 47.597037-44.22163V69.518222h-171.38726c-3.147852 0-9.481481 9.481481-9.481481 12.667259v56.888889c0 9.481481 3.147852 12.629333 12.667259 12.629334z" fill="#FFFFFF" /><path d="M296.580741 686.686815c-3.90637 15.54963-7.812741 27.192889-11.719111 38.836148-66.37037-11.643259-136.609185-23.286519-179.541334 46.573037-27.306667 46.573037-27.306667 100.882963 3.906371 147.456 27.306667 42.704593 74.145185 54.347852 171.728592 38.836148 15.625481 31.023407 11.757037 34.891852-19.493926 42.666667-42.932148 7.774815-85.864296 7.774815-128.83437-7.736889-58.519704-23.286519-89.770667-65.991111-93.677037-128.075852-11.719111-116.432593 78.089481-186.292148 175.672889-182.423704 27.306667 0 50.744889 3.868444 81.957926 3.868445zM1130.951111 686.686815c-3.90637 15.54963-7.812741 27.192889-11.719111 38.836148-66.37037-11.643259-136.609185-23.286519-179.541333 46.573037-27.306667 46.573037-27.306667 100.882963 3.90637 147.456 27.306667 42.704593 74.145185 54.347852 171.728593 38.836148 15.625481 31.023407 11.757037 34.891852-19.493926 42.666667-42.932148 7.774815-85.864296 7.774815-128.834371-7.736889-58.519704-23.286519-89.770667-65.991111-93.677037-128.075852-11.719111-116.432593 78.089481-186.292148 175.672889-182.423704 27.306667 0 50.744889 3.868444 81.957926 3.868445zM720.592593 682.666667h46.838518v318.236444H720.592593zM573.326222 693.323852c39.063704 11.643259 58.55763 38.836148 58.55763 81.540741 0 34.891852-11.719111 69.82163-46.838519 85.333333-23.438222 11.681185-50.744889 15.54963-74.183111 19.418074-15.625481 3.90637-27.306667 0-46.838518 0v124.207407H417.185185V689.493333c54.613333-7.774815 105.396148-11.643259 156.141037 3.868445z m-27.306666 143.625481c27.306667-7.774815 39.025778-31.061333 35.119407-65.991111 0-27.154963-15.625481-42.704593-42.932148-50.441481-15.625481-3.90637-35.157333-3.90637-54.651259-3.906371-3.90637 0-15.625481 7.774815-15.625482 11.64326v116.432592c27.306667 0 54.613333 0 78.051556-7.736889z" fill="#FFFFFF" /></svg>