<?xml version="1.0" standalone="no"?><!DOCTYPE svg PUBLIC "-//W3C//DTD SVG 1.1//EN" "http://www.w3.org/Graphics/SVG/1.1/DTD/svg11.dtd"><svg class="icon" width="48px" height="48.00px" viewBox="0 0 1024 1024" version="1.1" xmlns="http://www.w3.org/2000/svg"><path d="M914.027163 509.428093v-140.121302A176.937674 176.937674 0 0 0 827.534884 217.183256L534.194605 42.722233c-59.534884-35.387535-127.333209-30.005581-178.604652 2.143255-4.33414 2.690977-3.000558 9.406512 2.048 10.168559 22.099349 3.333953 44.198698 11.002047 65.321675 23.575813l308.462139 183.462698a185.725023 185.725023 0 0 1 90.731163 159.601116v140.192745" fill="#027EFF" /><path d="M806.102326 669.076837v125.642419c0 28.767256-7.144186 55.248372-19.622698 78.514604-2.452837 4.596093 2.714791 9.430326 7.787163 7.40614C857.492837 855.230512 904.930233 798.077023 904.930233 725.730233V619.162791M666.790698 756.307349l-214.13507-117.450419c-59.463442-32.625116-96.279814-93.993674-96.279814-160.506046v-219.564651c0-9.716093 0.714419-19.170233 2.143256-28.338605C291.244651 175.651721 261.953488 193.178791 261.953488 193.178791v493.044093c0 7.691907 8.525395 12.478512 15.336186 8.620651l42.960373-24.171163L660.551442 857.302326 666.790698 756.307349z" fill="#027EFF" /><path d="M355.066047 357.209302v-97.518139c0-9.811349 0.738233-19.408372 2.143255-28.695814-66.369488-55.557953-95.255814-37.76893-95.255814-37.76893v105.495814L355.066047 357.209302z" fill="#0470EA" /><path d="M652.740465 749.186977v59.177674c0 60.416-65.369302 98.161116-117.64093 67.988837l-272.955535-157.410232a152.933209 152.933209 0 0 1-76.466605-132.453209V288.52986c0-64.916837 70.251163-105.519628 126.499721-73.085023l246.355349 142.097861a188.368372 188.368372 0 0 1 94.208 163.149395v137.882791l96.875163-56.391442v-139.883163a175.104 175.104 0 0 0-87.635349-151.694884L357.828465 135.168c-116.712186-67.34586-262.596465 16.907907-262.596465 151.694884v521.239814c0 8.715907 9.644651 14.050233 17.050791 9.406511l65.274046-40.793302c1.786047 1.095442 3.500651 2.262326 5.334326 3.31014l304.151814 175.437395c116.759814 67.322047 262.572651-16.955535 262.572651-151.742512v-110.925395L652.740465 749.186977z" fill="#03E1A0" /></svg>