<?xml version="1.0" standalone="no"?><!DOCTYPE svg PUBLIC "-//W3C//DTD SVG 1.1//EN" "http://www.w3.org/Graphics/SVG/1.1/DTD/svg11.dtd"><svg class="icon" width="48px" height="16.13px" viewBox="0 0 3048 1024" version="1.1" xmlns="http://www.w3.org/2000/svg"><path d="M534.76614 406.361302l7.191813-18.19386h-22.146976z m-42.22214 168.817117h82.348651L599.611535 666.790698H517.23907z m102.423814-230.971535H619.162791l-44.770233 110.47293 24.194977 30.100837H514.143256l-124.02307-151.218604h84.920558l8.739721 10.644837h76.204651zM186.272744 666.790698l24.171163-91.612279h82.372465L268.621395 666.790698z m417.982512-109.829954h-172.460651v41.436279c0 9.620837-1.476465 18.622512-4.381768 26.98121a66.750512 66.750512 0 0 1-12.097488 21.646883 58.534698 58.534698 0 0 1-18.003349 14.431256 46.437209 46.437209 0 0 1-21.646884 5.334326H322.67907l13.383442-43.293768h9.787535a14.09786 14.09786 0 0 0 11.335441-5.667721 20.956279 20.956279 0 0 0 4.619907-13.812093v-47.056372H181.105116v-53.938604h423.15014z m-423.650233-116.093023h5.667721l-13.883535-48.937674h48.342326l13.931163 48.937674h12.335628l-13.907349-48.937674H281.004651l1.524093 5.00093 11.883163-19.456H181.105116l25.742884-48.294698H166.697674V237.544186H356.11386L347.37414 214.325581h69.489116l8.763535 23.218605h138.430511c7.572837 0 14.717023 1.786047 21.384931 5.334326 6.691721 3.572093 12.430884 8.382512 17.241302 14.431255a77.03814 77.03814 0 0 1 15.955349 47.365954v24.528372h-70.513117V303.389767a18.955907 18.955907 0 0 0-3.881674-11.906976 11.621209 11.621209 0 0 0-9.477953-5.024744H237.186977v30.124651h54.581581l-8.763535 16.955535h103.995535L335.538605 418.887442h124.546976v53.986232h-134.310697V434.604651l-30.386605 50.176H166.697674zM739.732837 604.993488h245.545675a14.193116 14.193116 0 0 0 11.335441-5.620093 21.813581 21.813581 0 0 0 4.643721-14.359814v-34.958883H739.732837zM668.719628 666.790698v-178.485582h404.075163v109.829954c0 9.573209-1.452651 18.527256-4.381768 26.838325s-6.953674 15.59814-12.073674 21.837396a57.391628 57.391628 0 0 1-18.027163 14.669395 47.699349 47.699349 0 0 1-22.146977 5.310512z m-6.715535-212.182326h416.958512V403.408372H662.004093z m0.023814-78.657488H1079.010233v-51.2H662.027907z m235.75814-136.668279H1095.44186v61.773395H642.976744v-61.773395h188.416L822.629209 214.325581h66.393303zM1350.89414 523.692651a362.472186 362.472186 0 0 0 38.102325-59.606325c-6.191628-15.47907-12.192744-31.577302-18.027163-48.342326a875.924837 875.924837 0 0 1-14.407442-49.223442 498.211721 498.211721 0 0 1-11.311627-55.557953h49.413953c1.333581 9.620837 3.262512 19.670326 5.643907 30.124651 2.381395 10.454326 4.977116 19.884651 7.739535 28.243349 3.095814 10.025674 6.144 19.884651 9.239814 29.481674 3.453023-9.597023 6.667907-19.456 9.763721-29.481674 2.762419-8.334884 5.35814-17.789023 7.739535-28.243349 2.405209-10.454326 4.286512-20.48 5.667721-30.124651h48.890046a503.665116 503.665116 0 0 1-11.287814 55.557953 874.829395 874.829395 0 0 1-14.45507 49.247256c-5.810605 16.741209-11.811721 32.839442-18.003348 48.318512 5.477209 10.049488 11.335442 20.075163 17.503255 30.148465 6.191628 10.00186 13.216744 19.860837 21.099163 29.45786v74.704372a265.144558 265.144558 0 0 1-36.768744-36.387721 349.06493 349.06493 0 0 1-30.148465-42.055442 368.949581 368.949581 0 0 1-29.862698 42.055442 257.095442 257.095442 0 0 1-36.530604 36.387721z m-13.907349-212.730046a498.283163 498.283163 0 0 1-11.311628 55.557953 875.924837 875.924837 0 0 1-14.431256 49.247256c-5.810605 16.741209-11.811721 32.839442-18.003349 48.318512 5.143814 10.049488 10.906791 20.075163 17.241302 30.148465 6.334512 10.00186 13.288186 19.860837 20.861024 29.45786v74.704372A255.857116 255.857116 0 0 1 1294.764651 562.009302a368.949581 368.949581 0 0 1-29.862698-42.055442 368.949581 368.949581 0 0 1-29.862697 42.055442c-10.978233 13.383442-23.337674 25.504744-37.054512 36.387721V523.668837c7.906233-9.597023 14.907535-19.432186 21.099163-29.45786 6.191628-10.073302 12.026047-20.098977 17.503256-30.148465a1210.391814 1210.391814 0 0 1-18.027163-48.342326 877.020279 877.020279 0 0 1-14.383628-49.223442 503.808 503.808 0 0 1-11.359256-55.557953h48.913861c1.381209 9.620837 3.357767 19.670326 5.929674 30.124651 2.595721 10.454326 5.23907 19.884651 7.977675 28.243349 3.095814 10.025674 6.191628 19.884651 9.287441 29.481674 3.095814-9.597023 6.144-19.456 9.239814-29.481674a365.925209 365.925209 0 0 0 13.383442-58.368zM1571.72093 598.397023c0 9.620837-1.428837 18.503442-4.357953 26.671628a71.584744 71.584744 0 0 1-12.097489 21.646884c-5.143814 6.26307-11.168744 11.192558-18.027162 14.764651-6.858419 3.548279-14.240744 5.310512-22.146977 5.310512H1456.937674l21.122977-62.130605h10.787721a14.57414 14.57414 0 0 0 11.859349-5.643907 20.956279 20.956279 0 0 0 4.619907-13.812093V295.912186a20.980093 20.980093 0 0 0-4.619907-13.812093 14.645581 14.645581 0 0 0-11.859349-5.643907H1185.649116V666.790698H1119.255814V214.325581h395.835535c7.906233 0 15.288558 1.762233 22.146977 5.35814 6.858419 3.524465 12.859535 8.453953 18.027162 14.717023 5.143814 6.26307 9.168372 13.597767 12.097489 21.980279 2.905302 8.358698 4.357953 17.336558 4.357953 26.98121zM1863.227535 545.196651v64.535814h100.852093c4.286512 0 7.906233-1.857488 10.906791-5.620093a21.432558 21.432558 0 0 0 4.453209-13.788279v-45.127442z m0 121.594047h-69.036651v-178.604651H2048v109.639441c0 9.620837-1.428837 18.622512-4.21507 26.957396a72.251535 72.251535 0 0 1-11.692651 21.956465 55.010233 55.010233 0 0 1-17.384186 14.717023c-6.596465 3.548279-13.573953 5.334326-20.861023 5.334326zM1787.237209 412.362419c7.310884-0.833488 16.741209-2.405209 28.338605-4.738977a316.011163 316.011163 0 0 0 38.245209-10.311442 251.78493 251.78493 0 0 1-58.106046-77.085767h76.966697c6.620279 9.620837 13.907349 18.074791 21.86121 25.385674 7.95386 7.310884 16.193488 13.883535 24.837953 19.741767 11.573581-7.930047 22.004093-17.026977 31.291535-27.266976s16.217302-22.004093 20.861023-35.387535H1787.713488L1818.552558 214.325581h71.989582l-10.906791 31.315349H2048v57.058233c-15.24093 36.316279-36.244837 67.036279-63.083163 92.112372 13.883535 3.762605 26.481116 6.477395 37.745116 8.144372 11.264 1.666977 19.717953 2.690977 25.338047 3.119628v68.322232c-22.194605-1.666977-44.293953-5.23907-66.32186-10.668651a320.130977 320.130977 0 0 1-63.821396-23.19479c-39.054884 18.813023-82.610605 30.077023-130.643349 33.863441zM1619.348837 666.790698h159.958326v-57.058233H1619.348837z m85.920744-443.677768h81.943814L1723.653953 367.211163H1779.307163l-62.106791 155.433674h62.106791v56.986791H1619.348837l65.559814-155.409861H1619.348837zM2401.803907 374.998326h-34.768372l34.768372 103.709767h-65.154977l-43.103256-129.643163h34.768373l-34.768373-103.685953h64.654884z m81.324651 131.453023H2524.27907v54.248186h-41.150512v105.495814h-66.631442v-105.495814h-134.215442v-54.272h134.215442V238.139535h66.631442z m-221.422139-96.470326L2270.99386 666.790698h-40.174139l-9.763721-256.809675zM2096.104186 666.790698l9.811349-256.809675h40.126512L2136.278326 666.790698z m112.163721-370.164093v43.412837h60.773209v51.819163H2208.267907V666.790698h-51.43814V391.858605H2095.627907V340.063256h61.249488v-41.602977l-56.367628 2.429023V245.99814l170.507907-6.644093v54.867348zM2988.222512 426.865116c-3.786419 18.241488-12.52614 38.935814-26.242977 62.154419a425.317209 425.317209 0 0 1-50.890419 68.36986c14.407442 12.026047 29.195907 22.789953 44.484465 32.315535 15.24093 9.525581 30.243721 16.14586 44.984559 19.884651V666.790698c-21.932651-2.905302-44.15107-10.47814-66.583814-22.694698a349.326884 349.326884 0 0 1-64.535814-45.698977 345.659535 345.659535 0 0 1-64.773954 45.722791c-22.623256 12.192744-44.913116 19.765581-66.845767 22.670884v-57.201117c14.740837-3.738791 29.743628-10.35907 44.960744-19.884651 15.24093-9.525581 30.100837-20.289488 44.532093-32.315535-17.16986-19.051163-32.005953-38.411907-44.532093-58.106046-12.502326-19.69414-21.670698-38.221395-27.481302-55.629396h58.606139c5.143814 9.525581 12.502326 20.622884 22.123163 33.24428 9.597023 12.621395 20.71814 25.790512 33.434791 39.45972 17.455628-19.027349 31.86307-36.98307 43.174697-53.748093s17.789023-28.695814 19.551256-35.72093h-182.057674v-57.177302h84.87293v-47.866047h-84.87293v-57.177302h84.87293v-47.866046h62.702139v47.866046h90.516838v57.177302h-90.493024v47.866047h90.493024z m-308.009675-113.116279v53.462326h70.965582l-70.965582 110.020465v121.784558c0 9.573209-1.428837 18.360558-4.357953 26.433488-2.929116 8.049116-6.953674 15.24093-12.073675 21.432559-5.143814 6.191628-11.14493 11.121116-18.003349 14.621767a48.056558 48.056558 0 0 1-22.123162 5.286698h-53.462326l20.051349-53.462326h8.239628c4.429395 0 8.215814-1.857488 11.311628-5.596279s4.619907-8.287256 4.619907-13.669209v-36.673489H2548.093023l66.321861-102.542883v-141.073861h-54.486326V252.189767h54.486326V214.325581h65.797953v37.888h57.629768v61.55907z" fill="#FFFFFF" /><path d="M291.673302 812.174884c-3.238698-13.478698-9.216-23.099535-17.931907-28.814884s-20.122791-8.573023-34.244465-8.573023c-9.930419 0-18.527256 1.905116-25.71907 5.715349-7.215628 3.810233-13.121488 8.954047-17.812837 15.383814-4.667535 6.477395-8.096744 13.907349-10.335256 22.337488a104.781395 104.781395 0 0 0-3.310139 26.719256c0 8.811163 0.952558 17.431814 2.857674 25.957209 1.905116 8.477767 5.096186 16.074419 9.549396 22.742326 4.429395 6.667907 10.406698 12.073674 17.884279 16.193488 7.525209 4.072186 16.955535 6.120186 28.290976 6.120186 7.04893 0 13.454884-1.095442 19.289303-3.286326 5.834419-2.190884 10.906791-5.23907 15.288558-9.120744 4.357953-3.881674 8.025302-8.477767 11.02586-13.740651 2.976744-5.286698 5.23907-11.073488 6.763163-17.384186H309.581395c-1.833674 7.644279-4.524651 14.836093-8.049116 21.670698a61.297116 61.297116 0 0 1-34.768372 30.124651c-8.215814 3.000558-17.836651 4.524651-28.838698 4.524651-12.740465 0-23.575814-2.262326-32.625116-6.739349-9.049302-4.453209-16.431628-10.47814-22.194605-18.098604a74.537674 74.537674 0 0 1-12.502325-26.552559A125.332837 125.332837 0 0 1 166.697674 845.395349c0-15.098047 1.92893-27.933767 5.834419-38.507163 3.905488-10.549581 9.311256-19.146419 16.193488-25.838139 6.906047-6.667907 15.026605-11.50214 24.361675-14.502698 9.358884-3.000558 19.527442-4.500837 30.553302-4.500837 8.43014 0 16.288744 1.047814 23.575814 3.167255 7.263256 2.143256 13.693023 5.334326 19.289302 9.597024 5.596279 4.21507 10.168558 9.477953 13.764466 15.717209 3.572093 6.239256 6.096372 13.43107 7.477581 21.646884zM333.395349 928.744186v-142.883721h13.907349v54.367256c5.548651-5.048558 11.311628-9.120744 17.265116-12.288 5.953488-3.214884 13.097674-4.762791 21.432558-4.762791 7.429953 0 14.288372 1.095442 20.622884 3.262512 6.334512 2.190884 11.668837 5.977302 16.002977 11.430698a23.480558 23.480558 0 0 1 5.239069 11.383069c0.500093 3.881674 0.78586 7.977674 0.785861 12.216558V928.744186h-13.931163v-67.083907c0-9.287442-2.381395-16.193488-7.168-20.861023-4.762791-4.619907-12.740465-6.92986-23.861581-6.929861a38.67386 38.67386 0 0 0-21.456372 6.167814 33.577674 33.577674 0 0 0-7.310884 6.334512c-2.000372 2.381395-3.524465 4.929488-4.619907 7.572837a34.006326 34.006326 0 0 0-2.548093 9.525582 109.44893 109.44893 0 0 0-0.476279 9.906604V928.744186zM547.530419 866.375442a51.771535 51.771535 0 0 1-15.026605 4.548465 255.285581 255.285581 0 0 1-15.24093 1.786046c-8.954047 0.714419-15.979163 2.976744-20.980093 6.739349-5.00093 3.810233-7.501395 9.525581-7.501396 17.217489 0 3.500651 0.595349 6.525023 1.857489 9.073116a18.646326 18.646326 0 0 0 11.906976 10.049488c2.643349 0.762047 5.35814 1.190698 8.096745 1.190698 4.691349 0 9.216-0.690605 13.645395-1.952744a35.95907 35.95907 0 0 0 11.835535-6.001116c3.429209-2.714791 6.191628-6.120186 8.287256-10.263814 2.048-4.167442 3.095814-9.049302 3.095814-14.717024z m-19.717954-6.548837c2.214698-0.309581 4.858047-0.738233 7.906233-1.309768 3.048186-0.571535 5.548651-1.405023 7.525209-2.405209a6.906047 6.906047 0 0 0 3.595907-5.12c0.452465-2.381395 0.690605-4.619907 0.690605-6.667907 0-6.667907-1.92893-12.145116-5.762977-16.455442-3.834047-4.286512-10.335256-6.429767-19.408372-6.429767-4.048372 0-7.763349 0.404837-11.14493 1.190697-3.381581 0.809674-6.334512 2.190884-8.882605 4.143628s-4.596093 4.596093-6.239256 7.858605a35.95907 35.95907 0 0 0-3.214884 12.335628h-11.906976a44.055814 44.055814 0 0 1 4.096-17.146047c2.333767-4.691349 5.381953-8.573023 9.049302-11.549767a35.72093 35.72093 0 0 1 12.907163-6.525023c4.858047-1.381209 10.073302-2.071814 15.479069-2.071814 5.12 0 9.882791 0.619163 14.383628 1.833674 4.500837 1.238326 8.406326 3.19107 11.716466 5.882047s5.929674 6.286884 7.810976 10.811534c1.905116 4.500837 2.810047 10.049488 2.810047 16.574512v61.487628c0 5.096186 0.833488 8.334884 2.452837 9.716093 1.619349 1.381209 4.905674 1.071628 9.858977-0.952558v10.24l-4.024558 1.309767a16.717395 16.717395 0 0 1-5.143814 0.857303 21.551628 21.551628 0 0 1-5.286698-0.642977 8.43014 8.43014 0 0 1-4.691349-2.095628 13.216744 13.216744 0 0 1-2.810046-3.905488 18.050977 18.050977 0 0 1-1.476466-5.000931 45.579907 45.579907 0 0 1-0.381023-5.78679 51.771535 51.771535 0 0 1-16.979349 13.954976 45.651349 45.651349 0 0 1-33.482418 2.833861 29.791256 29.791256 0 0 1-18.265303-16.26493 34.363535 34.363535 0 0 1-2.71479-14.288372c0-19.194047 11.787907-30.529488 35.339907-34.03014zM581.798698 961.607442l5.048558 0.90493c1.714605 0.309581 3.453023 0.476279 5.23907 0.476279a10.859163 10.859163 0 0 0 8.406325-3.691163c2.143256-2.452837 4.000744-5.429581 5.429582-8.882604 1.428837-3.476837 2.643349-7.072744 3.595907-10.835349a53.343256 53.343256 0 0 1 3.286325-9.573209L571.534884 809.674419h13.764465l34.053953 102.757209L653.502512 809.674419H666.790698l-39.602605 117.998139c-2.452837 7.525209-4.834233 14.288372-7.072744 20.289489a97.089488 97.089488 0 0 1-7.215628 15.36 32.220279 32.220279 0 0 1-8.406326 9.692279 18.289116 18.289116 0 0 1-11.002046 3.357767c-2.16707 0-4.262698-0.142884-6.239256-0.476279a38.340465 38.340465 0 0 1-5.453395-1.14307zM761.856 866.375442a51.771535 51.771535 0 0 1-15.026605 4.548465 255.285581 255.285581 0 0 1-15.24093 1.786046c-8.954047 0.714419-15.979163 2.976744-20.980093 6.739349-5.00093 3.810233-7.501395 9.525581-7.501395 17.217489 0 3.500651 0.595349 6.525023 1.857488 9.073116a18.646326 18.646326 0 0 0 11.906977 10.049488c2.643349 0.762047 5.35814 1.190698 8.096744 1.190698 4.691349 0 9.216-0.690605 13.645395-1.952744a35.95907 35.95907 0 0 0 11.835535-6.001116c3.429209-2.714791 6.191628-6.120186 8.287256-10.263814 2.048-4.167442 3.095814-9.049302 3.095814-14.717024z m-19.717953-6.548837c2.214698-0.309581 4.858047-0.738233 7.906232-1.309768 3.048186-0.571535 5.548651-1.405023 7.525209-2.405209a6.906047 6.906047 0 0 0 3.595907-5.12c0.452465-2.381395 0.690605-4.619907 0.690605-6.667907 0-6.667907-1.92893-12.145116-5.762977-16.455442-3.834047-4.286512-10.335256-6.429767-19.408372-6.429767-4.048372 0-7.763349 0.404837-11.14493 1.190697-3.381581 0.809674-6.334512 2.190884-8.882605 4.143628s-4.596093 4.596093-6.239256 7.858605a35.95907 35.95907 0 0 0-3.214883 12.335628h-11.906977a44.055814 44.055814 0 0 1 4.096-17.146047c2.333767-4.691349 5.381953-8.573023 9.049302-11.549767a35.72093 35.72093 0 0 1 12.907163-6.525023c4.858047-1.381209 10.073302-2.071814 15.47907-2.071814 5.12 0 9.882791 0.619163 14.383628 1.833674 4.500837 1.238326 8.406326 3.19107 11.716465 5.882047s5.929674 6.286884 7.810977 10.811534c1.905116 4.500837 2.810047 10.049488 2.810046 16.574512v61.487628c0 5.096186 0.833488 8.334884 2.452837 9.716093 1.619349 1.381209 4.905674 1.071628 9.858977-0.952558v10.24l-4.024558 1.309767a16.717395 16.717395 0 0 1-5.143814 0.857303 21.551628 21.551628 0 0 1-5.286698-0.642977 8.43014 8.43014 0 0 1-4.691348-2.095628 13.216744 13.216744 0 0 1-2.810047-3.905488 18.050977 18.050977 0 0 1-1.476465-5.000931 45.579907 45.579907 0 0 1-0.381023-5.78679 51.771535 51.771535 0 0 1-16.979349 13.954976 45.651349 45.651349 0 0 1-33.482419 2.833861 29.791256 29.791256 0 0 1-18.265302-16.26493 34.363535 34.363535 0 0 1-2.714791-14.288372c0-19.194047 11.787907-30.529488 35.339907-34.03014zM823.581767 928.744186H809.674419v-115.950139h13.907348v16.122046c5.572465-5.715349 11.311628-10.287628 17.265117-13.859721 5.953488-3.619721 13.097674-5.381953 21.432558-5.381953 7.429953 0 14.288372 1.238326 20.622884 3.691162 6.334512 2.452837 11.668837 6.763163 16.002976 12.883349 2.929116 4.143628 4.667535 8.43014 5.23907 12.859535 0.500093 4.381767 0.78586 8.97786 0.785861 13.764465V928.744186h-13.907349v-75.65693c0-10.454326-2.381395-18.289116-7.191814-23.504372-4.762791-5.23907-12.716651-7.858605-23.861582-7.858605-4.33414 0-8.263442 0.642977-11.835535 1.92893a37.030698 37.030698 0 0 0-9.597023 5.048558 33.101395 33.101395 0 0 0-11.954604 15.669582 41.150512 41.150512 0 0 0-2.524279 10.740093c-0.309581 3.453023-0.476279 7.144186-0.47628 11.192558zM1014.974512 804.125767h-0.428652V928.744186H1000.186047v-142.883721h16.26493l87.992558 124.80893h0.428651V785.860465H1119.255814v142.883721h-16.741209zM1249.04186 861.350698c0-5.501023-0.714419-10.716279-2.143255-15.59814a37.221209 37.221209 0 0 0-6.334512-12.645209 30.410419 30.410419 0 0 0-10.525767-8.501582 32.005953 32.005953 0 0 0-14.526512-3.167255c-5.453395 0-10.24 1.071628-14.383628 3.262511a33.387163 33.387163 0 0 0-10.644837 8.739721c-2.929116 3.619721-5.286698 7.834791-7.04893 12.645209a61.154233 61.154233 0 0 0-3.476838 15.240931z m-69.060465 10.90679c0 6.120186 0.714419 11.883163 2.214698 17.336559 1.500279 5.453395 3.714977 10.168558 6.644093 14.193116 2.95293 3.97693 6.667907 7.191814 11.14493 9.573209 4.500837 2.429023 9.668465 3.595907 15.526698 3.595907 8.049116 0 14.931349-2.238512 20.670512-6.739349 5.715349-4.524651 9.525581-10.930605 11.430697-19.21786h13.693024a75.847442 75.847442 0 0 1-5.929675 14.955163c-2.452837 4.572279-5.524837 8.573023-9.192186 11.978418a38.578605 38.578605 0 0 1-13.097674 7.953861c-5.024744 1.905116-10.906791 2.857674-17.574698 2.857674-8.43014 0-15.741023-1.524093-21.861209-4.572279a41.912558 41.912558 0 0 1-15.121861-12.549954 54.486326 54.486326 0 0 1-8.811163-18.741581 90.707349 90.707349 0 0 1-2.83386-23.242419c0-8.287256 1.119256-16.050605 3.357767-23.337674 2.262326-7.263256 5.477209-13.645395 9.620838-19.074977 4.143628-5.477209 9.216-9.739907 15.217116-12.859535 6.001116-3.143442 12.811907-4.691349 20.432372-4.691348 14.597953 0 26.052465 5.310512 34.339721 16.002976 8.334884 10.692465 12.40707 26.219163 12.288 46.580093zM1333.581395 926.219907a64.39293 64.39293 0 0 0-5.90586 1.476465 28.338605 28.338605 0 0 1-8.144372 1.047814c-6.096372 0-10.740093-1.571721-13.931163-4.738977-3.19107-3.167256-4.762791-8.811163-4.762791-17.026976v-80.11014H1285.953488v-10.573395h14.883721V785.860465h12.192744v30.434233h19.741768v10.573395h-19.765581v75.061581c0 2.667163 0.071442 5.00093 0.214325 6.953675 0.142884 1.976558 0.571535 3.572093 1.238326 4.858046a5.858233 5.858233 0 0 0 3.143442 2.762419c1.428837 0.571535 3.429209 0.833488 6.02493 0.833488 1.595535 0 3.286326-0.142884 4.953302-0.404837 1.714605-0.285767 3.381581-0.666791 5.00093-1.047814zM1435.790884 910.359814L1463.891349 809.674419H1476.465116l-34.649302 119.069767h-13.240558l-23.337675-99.970977h-0.404837L1381.066419 928.744186h-14.859907L1333.581395 809.674419h12.383256l27.695628 101.590325L1398.426791 809.674419h13.812093zM1582.842047 869.209302c0-6.667907-0.666791-12.954791-2.000373-18.765395a46.722977 46.722977 0 0 0-6.144-15.169488 30.672372 30.672372 0 0 0-10.716279-10.120931 32.053581 32.053581 0 0 0-16.074418-3.714976c-6.191628 0-11.525953 1.333581-15.955349 4.000744a33.053767 33.053767 0 0 0-10.835349 10.716279 49.056744 49.056744 0 0 0-6.144 15.264744c-1.333581 5.739163-1.976558 11.668837-1.976558 17.789023 0 6.977488 0.762047 13.383442 2.262326 19.289303 1.547907 5.882047 3.738791 10.954419 6.667906 15.169488s6.548837 7.477581 10.906791 9.787535c4.357953 2.357581 9.382698 3.500651 15.074233 3.500651 6.191628 0 11.525953-1.333581 15.955349-4.000744a32.625116 32.625116 0 0 0 10.835348-10.811535c2.762419-4.524651 4.834233-9.620837 6.144-15.264744 1.333581-5.667721 2.000372-11.573581 2.000373-17.669954M1547.906977 928.744186a48.937674 48.937674 0 0 1-18.55107-3.953116 41.364837 41.364837 0 0 1-15.074233-11.097303 54.200558 54.200558 0 0 1-10.24-18.527255A81.062698 81.062698 0 0 1 1500.27907 869.209302c0-8.334884 1.000186-16.050605 2.976744-23.242418 2.000372-7.191814 4.977116-13.478698 8.954046-18.860651 3.953116-5.381953 8.906419-9.620837 14.859907-12.76428 5.953488-3.095814 12.907163-4.667535 20.83721-4.667534 8.096744 0 15.074233 1.547907 21.051535 4.667534 5.953488 3.143442 10.882977 7.334698 14.859907 12.669024 3.953116 5.310512 6.906047 11.573581 8.834976 18.860651 1.905116 7.263256 2.881488 15.002791 2.881489 23.337674 0 9.025488-1.14307 17.146047-3.381582 24.409303-2.238512 7.28707-5.453395 13.526326-9.644651 18.765395-4.143628 5.23907-9.168372 9.287442-15.050418 12.097488S1555.051163 928.744186 1547.906977 928.744186M1655.546047 928.744186H1643.162791v-115.950139h12.383256v21.694511h0.428651c3.405395-9.239814 7.858605-15.669581 13.288186-19.33693 5.405767-3.667349 12.621395-5.477209 21.527814-5.477209v14.526511c-7.001302-0.11907-12.764279 1.047814-17.288931 3.595907a29.053023 29.053023 0 0 0-10.859162 10.311442 42.626977 42.626977 0 0 0-5.548652 15.336186 105.138605 105.138605 0 0 0-1.547906 18.432zM1714.604651 928.744186v-142.883721h13.669209v88.897488l57.70121-48.818604h18.646325l-44.103442 37.102139L1809.860465 928.744186h-15.24093l-44.103442-57.344-22.242233 18.432V928.744186zM1857.488372 785.860465h119.069768v11.50214h-51.819163V928.744186h-15.431442v-131.381581H1857.488372zM2082.530233 861.350698c0-5.501023-0.714419-10.716279-2.143256-15.59814a37.221209 37.221209 0 0 0-6.334512-12.645209 30.410419 30.410419 0 0 0-10.525767-8.501582 32.005953 32.005953 0 0 0-14.526512-3.167255c-5.453395 0-10.24 1.071628-14.383628 3.262511a33.387163 33.387163 0 0 0-10.644837 8.739721c-2.929116 3.619721-5.286698 7.834791-7.04893 12.645209a61.154233 61.154233 0 0 0-3.476838 15.240931z m-69.060466 10.90679c0 6.120186 0.714419 11.883163 2.214698 17.336559 1.500279 5.453395 3.714977 10.168558 6.644093 14.193116 2.95293 3.97693 6.667907 7.191814 11.14493 9.573209 4.500837 2.429023 9.668465 3.595907 15.526698 3.595907 8.049116 0 14.931349-2.238512 20.670512-6.739349 5.715349-4.524651 9.525581-10.930605 11.430697-19.21786h13.693024a75.847442 75.847442 0 0 1-5.929675 14.955163c-2.452837 4.572279-5.524837 8.573023-9.192186 11.978418a38.578605 38.578605 0 0 1-13.097674 7.953861c-5.024744 1.905116-10.906791 2.857674-17.574698 2.857674-8.43014 0-15.741023-1.524093-21.861209-4.572279a41.912558 41.912558 0 0 1-15.121861-12.549954 54.486326 54.486326 0 0 1-8.811163-18.741581 90.707349 90.707349 0 0 1-2.83386-23.242419c0-8.287256 1.119256-16.050605 3.357767-23.337674 2.262326-7.263256 5.477209-13.645395 9.620838-19.074977 4.143628-5.477209 9.216-9.739907 15.217116-12.859535 6.001116-3.143442 12.811907-4.691349 20.432372-4.691348 14.597953 0 26.052465 5.310512 34.339721 16.002976 8.334884 10.692465 12.40707 26.219163 12.288 46.580093zM2200.45693 848.276837c-2.214698-8.43014-6.001116-15.002791-11.38307-19.741767-5.35814-4.715163-12.192744-7.096558-20.48-7.096558-6.310698 0-11.740279 1.381209-16.288744 4.143628a33.815814 33.815814 0 0 0-11.14493 11.02586 50.676093 50.676093 0 0 0-6.429767 15.47907 76.776186 76.776186 0 0 0-0.071442 34.816c1.26214 5.643907 3.405395 10.740093 6.286883 15.24093 2.881488 4.524651 6.620279 8.096744 11.168745 10.811535 4.524651 2.690977 10.025674 4.048372 16.503069 4.048372 9.239814 0 16.645953-2.714791 22.218419-8.096744 5.572465-5.35814 9.144558-12.788093 10.644837-22.242233H2214.697674a68.107907 68.107907 0 0 1-5.286697 17.146047c-2.381395 5.12-5.477209 9.573209-9.287442 13.264372-3.810233 3.714977-8.287256 6.596465-13.526326 8.620651-5.23907 2.024186-11.216372 3.048186-17.979535 3.048186-8.549209 0-15.907721-1.500279-22.099348-4.548465a42.317395 42.317395 0 0 1-15.288559-12.549954 54.414884 54.414884 0 0 1-8.882604-18.860651 91.01693 91.01693 0 0 1-2.905303-23.337674c0-7.858605 1.071628-15.407628 3.19107-22.623256 2.143256-7.144186 5.286698-13.526326 9.406512-19.051163 4.167442-5.524837 9.263628-9.930419 15.407628-13.216744 6.120186-3.238698 13.19293-4.88186 21.170604-4.88186 12.40707 0 22.40893 3.095814 30.05321 9.382697 7.668093 6.239256 12.454698 15.979163 14.359814 29.219721zM2238.511628 928.744186v-142.883721h13.907349v54.367256c5.548651-5.048558 11.311628-9.120744 17.265116-12.288 5.953488-3.214884 13.097674-4.762791 21.432558-4.762791 7.429953 0 14.288372 1.095442 20.622884 3.262512 6.334512 2.190884 11.668837 5.977302 16.002977 11.430698a23.480558 23.480558 0 0 1 5.239069 11.383069c0.500093 3.881674 0.78586 7.977674 0.785861 12.216558V928.744186h-13.931163v-67.083907c0-9.287442-2.381395-16.193488-7.168-20.861023-4.762791-4.619907-12.740465-6.92986-23.861581-6.929861a38.67386 38.67386 0 0 0-21.456372 6.167814 33.577674 33.577674 0 0 0-7.310884 6.334512c-2.000372 2.381395-3.524465 4.929488-4.619907 7.572837a34.006326 34.006326 0 0 0-2.548093 9.525582 109.44893 109.44893 0 0 0-0.476279 9.906604V928.744186zM2395.302698 928.744186H2381.395349v-115.950139h13.907349v16.122046c5.572465-5.715349 11.311628-10.287628 17.265116-13.859721 5.953488-3.619721 13.097674-5.381953 21.432558-5.381953 7.429953 0 14.288372 1.238326 20.622884 3.691162 6.334512 2.452837 11.668837 6.763163 16.002977 12.883349 2.929116 4.143628 4.667535 8.43014 5.239069 12.859535 0.500093 4.381767 0.78586 8.97786 0.785861 13.764465V928.744186h-13.907349v-75.65693c0-10.454326-2.381395-18.289116-7.191814-23.504372-4.762791-5.23907-12.716651-7.858605-23.861581-7.858605-4.33414 0-8.263442 0.642977-11.835535 1.92893a37.030698 37.030698 0 0 0-9.597024 5.048558 33.101395 33.101395 0 0 0-11.954604 15.669582 41.150512 41.150512 0 0 0-2.524279 10.740093c-0.309581 3.453023-0.476279 7.144186-0.476279 11.192558zM2583.028093 869.209302c0-6.667907-0.666791-12.954791-2.000372-18.765395a46.722977 46.722977 0 0 0-6.144-15.169488 30.672372 30.672372 0 0 0-10.716279-10.120931 32.053581 32.053581 0 0 0-16.074419-3.714976c-6.191628 0-11.525953 1.333581-15.955349 4.000744a33.053767 33.053767 0 0 0-10.835348 10.716279 49.056744 49.056744 0 0 0-6.144 15.264744c-1.333581 5.739163-1.976558 11.668837-1.976559 17.789023 0 6.977488 0.762047 13.383442 2.262326 19.289303 1.547907 5.882047 3.738791 10.954419 6.667907 15.169488s6.548837 7.477581 10.906791 9.787535c4.357953 2.357581 9.382698 3.500651 15.074232 3.500651 6.191628 0 11.525953-1.333581 15.955349-4.000744a32.625116 32.625116 0 0 0 10.835349-10.811535c2.762419-4.524651 4.834233-9.620837 6.144-15.264744 1.333581-5.667721 2.000372-11.573581 2.000372-17.669954M2548.093023 928.744186a48.937674 48.937674 0 0 1-18.55107-3.953116 41.364837 41.364837 0 0 1-15.074232-11.097303 54.200558 54.200558 0 0 1-10.24-18.527255A81.062698 81.062698 0 0 1 2500.465116 869.209302c0-8.334884 1.000186-16.050605 2.976744-23.242418 2.000372-7.191814 4.977116-13.478698 8.954047-18.860651 3.953116-5.381953 8.906419-9.620837 14.859907-12.76428 5.953488-3.095814 12.907163-4.667535 20.837209-4.667534 8.096744 0 15.074233 1.547907 21.051535 4.667534 5.953488 3.143442 10.882977 7.334698 14.859907 12.669024 3.953116 5.310512 6.906047 11.573581 8.834977 18.860651 1.905116 7.263256 2.881488 15.002791 2.881488 23.337674 0 9.025488-1.14307 17.146047-3.381581 24.409303-2.238512 7.28707-5.453395 13.526326-9.644651 18.765395-4.143628 5.23907-9.168372 9.287442-15.050419 12.097488S2555.237209 928.744186 2548.093023 928.744186M2624.845395 928.744186h13.192931v-142.883721h-13.192931zM2749.725767 869.209302c0-6.667907-0.666791-12.954791-2.000372-18.765395a46.722977 46.722977 0 0 0-6.144-15.169488 30.672372 30.672372 0 0 0-10.716279-10.120931 32.053581 32.053581 0 0 0-16.074418-3.714976c-6.191628 0-11.525953 1.333581-15.955349 4.000744a33.053767 33.053767 0 0 0-10.835349 10.716279 49.056744 49.056744 0 0 0-6.144 15.264744c-1.333581 5.739163-1.976558 11.668837-1.976558 17.789023 0 6.977488 0.762047 13.383442 2.262325 19.289303 1.547907 5.882047 3.738791 10.954419 6.667907 15.169488s6.548837 7.477581 10.906791 9.787535c4.357953 2.357581 9.382698 3.500651 15.074233 3.500651 6.191628 0 11.525953-1.333581 15.955349-4.000744a32.625116 32.625116 0 0 0 10.835348-10.811535c2.762419-4.524651 4.834233-9.620837 6.144-15.264744 1.333581-5.667721 2.000372-11.573581 2.000372-17.669954M2714.790698 928.744186a48.937674 48.937674 0 0 1-18.55107-3.953116 41.364837 41.364837 0 0 1-15.074233-11.097303 54.200558 54.200558 0 0 1-10.24-18.527255A81.062698 81.062698 0 0 1 2667.162791 869.209302c0-8.334884 1.000186-16.050605 2.976744-23.242418 2.000372-7.191814 4.977116-13.478698 8.954046-18.860651 3.953116-5.381953 8.906419-9.620837 14.859907-12.76428 5.953488-3.095814 12.907163-4.667535 20.83721-4.667534 8.096744 0 15.074233 1.547907 21.051535 4.667534 5.953488 3.143442 10.882977 7.334698 14.859907 12.669024 3.953116 5.310512 6.906047 11.573581 8.834976 18.860651 1.905116 7.263256 2.881488 15.002791 2.881489 23.337674 0 9.025488-1.14307 17.146047-3.381582 24.409303-2.238512 7.28707-5.453395 13.526326-9.644651 18.765395-4.143628 5.23907-9.168372 9.287442-15.050419 12.097488S2721.934884 928.744186 2714.790698 928.744186M2869.48614 871.281116c0-7.025116-0.762047-13.573953-2.309954-19.622697a50.366512 50.366512 0 0 0-6.715535-15.669582 32.791814 32.791814 0 0 0-11.002046-10.430511 29.57693 29.57693 0 0 0-15.002791-3.810233c-5.072372 0-9.716093 1.024-14.002605 3.048186a32.386977 32.386977 0 0 0-11.192558 8.858791c-3.214884 3.881674-5.715349 8.620651-7.501395 14.21693a62.868837 62.868837 0 0 0-2.714791 19.384558c-0.285767 7.310884 0.23814 14.169302 1.595535 20.503814 1.333581 6.334512 3.453023 11.906977 6.405953 16.669768 2.929116 4.786605 6.667907 8.573023 11.192559 11.335441 4.548465 2.738605 9.954233 4.143628 16.217302 4.143628 5.477209 0 10.35907-1.309767 14.717023-3.929302 4.33414-2.619535 8.001488-6.096372 11.002047-10.525767 3.000558-4.381767 5.310512-9.549395 6.906046-15.47907a70.965581 70.965581 0 0 0 2.381396-18.693954z m0-58.487069H2881.488372v104.876651c0 7.763349-0.714419 15.193302-2.095628 22.28986-1.381209 7.096558-3.905488 13.335814-7.525209 18.717768a38.721488 38.721488 0 0 1-14.764651 12.883348c-6.286884 3.214884-14.359814 4.810419-24.242605 4.810419-7.620465 0-14.145488-1.095442-19.622698-3.262512a41.888744 41.888744 0 0 1-13.407255-8.168186 34.768372 34.768372 0 0 1-7.906233-10.859162 29.672186 29.672186 0 0 1-2.905302-11.097303h12.811907c0.952558 4.357953 2.405209 7.858605 4.405581 10.644837a22.623256 22.623256 0 0 0 7.096558 6.477396c2.738605 1.619349 5.786791 2.643349 9.09693 3.262511 3.333953 0.595349 6.834605 0.90493 10.430512 0.904931 8.144372 0 14.669395-1.571721 19.622698-4.691349 4.905674-3.143442 8.668279-7.263256 11.192558-12.335628 2.548093-5.072372 4.191256-10.835349 4.905674-17.265116 0.714419-6.429767 1.024-12.978605 0.904931-19.717954a39.221581 39.221581 0 0 1-15.907721 16.241116c-6.739349 3.667349-13.788279 5.477209-21.122977 5.47721-7.858605 0-14.717023-1.666977-20.48-5.000931a43.436651 43.436651 0 0 1-14.431256-13.478697c-3.810233-5.572465-6.667907-12.121302-8.525395-19.57507a106.043535 106.043535 0 0 1-0.190512-47.318326c1.714605-7.429953 4.500837-13.907349 8.31107-19.33693 3.810233-5.477209 8.644465-9.763721 14.526511-12.907163 5.858233-3.143442 12.978605-4.691349 21.384931-4.691348 3.333953 0 6.739349 0.500093 10.216186 1.547907 3.453023 1.047814 6.834605 2.548093 10.12093 4.500837a40.007442 40.007442 0 0 1 15.693395 17.479442h0.404838zM2939.380093 961.607442l5.048558 0.90493c1.714605 0.309581 3.453023 0.476279 5.23907 0.476279a10.859163 10.859163 0 0 0 8.406326-3.691163c2.143256-2.452837 4.000744-5.429581 5.429581-8.882604 1.428837-3.476837 2.643349-7.072744 3.595907-10.835349a53.343256 53.343256 0 0 1 3.286325-9.573209L2929.116279 809.674419h13.764465l34.053954 102.757209L3011.083907 809.674419H3024.372093l-39.602605 117.998139c-2.452837 7.525209-4.834233 14.288372-7.072744 20.289489a97.065674 97.065674 0 0 1-7.215628 15.36 32.220279 32.220279 0 0 1-8.406325 9.692279 18.289116 18.289116 0 0 1-11.002047 3.357767c-2.16707 0-4.262698-0.142884-6.239256-0.476279a38.340465 38.340465 0 0 1-5.453395-1.14307z" fill="#8F94AC" /></svg>