<?xml version="1.0" standalone="no"?><!DOCTYPE svg PUBLIC "-//W3C//DTD SVG 1.1//EN" "http://www.w3.org/Graphics/SVG/1.1/DTD/svg11.dtd"><svg class="icon" width="48px" height="48.00px" viewBox="0 0 1024 1024" version="1.1" xmlns="http://www.w3.org/2000/svg"><path d="M333.824 925.167484v91.268129h-57.806452v-348.16c71.38271 77.757935 159.777032 111.549935 265.182968 101.409032 78.187355-10.140903 142.798452-43.932903 193.800258-104.778322 95.165935-111.549935 84.992-277.20671-13.60929-385.354323-91.796645-98.039742-299.173161-148.744258-445.373936 10.140903V73.331613c0-13.543226 3.402323-16.912516 13.609291-23.651097C347.43329 22.627097 408.609032 5.747613 473.187097 2.312258c122.417548-6.771613 234.595097 27.053419 333.196387 101.409032 105.372903 81.127226 166.581677 189.274839 180.190968 324.508904 13.60929 131.831742-20.413935 250.15329-105.372904 351.562322-71.415742 87.865806-163.212387 145.341935-275.389935 169.026065-85.025032 16.879484-170.017032 13.510194-255.009032-13.543226-3.402323-6.738581-6.804645-6.738581-16.978581-10.140903zM204.634839 93.613419v922.822194H17.639226v-23.651097c3.402323-175.764645 3.402323-351.562323 3.402322-527.326968 0-114.952258 40.794839-209.589677 112.177549-297.455483 17.011613-20.281806 37.392516-40.563613 54.404129-60.84542 3.402323-3.402323 10.206968-6.771613 17.011613-13.543226z m516.756645 344.79071h-81.589678c-3.402323 0-13.60929-6.738581-13.60929-10.140903-27.185548-60.845419-78.187355-84.496516-129.189161-81.127226-71.38271 6.771613-112.210581 47.335226-122.384516 114.952258-10.206968 60.845419 37.392516 128.429419 101.97058 141.972645 64.611097 13.510194 119.015226-16.912516 146.200775-74.388645 3.402323-6.738581 3.402323-10.140903 6.804645-16.879484h88.394322c13.60929 67.584-88.394323 168.993032-180.190967 182.536258-122.384516 20.281806-248.171355-64.247742-261.780646-202.818064-10.206968-118.321548 78.187355-223.099871 203.974194-236.643097 139.396129-10.140903 234.595097 98.039742 241.399742 182.536258z" fill="#FFFFFF" /></svg>