<svg height="32" viewBox="0 0 1024 1024" width="32" xmlns="http://www.w3.org/2000/svg"><path d="m0 512a512 512 0 1 0 1024 0 512 512 0 1 0 -1024 0z" fill="#ebebeb"/><g fill="#fff"><path d="m121.263158 512a94.315789 94.315789 0 1 0 188.631579 0 94.315789 94.315789 0 1 0 -188.631579 0z"/><path d="m417.684211 512a94.315789 94.315789 0 1 0 188.631578 0 94.315789 94.315789 0 1 0 -188.631578 0z"/><path d="m714.105263 512a94.315789 94.315789 0 1 0 188.631579 0 94.315789 94.315789 0 1 0 -188.631579 0z"/></g></svg>