<svg height="32" viewBox="0 0 1024 1024" width="32" xmlns="http://www.w3.org/2000/svg"><path d="m511.561143 1023.902476c281.84381 0 511.561143-229.961143 511.561143-512.048762-.195048-281.843809-229.961143-511.853714-511.561143-511.853714-281.795048 0-511.561143 230.009905-511.561143 511.853714 0 282.087619 229.766095 512.048762 511.561143 512.048762z" fill="#1d77de"/><path d="m430.908952 499.224381c0 .585143 0 1.316571-.195047 1.950476l172.519619 86.308572c7.606857-6.095238 16.14019-10.873905 25.453714-14.482286 9.898667-3.803429 20.72381-5.705143 31.695238-5.705143a93.42781 93.42781 0 0 1 93.622857 93.769143 93.720381 93.720381 0 0 1 -93.622857 93.96419 93.42781 93.42781 0 0 1 -93.476571-93.769143c0-.585143 0-1.316571.243809-1.901714l-172.519619-86.308571a91.477333 91.477333 0 0 1 -25.648762 14.238476 93.135238 93.135238 0 0 1 -97.816381-21.699048 94.110476 94.110476 0 0 1 0-132.534857c16.920381-16.920381 40.472381-27.599238 66.316191-27.599238a92.013714 92.013714 0 0 1 57.344 20.187429l172.519619-86.357334c0-.585143-.195048-1.316571-.195048-1.950476a93.330286 93.330286 0 0 1 93.42781-93.525333 93.330286 93.330286 0 0 1 93.476571 93.574095c0 25.84381-10.435048 49.249524-27.306666 66.364952a93.574095 93.574095 0 0 1 -98.255239 21.699048 90.989714 90.989714 0 0 1 -25.453714-14.482286l-172.470857 86.406096c.341333.78019.341333 1.316571.341333 1.950476z" fill="#fffffe"/></svg>