<svg height="32" viewBox="0 0 1024 1024" width="32" xmlns="http://www.w3.org/2000/svg"><path d="m866.499048 149.894095c-94.598096-96.646095-220.40381-149.894095-354.304-149.894095a492.641524 492.641524 0 0 0 -354.352762 149.894095c-152.137143 154.624-190.512762 391.314286-95.329524 587.776l-21.357714 166.863238c-2.876952 22.430476 3.900952 45.104762 18.529523 62.171429 16.920381 19.797333 42.471619 29.647238 68.022858 26.233905l163.352381-21.845334a495.762286 495.762286 0 0 0 221.330285 52.419048 492.348952 492.348952 0 0 0 354.108953-149.845333c94.695619-96.694857 146.822095-225.231238 146.822095-361.910858 0-136.728381-52.126476-265.216-146.773333-361.862095z" fill="#1d77de"/><path d="m417.938286 399.750095c.78019-69.778286 27.745524-117.174857 102.15619-117.174857 65.145905 0 102.107429 32.475429 102.107429 87.478857 0 26.770286-9.99619 43.300571-41.935238 73.923048l-17.554286 16.676571c-59.196952 56.758857-86.406095 105.325714-86.406095 186.514286h87.527619c0-53.248 15.847619-81.529905 59.489524-123.367619l17.554285-16.725333c47.542857-45.543619 68.85181-80.847238 68.85181-137.020953 0-106.008381-78.506667-175.006476-189.68381-175.006476-75.288381 0-129.462857 32.182857-160.52419 86.796191-20.626286 36.376381-28.672 77.141333-29.110857 116.882285l87.527619.975238zm50.176 300.27581v87.478857h87.527619v-87.478857z" fill="#fff"/></svg>