<?xml version="1.0" standalone="no"?><!DOCTYPE svg PUBLIC "-//W3C//DTD SVG 1.1//EN" "http://www.w3.org/Graphics/SVG/1.1/DTD/svg11.dtd"><svg class="icon" width="32px" height="32.00px" viewBox="0 0 1024 1024" version="1.1" xmlns="http://www.w3.org/2000/svg"><path d="M257.6384 545.5872l167.936 173.95712a5.3248 5.3248 0 0 0 7.70048 0l363.88864-358.4a5.3248 5.3248 0 0 0 0-7.70048l-21.99552-21.46304a6.67648 6.67648 0 0 0-8.27392-0.57344l-333.6192 278.03648c-2.21184 1.6384-6.06208 2.21184-8.8064 0L287.9488 504.832a5.9392 5.9392 0 0 0-7.74144 1.10592l-23.10144 31.37536a7.45472 7.45472 0 0 0 0.53248 8.27392zM1024 518.06208C1024 794.4192 794.99264 1024 505.93792 1024 229.04832 1024 0 794.99264 0 518.06208 0 228.9664 229.00736 0 505.93792 0 795.0336 0 1024 229.00736 1024 518.06208z" fill="#09BA30" /></svg>