<?xml version="1.0" standalone="no"?><!DOCTYPE svg PUBLIC "-//W3C//DTD SVG 1.1//EN" "http://www.w3.org/Graphics/SVG/1.1/DTD/svg11.dtd"><svg class="icon" width="32px" height="32.00px" viewBox="0 0 1024 1024" version="1.1" xmlns="http://www.w3.org/2000/svg"><path d="M512 930.909091a418.909091 418.909091 0 1 0 0-837.818182 418.909091 418.909091 0 0 0 0 837.818182z m0 93.090909a512 512 0 1 1 0-1024 512 512 0 0 1 0 1024z" fill="#FFFFFF" /><path d="M372.363636 698.181818c0 25.693091 18.618182 46.545455 41.332364 46.545455a37.888 37.888 0 0 0 20.48-6.144l289.698909-186.181818c19.828364-12.753455 26.717091-41.239273 15.36-63.488a44.404364 44.404364 0 0 0-15.36-17.31491l-289.605818-186.181818c-19.828364-12.753455-45.149091-5.026909-56.506182 17.314909A51.106909 51.106909 0 0 0 372.363636 325.818182v372.363636z" fill="#FFFFFF" /></svg>