<?xml version="1.0" standalone="no"?><!DOCTYPE svg PUBLIC "-//W3C//DTD SVG 1.1//EN" "http://www.w3.org/Graphics/SVG/1.1/DTD/svg11.dtd"><svg class="icon" width="48px" height="48.00px" viewBox="0 0 1024 1024" version="1.1" xmlns="http://www.w3.org/2000/svg"><path d="M512 512m-512 0a512 512 0 1 0 1024 0 512 512 0 1 0-1024 0Z" fill="#000000" fill-opacity=".5" /><path d="M358.4 696.32c0 25.460364 19.130182 46.08 42.658909 46.08 7.493818-0.023273 14.824727-2.117818 21.178182-6.050909l298.682182-184.343273c20.456727-12.637091 27.531636-40.797091 15.825454-62.882909a44.590545 44.590545 0 0 0-15.825454-17.128727l-298.705455-184.32c-20.456727-12.613818-46.522182-4.933818-58.205091 17.152-3.723636 7.074909-5.632 14.894545-5.608727 22.853818v368.64z" fill="#FFFFFF" /></svg>