<?xml version="1.0" encoding="UTF-8"?>
<svg width="15px" height="15px" viewBox="0 0 15 15" version="1.1" xmlns="http://www.w3.org/2000/svg" xmlns:xlink="http://www.w3.org/1999/xlink">
    <!-- Generator: Sketch 52.6 (67491) - http://www.bohemiancoding.com/sketch -->
    <title>play_small_w</title>
    <desc>Created with Sketch.</desc>
    <g id="play_small_w" stroke="none" stroke-width="1" fill="none" fill-rule="evenodd">
        <g transform="translate(2.000000, 2.000000)" fill="#FFFFFF">
            <path d="M5.5,10 C7.98528137,10 10,7.98528137 10,5.5 C10,3.01471863 7.98528137,1 5.5,1 C3.01471863,1 1,3.01471863 1,5.5 C1,7.98528137 3.01471863,10 5.5,10 Z M5.5,11 C2.46243388,11 0,8.53756612 0,5.5 C0,2.46243388 2.46243388,0 5.5,0 C8.53756612,0 11,2.46243388 11,5.5 C11,8.53756612 8.53756612,11 5.5,11 Z" id="Oval-Copy" fill-rule="nonzero"></path>
            <path d="M4.00000144,7.50012858 C4.00000144,7.77630376 4.19915801,8.00010358 4.44447971,7.99999996 C4.52249474,7.99973488 4.59885611,7.97691351 4.66479951,7.93415516 L7.77614735,5.93404795 C7.98924437,5.79691876 8.06313888,5.49142166 7.94126092,5.25171755 C7.90324581,5.17589345 7.84626228,5.11179708 7.77614735,5.06599479 L4.66479951,3.06593939 C4.45165198,2.92896562 4.18016667,3.01226888 4.05838973,3.2520766 C4.01982774,3.32868963 3.99980147,3.41369419 4.00000148,3.4999141 L4.00000144,7.50012858 Z" id="Path-Copy"></path>
        </g>
    </g>
</svg>