<?xml version="1.0" standalone="no"?><!DOCTYPE svg PUBLIC "-//W3C//DTD SVG 1.1//EN" "http://www.w3.org/Graphics/SVG/1.1/DTD/svg11.dtd"><svg class="icon" width="32px" height="25.60px" viewBox="0 0 1280 1024" version="1.1" xmlns="http://www.w3.org/2000/svg"><path d="M626.432 1001.216c-255.146667-0.597333-490.922667-144.64-619.008-378.453333a54.784 54.784 0 0 1 17.664-72.533334 48.554667 48.554667 0 0 1 68.949333 19.456c110.250667 201.045333 312.917333 324.949333 532.48 325.461334 219.477333-0.512 422.229333-124.416 532.48-325.461334a48.554667 48.554667 0 0 1 68.522667-18.773333c23.552 14.762667 31.573333 46.677333 18.090667 71.850667-128.085333 233.813333-363.861333 377.856-619.178667 378.453333z m575.914667-521.386667a49.749333 49.749333 0 0 1-43.434667-26.453333c-110.08-200.96-312.917333-324.949333-532.48-325.376-219.477333 0.512-422.144 124.416-532.394667 325.376a48.64 48.64 0 0 1-68.266666 19.968 54.698667 54.698667 0 0 1-18.346667-73.045333C135.424 166.4 371.2 22.442667 626.346667 21.930667c254.293333 0 491.605333 144.896 619.178666 378.368a54.698667 54.698667 0 0 1-18.346666 72.362666 47.957333 47.957333 0 0 1-24.917334 7.168z" fill="#A8A8A8" /><path d="M626.432 801.450667c-149.333333 0-270.677333-128.597333-270.677333-286.634667 0-157.952 121.514667-286.634667 270.677333-286.634667 149.333333 0 270.762667 128.682667 270.762667 286.72 0 157.952-121.344 286.549333-270.762667 286.549334z m0-467.370667c-94.037333 0-170.666667 80.981333-170.666667 180.736 0 99.84 76.544 180.821333 170.666667 180.821333 94.293333 0 170.837333-81.237333 170.837333-180.906666 0-99.498667-76.8-180.650667-170.837333-180.650667z" fill="#A8A8A8" /></svg>