<?xml version="1.0" standalone="no"?><!DOCTYPE svg PUBLIC "-//W3C//DTD SVG 1.1//EN" "http://www.w3.org/Graphics/SVG/1.1/DTD/svg11.dtd"><svg class="icon" width="32px" height="32.00px" viewBox="0 0 1024 1024" version="1.1" xmlns="http://www.w3.org/2000/svg"><path d="M921.964375 44.669208l-117.11268 228.273733C705.657894 180.724705 537.860382 170.869321 537.860382 170.869321L616.255482 21.630648A28.734204 28.734204 0 0 1 644.221734 0h254.320105c16.190988 0 29.374164 12.735204 29.374164 28.414224a27.134304 27.134304 0 0 1-5.951628 16.254984z m3.391788 581.91563C925.356163 846.027123 741.175675 1023.936004 514.05387 1023.936004 286.868069 1023.936004 102.68758 846.027123 102.68758 626.520842s184.180489-397.415162 411.36629-397.415161 411.302294 177.908881 411.302293 397.415161zM706.68183 535.006562l-112.056996-15.743016-50.108868-98.105868c-17.150928-33.5979-44.15724-32.95794-60.988188 0l-50.108869 98.105868-112.056996 15.807012c-38.3976 5.375664-46.07712 30.270108-18.814824 55.9965l81.082932 76.283233-19.1988 107.897256c-6.527592 36.861696 15.67902 51.708768 49.27692 34.55784l100.345729-50.940816 100.217736 50.940816c34.301856 17.470908 55.67652 1.663896 49.27692-34.55784l-19.134804-107.897256 81.082932-76.283233c27.774264-26.23836 18.814824-50.748828-18.814824-55.9965zM101.919628 44.733204A27.134304 27.134304 0 0 1 95.968 28.414224C95.968 12.735204 109.151176 0 125.40616 0h254.256109c13.75914 0 24.766452 9.27942 27.966252 21.630648L486.023622 170.869321s-167.861509 9.791388-266.991314 102.07362L101.919628 44.669208z" fill="#1D77DE" /></svg>