<?xml version="1.0" standalone="no"?><!DOCTYPE svg PUBLIC "-//W3C//DTD SVG 1.1//EN" "http://www.w3.org/Graphics/SVG/1.1/DTD/svg11.dtd"><svg class="icon" width="32px" height="32.00px" viewBox="0 0 1024 1024" version="1.1" xmlns="http://www.w3.org/2000/svg"><path d="M18.388644 405.441863L982.448492 2.342312a29.950877 29.950877 0 0 1 40.617143 35.070685l-240.118995 963.803857a29.950877 29.950877 0 0 1-48.254191 15.786075l-208.504181-174.286798a29.865547 29.865547 0 0 0-40.403818 1.877263l-106.961323 107.217313a29.908212 29.908212 0 0 1-51.112749-21.204538V704.012c0-7.978367 3.157215-15.615414 8.789003-21.289869L771.384406 246.301164 257.952993 632.761338a29.865547 29.865547 0 0 1-37.203938-0.981296L10.751597 456.255957a30.164202 30.164202 0 0 1 7.679712-50.814094z" fill="#1D77DE" /></svg>