<?xml version="1.0" standalone="no"?><!DOCTYPE svg PUBLIC "-//W3C//DTD SVG 1.1//EN" "http://www.w3.org/Graphics/SVG/1.1/DTD/svg11.dtd"><svg class="icon" width="32px" height="32.00px" viewBox="0 0 1024 1024" version="1.1" xmlns="http://www.w3.org/2000/svg"><path d="M795.940571 738.377143L1024 966.144l-57.856 57.856-228.205714-227.913143a448.658286 448.658286 0 0 1-287.670857 103.862857A450.121143 450.121143 0 0 1 0 449.901714 450.121143 450.121143 0 0 1 450.267429 0c248.685714 0 450.267429 201.435429 450.267428 449.974857 0 109.714286-39.277714 210.285714-104.594286 288.402286z m-345.673142 79.725714a368.274286 368.274286 0 0 0 368.420571-368.128 368.274286 368.274286 0 0 0-368.420571-368.201143A368.274286 368.274286 0 0 0 81.92 449.974857a368.274286 368.274286 0 0 0 368.420571 368.128z" fill="#A8A8A8" /></svg>