<?xml version="1.0" standalone="no"?><!DOCTYPE svg PUBLIC "-//W3C//DTD SVG 1.1//EN" "http://www.w3.org/Graphics/SVG/1.1/DTD/svg11.dtd"><svg class="icon" width="32px" height="32.00px" viewBox="0 0 1024 1024" version="1.1" xmlns="http://www.w3.org/2000/svg"><path d="M0 512a512 512 0 1 0 1024 0A512 512 0 0 0 0 512z" fill="#FEE8EB" /><path d="M607.573333 471.04C546.133333 402.773333 546.133333 320.853333 546.133333 204.8 354.986667 279.893333 402.773333 484.693333 395.946667 552.96c-47.786667-40.96-61.44-136.533333-61.44-136.533333C279.893333 443.733333 252.586667 512 252.586667 566.613333c0 136.533333 116.053333 252.586667 259.413333 252.586667 143.36 0 259.413333-109.226667 259.413333-252.586667 0-81.92-61.44-122.88-61.44-232.106666-88.746667 27.306667-102.4 95.573333-102.4 136.533333z" fill="#FF6B6A" /><path d="M505.173333 539.306667c88.746667 34.133333 68.266667 129.706667 68.266667 157.013333 20.48-20.48 27.306667-61.44 27.306667-61.44 20.48 13.653333 34.133333 40.96 34.133333 68.266667 0 61.44-54.613333 116.053333-116.053333 116.053333s-116.053333-54.613333-116.053334-116.053333c6.826667-61.44 102.4-109.226667 102.4-163.84z" fill="#FFA9B1" /></svg>