<?xml version="1.0" standalone="no"?><!DOCTYPE svg PUBLIC "-//W3C//DTD SVG 1.1//EN" "http://www.w3.org/Graphics/SVG/1.1/DTD/svg11.dtd"><svg class="icon" width="32px" height="32.00px" viewBox="0 0 1024 1024" version="1.1" xmlns="http://www.w3.org/2000/svg"><path d="M875.328 83.008h-536.32a256 256 0 0 0-256 256v345.984a256 256 0 0 0 256 256h345.984a256 256 0 0 0 256-256V134.848l-665.6 665.6-58.752-58.688L875.328 83.008zM1024 498.176V768a256 256 0 0 1-256 256H256a256 256 0 0 1-256-256V256a256 256 0 0 1 256-256h269.824v83.008h166.08V0H1024v332.16h-83.008v166.016H1024z" fill="#FFFFFF" /></svg>