<?xml version="1.0" standalone="no"?><!DOCTYPE svg PUBLIC "-//W3C//DTD SVG 1.1//EN" "http://www.w3.org/Graphics/SVG/1.1/DTD/svg11.dtd"><svg class="icon" width="48px" height="48.00px" viewBox="0 0 1024 1024" version="1.1" xmlns="http://www.w3.org/2000/svg"><path d="M607.488 826.88c-9.130667-17.237333-18.773333-42.325333-13.44-57.301333 4.522667-12.544 8.192-15.530667 15.488-21.546667 9.813333-7.978667 23.168-18.858667 33.834667-46.506667 4.096-10.709333 6.826667-21.461333 9.386666-31.829333 9.386667-37.632 12.714667-43.434667 39.978667-40.277333 20.437333 2.432 33.152 12.245333 47.829333 23.722666 14.464 11.178667 30.848 23.04 53.418667 26.965334a329.429333 329.429333 0 0 1-186.496 146.773333m-377.813333-146.218667c23.765333-2.858667 49.749333-11.178667 68.309333-31.445333 20.522667-22.4 20.650667-51.626667 20.778667-75.178667 0.170667-32 1.92-40.789333 18.090666-46.805333 22.101333-8.192 32.128-0.384 52.864 18.048 12.202667 10.837333 26.026667 23.125333 44.373334 28.8 21.632 6.656 47.530667 3.541333 69.205333-8.362667a92.330667 92.330667 0 0 0 44.544-55.552h0.128l0.170667-0.810666c0.085333-0.213333 0.213333-0.384 0.256-0.597334 0.213333-0.768 0.256-1.536 0.469333-2.304 1.621333-5.632 2.730667-11.221333 3.456-16.853333 0.341333-2.474667 0.426667-4.736 0.682667-7.168 0.128-1.92 0.384-3.84 0.469333-5.76 0.64-12.629333 0.426667-25.258667-0.725333-37.845333a289.706667 289.706667 0 0 1-0.853334-16.768c0.256-6.4 1.408-11.52 3.712-14.762667 4.48-2.133333 16.426667-4.266667 24.746667-5.76 22.826667-4.010667 50.773333-9.130667 67.626667-29.013333l0.256-0.170667c0.981333-1.194667 2.090667-2.218667 2.986666-3.541333 28.586667-40.234667 26.794667-81.877333-4.522666-108.629334a103.424 103.424 0 0 0-7.68-5.717333c-18.432-12.8-26.325333-21.888-20.906667-38.485333 1.578667-5.034667 3.285333-9.386667 4.992-13.312A328.96 328.96 0 0 1 840.405333 512a328.96 328.96 0 0 1-20.181333 112.64c-5.205333 1.408-9.813333 2.389333-12.117333 2.389333-11.264 0-19.413333-5.930667-33.962667-17.28-17.578667-13.653333-39.466667-30.634667-75.008-34.816-76.629333-9.130667-91.136 47.573333-99.584 81.408-2.133333 8.618667-4.266667 17.365333-7.381333 25.472-5.376 14.08-9.898667 17.706667-17.28 23.722667-9.6 7.893333-22.826667 18.645333-32.426667 45.568-10.666667 29.866667-0.938667 63.274667 9.728 87.253333a328.96 328.96 0 0 1-40.533333 2.773334c-119.893333 0-224.512-64.469333-281.984-160.469334m281.941333-497.792c19.925333 0 39.296 2.048 58.24 5.461334a167.765333 167.765333 0 0 0-3.968 10.794666c-18.730667 58.197333 26.88 89.984 41.813333 100.352l3.413334 2.432c3.328 2.858667 11.818667 10.453333-3.114667 32.853334-5.248 4.522667-10.666667 5.333333-23.936 5.973333-17.834667 0.853333-44.672 2.133333-68.522667 28.714667l-0.085333 0.085333-0.085333 0.085333-0.298667 0.256-1.28 1.706667c-12.629333 14.848-16.213333 31.104-16.597333 47.018667-0.554667 10.538667 0.085333 21.12 0.725333 31.232 0.682667 11.050667 1.28 21.589333 0.341333 30.933333a100.437333 100.437333 0 0 1-2.688 13.482667 37.546667 37.546667 0 0 1-18.645333 23.338666c-8.704 4.778667-19.285333 6.4-26.666667 4.053334-6.997333-2.133333-15.36-9.557333-24.192-17.408-21.76-19.285333-54.528-48.469333-108.373333-28.416-53.333333 19.925333-53.589333 66.858667-53.76 97.962666-0.042667 16.213333-0.128 31.573333-6.4 38.4-11.434667 12.544-34.901333 15.146667-53.674667 14.72A327.594667 327.594667 0 0 1 182.869333 512c0-181.76 147.2-329.130667 328.789334-329.130667m0-54.869333c-211.498667 0-383.573333 172.245333-383.573334 384s172.074667 384 383.573334 384 383.573333-172.245333 383.573333-384-172.074667-384-383.573333-384" fill="#FFFFFF" /></svg>