<?xml version="1.0" standalone="no"?><!DOCTYPE svg PUBLIC "-//W3C//DTD SVG 1.1//EN" "http://www.w3.org/Graphics/SVG/1.1/DTD/svg11.dtd"><svg class="icon" width="48px" height="48.00px" viewBox="0 0 1024 1024" version="1.1" xmlns="http://www.w3.org/2000/svg"><path d="M841.216 709.205333a28.757333 28.757333 0 1 1-49.365333-29.610666 326.144 326.144 0 1 0-112.298667 112.298666 28.757333 28.757333 0 0 1 29.610667 49.322667 383.701333 383.701333 0 1 1 132.053333-132.053333zM347.776 635.52l135.466667-135.424V339.328a28.757333 28.757333 0 0 1 57.514666 0V512c0 7.637333-2.986667 14.933333-8.405333 20.352l-143.872 143.872a28.757333 28.757333 0 1 1-40.704-40.704z" fill="#FFFFFF" /></svg>