<?xml version="1.0" standalone="no"?><!DOCTYPE svg PUBLIC "-//W3C//DTD SVG 1.1//EN" "http://www.w3.org/Graphics/SVG/1.1/DTD/svg11.dtd"><svg class="icon" width="48px" height="48.00px" viewBox="0 0 1024 1024" version="1.1" xmlns="http://www.w3.org/2000/svg"><path d="M192 192v213.333333h213.333333v-213.333333h-213.333333zM170.666667 128h256a42.666667 42.666667 0 0 1 42.666666 42.666667v256a42.666667 42.666667 0 0 1-42.666666 42.666666H170.666667a42.666667 42.666667 0 0 1-42.666667-42.666666V170.666667a42.666667 42.666667 0 0 1 42.666667-42.666667zM192 618.666667v213.333333h213.333333v-213.333333h-213.333333zM170.666667 554.666667h256a42.666667 42.666667 0 0 1 42.666666 42.666666v256a42.666667 42.666667 0 0 1-42.666666 42.666667H170.666667a42.666667 42.666667 0 0 1-42.666667-42.666667v-256a42.666667 42.666667 0 0 1 42.666667-42.666666zM618.666667 192v213.333333h213.333333v-213.333333h-213.333333zM597.333333 128h256a42.666667 42.666667 0 0 1 42.666667 42.666667v256a42.666667 42.666667 0 0 1-42.666667 42.666666h-256a42.666667 42.666667 0 0 1-42.666666-42.666666V170.666667a42.666667 42.666667 0 0 1 42.666666-42.666667zM618.666667 618.666667v213.333333h213.333333v-213.333333h-213.333333zM597.333333 554.666667h256a42.666667 42.666667 0 0 1 42.666667 42.666666v256a42.666667 42.666667 0 0 1-42.666667 42.666667h-256a42.666667 42.666667 0 0 1-42.666666-42.666667v-256a42.666667 42.666667 0 0 1 42.666666-42.666666z" fill="#FFFFFF" /></svg>