<?xml version="1.0" standalone="no"?><!DOCTYPE svg PUBLIC "-//W3C//DTD SVG 1.1//EN" "http://www.w3.org/Graphics/SVG/1.1/DTD/svg11.dtd"><svg class="icon" width="48px" height="48.00px" viewBox="0 0 1024 1024" version="1.1" xmlns="http://www.w3.org/2000/svg"><path d="M736.256 561.834667h149.504V512h-149.504V407.381333c59.818667-14.976 124.586667-59.818667 124.586667-169.472h-49.834667c0 119.637333-109.653333 124.8-124.586667 124.8H337.578667c-4.821333 0-124.586667 0-124.586667-124.586666H163.2c0 104.661333 64.725333 149.504 124.8 169.472V512H138.24v49.834667h149.504v74.965333c-0.341333 27.306667 4.736 54.442667 14.976 79.786667-59.818667 9.685333-139.52 54.613333-139.52 169.173333h49.792c0-104.661333 79.744-119.594667 114.645333-124.8A224.512 224.512 0 0 0 512 860.8c79.744 0 144.512-39.808 184.362667-99.626667 29.909333 4.778667 114.645333 19.925333 114.645333 124.8h49.792c0-114.645333-79.701333-159.488-139.52-169.429333 10.24-25.344 15.317333-52.437333 14.976-79.744v-74.965333zM512 811.008c-94.72 0-174.421333-79.744-174.421333-174.464V412.373333h149.504v298.965334h49.834666V412.373333h149.504v224.426667c0 94.72-79.701333 174.421333-174.421333 174.421333v-0.213333z" fill="#FFFFFF" /><path d="M512 138.24c-94.72 0-174.421333 79.786667-174.421333 174.421333h348.842666c0-94.677333-79.701333-174.421333-174.421333-174.421333zM397.397333 263.04a125.269333 125.269333 0 0 1 229.248 0H397.397333z" fill="#FFFFFF" /></svg>