<?xml version="1.0" standalone="no"?><!DOCTYPE svg PUBLIC "-//W3C//DTD SVG 1.1//EN" "http://www.w3.org/Graphics/SVG/1.1/DTD/svg11.dtd"><svg class="icon" width="48px" height="48.00px" viewBox="0 0 1024 1024" version="1.1" xmlns="http://www.w3.org/2000/svg"><path d="M623.530667 383.616l-176.213334 180.906667c-23.04 23.594667-23.04 62.933333 3.797334 90.453333 22.997333 23.594667 65.109333 19.626667 91.946666-3.925333 7.68-7.893333 11.52-15.744 15.36-19.669334l91.904-235.946666c3.84-3.925333 0-11.818667-3.84-15.744-11.477333 0-19.114667 0-22.954666 3.925333z" fill="#FFFFFF" /><path d="M259.541333 847.658667a28.885333 28.885333 0 0 1-19.157333-7.850667c-149.418667-153.386667-149.418667-401.109333 0-554.496C313.173333 210.602667 408.96 171.264 512.426667 171.264c103.424 0 199.253333 39.338667 272 114.048 72.789333 74.709333 111.104 169.088 111.104 279.210667 0 110.08-38.314667 204.501333-111.104 279.210666-11.52 11.776-26.794667 11.776-38.314667 0-11.52-11.818667-11.52-27.52 0-39.338666 57.472-58.965333 95.786667-149.418667 95.786667-239.872 0-94.378667-34.474667-173.013333-95.786667-239.872a326.144 326.144 0 0 0-233.685333-98.346667c-88.149333 0-172.416 31.488-233.728 98.346667-126.421333 129.749333-126.421333 346.026667 3.84 475.818666 11.52 11.818667 11.52 27.52 0 39.338667-7.68 3.925333-15.36 7.850667-22.997334 7.850667z" fill="#FFFFFF" /></svg>