<?xml version="1.0" standalone="no"?><!DOCTYPE svg PUBLIC "-//W3C//DTD SVG 1.1//EN" "http://www.w3.org/Graphics/SVG/1.1/DTD/svg11.dtd"><svg class="icon" width="48px" height="48.00px" viewBox="0 0 1024 1024" version="1.1" xmlns="http://www.w3.org/2000/svg"><path d="M544 665.344a32.426667 32.426667 0 0 1-32 32.853333 32.426667 32.426667 0 0 1-32-32.853333V358.656a32.426667 32.426667 0 0 1 32-32.853333 32.426667 32.426667 0 0 1 32 32.853333v306.688z m159.829333 0a32.426667 32.426667 0 0 1-31.957333 32.853333 32.426667 32.426667 0 0 1-32-32.853333v-175.232a32.426667 32.426667 0 0 1 32-32.853333 32.426667 32.426667 0 0 1 32 32.853333v175.232z m-319.744 0a32.426667 32.426667 0 0 1-32 32.853333 32.426667 32.426667 0 0 1-31.914666-32.853333V446.293333a32.426667 32.426667 0 0 1 31.957333-32.853333 32.426667 32.426667 0 0 1 32 32.853333v219.050667zM202.922667 128.682667h618.154666c64.768 0 117.248 53.930667 117.248 120.490666v525.653334c0 66.56-52.48 120.490667-117.248 120.490666H202.922667c-64.768 0-117.248-53.930667-117.248-120.490666V249.173333c0-66.56 52.48-120.490667 117.248-120.490666z m0 65.706666c-29.44 0-53.333333 24.533333-53.333334 54.784v525.653334c0 30.293333 23.893333 54.784 53.333334 54.784h618.154666c29.44 0 53.333333-24.533333 53.333334-54.784V249.173333c0-30.293333-23.893333-54.784-53.333334-54.784H202.922667z" fill="#FFFFFF" /></svg>