<?xml version="1.0" standalone="no"?><!DOCTYPE svg PUBLIC "-//W3C//DTD SVG 1.1//EN" "http://www.w3.org/Graphics/SVG/1.1/DTD/svg11.dtd"><svg class="icon" width="48px" height="48.00px" viewBox="0 0 1024 1024" version="1.1" xmlns="http://www.w3.org/2000/svg"><path d="M778.069333 280.021333a28.458667 28.458667 0 0 1 56.874667 0V782.506667a104.277333 104.277333 0 0 1-104.277333 104.32H275.541333a104.277333 104.277333 0 0 1-104.277333-104.32V232.576a104.277333 104.277333 0 0 1 104.277333-104.277333h530.986667a28.458667 28.458667 0 0 1 0 56.874666H275.541333c-26.154667 0-47.36 21.248-47.36 47.402667v549.973333c0 26.154667 21.205333 47.36 47.36 47.36h455.125334c26.197333 0 47.402667-21.205333 47.402666-47.36V279.936z m-426.666666 161.152a28.458667 28.458667 0 0 1 0-56.874666h303.402666a28.458667 28.458667 0 0 1 0 56.874666h-303.36z m0 151.722667a28.458667 28.458667 0 0 1 0-56.917333h189.653333a28.458667 28.458667 0 0 1 0 56.917333H351.402667z" fill="#FFFFFF" /></svg>