<?xml version="1.0" standalone="no"?><!DOCTYPE svg PUBLIC "-//W3C//DTD SVG 1.1//EN" "http://www.w3.org/Graphics/SVG/1.1/DTD/svg11.dtd"><svg class="icon" width="48px" height="48.00px" viewBox="0 0 1024 1024" version="1.1" xmlns="http://www.w3.org/2000/svg"><path d="M768.682667 388.309333c93.354667 33.706667 160.298667 124.8 160.298666 231.850667 0 41.002667-9.856 80.64-28.416 116.010667-1.706667 3.2-4.693333 8.533333-9.088 16.256l13.696 51.456c6.144 22.912-14.421333 43.946667-36.864 37.717333l-50.346666-14.08-5.802667 3.541333a235.093333 235.093333 0 0 1-123.392 34.858667 237.482667 237.482667 0 0 1-182.784-86.314667 323.541333 323.541333 0 0 1-53.12 4.394667 320.768 320.768 0 0 1-166.528-46.378667l-12.8-7.552-75.562667 20.778667c-22.442667 6.144-42.922667-14.933333-36.736-37.845333l20.48-75.605334c-7.466667-12.8-12.373333-21.418667-14.933333-26.24a328.832 328.832 0 0 1-38.485333-154.837333c0-181.077333 145.408-327.68 324.565333-327.68 150.016 0 279.594667 103.68 315.093333 248.917333 0.853333 3.498667 1.109333 7.168 0.725334 10.752z m-63.914667-13.354666c-34.56-108.672-135.594667-184.874667-251.904-184.874667-146.176 0-264.533333 119.296-264.533333 266.24 0 44.416 10.837333 87.210667 31.146666 125.44 2.730667 5.12 9.6 17.066667 20.309334 35.328 4.266667 7.210667 5.418667 15.872 3.2 23.978667l-9.856 36.48 36.821333-10.112a29.44 29.44 0 0 1 22.741333 2.986666c13.354667 7.893333 21.333333 12.586667 24.192 14.336a261.76 261.76 0 0 0 153.216 37.248 249.642667 249.642667 0 0 1-21.504-101.845333c0-135.722667 107.52-245.76 240.213334-245.76 5.333333 0 10.666667 0.170667 15.957333 0.554667z m125.44 381.141333a31.36 31.36 0 0 1 3.157333-23.722667c7.594667-13.141333 12.416-21.717333 14.293334-25.258666a186.752 186.752 0 0 0 21.248-86.954667c0-101.802667-80.64-184.32-180.138667-184.32-99.498667 0-180.138667 82.517333-180.138667 184.32s80.64 184.32 180.138667 184.32c33.066667 0 64.768-9.088 92.501333-26.112 2.048-1.28 7.765333-4.693333 17.365334-10.410667a29.44 29.44 0 0 1 23.04-3.072l11.776 3.285334-3.242667-12.074667zM358.485333 405.12a40.533333 40.533333 0 0 1-40.021333-40.96c0-22.613333 17.92-40.96 40.021333-40.96a40.533333 40.533333 0 0 1 40.064 40.96c0 22.613333-17.92 40.96-40.064 40.96z m180.181334 0a40.533333 40.533333 0 0 1-40.064-40.96c0-22.613333 17.92-40.96 40.064-40.96a40.533333 40.533333 0 0 1 40.021333 40.96c0 22.613333-17.92 40.96-40.021333 40.96z m80.042666 194.56a30.378667 30.378667 0 0 1-30.037333-30.72c0-16.981333 13.482667-30.72 30.037333-30.72 16.597333 0 30.037333 13.738667 30.037334 30.72 0 16.981333-13.44 30.72-30.037334 30.72z m140.117334 0a30.378667 30.378667 0 0 1-30.037334-30.72c0-16.981333 13.44-30.72 30.037334-30.72 16.597333 0 30.037333 13.738667 30.037333 30.72 0 16.981333-13.44 30.72-30.037333 30.72z" fill="#FFFFFF" /></svg>