<?xml version="1.0" standalone="no"?><!DOCTYPE svg PUBLIC "-//W3C//DTD SVG 1.1//EN" "http://www.w3.org/Graphics/SVG/1.1/DTD/svg11.dtd"><svg class="icon" width="48px" height="48.00px" viewBox="0 0 1024 1024" version="1.1" xmlns="http://www.w3.org/2000/svg"><path d="M174.336 310.613333l296.405333-212.053333a70.912 70.912 0 0 1 82.517334 0l296.405333 212.053333A110.677333 110.677333 0 0 1 896 400.64v341.888A110.976 110.976 0 0 1 784.853333 853.333333H239.146667A110.976 110.976 0 0 1 128 742.528V400.64c0-35.669333 17.237333-69.162667 46.336-90.026667z m35.370667 49.066667a50.346667 50.346667 0 0 0-21.077334 40.96v341.888c0 27.818667 22.613333 50.346667 50.517334 50.346667h545.706666c27.904 0 50.517333-22.528 50.517334-50.346667V400.64c0-16.213333-7.850667-31.445333-21.077334-40.917333l-296.405333-212.053334a10.112 10.112 0 0 0-11.776 0L209.706667 359.68z" fill="#FFFFFF" /></svg>