<?xml version="1.0" standalone="no"?><!DOCTYPE svg PUBLIC "-//W3C//DTD SVG 1.1//EN" "http://www.w3.org/Graphics/SVG/1.1/DTD/svg11.dtd"><svg class="icon" width="48px" height="48.00px" viewBox="0 0 1024 1024" version="1.1" xmlns="http://www.w3.org/2000/svg"><path d="M763.221333 724.437333l-185.002666-185.002666h261.546666a327.552 327.552 0 0 1-76.544 185.002666M182.826667 512c0-172.544 132.864-313.770667 301.738666-327.765333V512c0 7.594667 3.114667 14.464 8.106667 19.413333l231.765333 231.765334A327.594667 327.594667 0 0 1 512 841.130667 329.130667 329.130667 0 0 1 182.869333 512m656.896-27.434667h-300.373333v-300.373333a328.874667 328.874667 0 0 1 300.373333 300.373333M512 128c-211.754667 0-384 172.245333-384 384s172.245333 384 384 384 384-172.245333 384-384-172.245333-384-384-384" fill="#FFFFFF" /></svg>