<?xml version="1.0" standalone="no"?><!DOCTYPE svg PUBLIC "-//W3C//DTD SVG 1.1//EN" "http://www.w3.org/Graphics/SVG/1.1/DTD/svg11.dtd"><svg class="icon" width="48px" height="48.00px" viewBox="0 0 1024 1024" version="1.1" xmlns="http://www.w3.org/2000/svg"><path d="M929.365333 546.474667l-177.834666 312.746666c-12.714667 22.4-36.821333 36.266667-62.933334 36.266667H335.36a72.32 72.32 0 0 1-62.976-36.266667l-177.834667-312.746666a69.376 69.376 0 0 1 0-68.693334l177.834667-312.789333c12.757333-22.357333 36.821333-36.266667 62.976-36.266667h353.194667c26.112 0 50.218667 13.909333 62.933333 36.266667l177.834667 312.746667c12.16 21.333333 12.16 47.36 0 68.736z m-54.613333-29.44a9.941333 9.941333 0 0 0 0-9.813334l-177.493333-312.746666a10.325333 10.325333 0 0 0-8.96-5.205334H335.658667a10.325333 10.325333 0 0 0-8.96 5.205334l-177.536 312.746666a9.941333 9.941333 0 0 0 0 9.813334l177.493333 312.746666a10.325333 10.325333 0 0 0 9.002667 5.162667h352.554666a10.325333 10.325333 0 0 0 8.96-5.162667l177.578667-312.746666z m-365.44 152.618666c-91.946667 0-166.442667-72.277333-166.442667-161.450666s74.496-161.408 166.4-161.408c91.946667 0 166.485333 72.277333 166.485334 161.408 0 89.173333-74.538667 161.450667-166.442667 161.450666z m0-60.586666c57.429333 0 104.021333-45.141333 104.021333-100.864 0-55.722667-46.592-100.864-104.021333-100.864-57.472 0-104.021333 45.141333-104.021333 100.864 0 55.722667 46.549333 100.906667 104.021333 100.906666z" fill="#FFFFFF" /></svg>