<?xml version="1.0" standalone="no"?><!DOCTYPE svg PUBLIC "-//W3C//DTD SVG 1.1//EN" "http://www.w3.org/Graphics/SVG/1.1/DTD/svg11.dtd"><svg class="icon" width="26px" height="26.00px" viewBox="0 0 1024 1024" version="1.1" xmlns="http://www.w3.org/2000/svg"><path d="M467.925333 666.624l340.352-410.709333-410.752 340.309333-152.704-152.704a21.333333 21.333333 0 0 1 7.509334-35.029333L857.813333 178.773333a21.333333 21.333333 0 0 1 27.52 27.52l-229.674666 605.44a21.333333 21.333333 0 0 1-34.986667 7.552l-152.746667-152.704z" fill="#FFFFFF" /><path d="M432.725333 872.789333l30.165334-30.165333a42.666667 42.666667 0 0 1 60.330666 60.330667l-30.165333 30.165333a42.666667 42.666667 0 0 1-60.330667-60.330667z m-241.365333-60.330666l120.704-120.704a42.666667 42.666667 0 0 1 60.330667 60.330666l-120.704 120.704a42.666667 42.666667 0 0 1-60.330667-60.330666z m-60.330667-241.365334l30.165334-30.165333a42.666667 42.666667 0 1 1 60.330666 60.330667l-30.165333 30.165333a42.666667 42.666667 0 1 1-60.330667-60.330667z" fill="#FFFFFF" /></svg>