<?xml version="1.0" standalone="no"?><!DOCTYPE svg PUBLIC "-//W3C//DTD SVG 1.1//EN" "http://www.w3.org/Graphics/SVG/1.1/DTD/svg11.dtd"><svg class="icon" width="26px" height="26.00px" viewBox="0 0 1024 1024" version="1.1" xmlns="http://www.w3.org/2000/svg"><path d="M798.336 416.128l-190.677333-190.378667-95.317334 95.189334-190.72 190.378666-124.757333 124.586667 190.72 190.378667 46.677333-46.634667 277.077334-276.650667 96-95.829333-8.96 8.96zM173.866667 660.181333c-9.6 14.08-22.4 75.392-39.04 179.498667v1.28c0 12.8 4.48 25.6 12.8 35.157333 7.68 9.6 22.4 14.08 34.56 12.8h1.28c100.437333-16 160.597333-28.757333 179.157333-39.637333l-188.757333-189.098667zM869.973333 253.226667l-99.797333-99.669334c-25.6-25.557333-64.597333-24.917333-90.197333 0.64l-49.28 49.194667 190.677333 190.378667 48.64-48.554667a65.28 65.28 0 0 0 0-91.989333z" fill="#FFFFFF" /><path d="M337.664 147.2a62.677333 62.677333 0 0 0-90.24 0L146.346667 248.746667c-25.6 25.557333-23.637333 63.232 1.28 88.789333l33.28 33.237333 102.4-102.229333a16.213333 16.213333 0 0 1 23.04 0c6.4 6.4 6.4 16.64 0 23.04l-102.4 102.186667 39.04 38.954666 102.4-102.186666a16.213333 16.213333 0 0 1 23.04 0c6.4 6.4 6.4 16.597333 0 22.997333l-102.4 102.186667 33.28 33.237333 190.677333-190.378667-152.32-151.424zM877.653333 685.738667l-150.954666-150.784L535.978667 725.333333l12.8 12.8 102.4-102.229333a16.213333 16.213333 0 0 1 23.04 0c6.4 6.4 6.4 16.64 0 22.997333l-102.4 102.229334 48.64 48.554666 102.4-102.229333a16.213333 16.213333 0 0 1 23.04 0c6.4 6.4 6.4 16.64 0 22.997333l-102.4 102.229334 44.16 44.074666c25.6 25.557333 64.597333 25.557333 89.6 0.64l101.077333-101.546666c23.04-24.32 24.32-66.474667-0.64-90.112z" fill="#FFFFFF" /></svg>