<?xml version="1.0" standalone="no"?><!DOCTYPE svg PUBLIC "-//W3C//DTD SVG 1.1//EN" "http://www.w3.org/Graphics/SVG/1.1/DTD/svg11.dtd"><svg class="icon" width="26px" height="26.00px" viewBox="0 0 1024 1024" version="1.1" xmlns="http://www.w3.org/2000/svg"><path d="M341.333333 128v21.333333A64 64 0 0 0 405.333333 213.333333h213.333334A64 64 0 0 0 682.666667 149.333333V128h85.333333a85.333333 85.333333 0 0 1 85.333333 85.333333v682.666667a85.333333 85.333333 0 0 1-85.333333 85.333333H256a85.333333 85.333333 0 0 1-85.333333-85.333333V213.333333a85.333333 85.333333 0 0 1 85.333333-85.333333h85.333333z m0 298.666667a42.666667 42.666667 0 0 0 0 85.333333h128a42.666667 42.666667 0 0 0 0-85.333333H341.333333z m0 170.666666a42.666667 42.666667 0 0 0 0 85.333334h298.666667a42.666667 42.666667 0 0 0 0-85.333334H341.333333z" fill="#FFFFFF" /><path d="M469.333333 85.333333a42.666667 42.666667 0 0 1 85.333334 0h64a21.333333 21.333333 0 0 1 21.333333 21.333334v42.666666a21.333333 21.333333 0 0 1-21.333333 21.333334h-213.333334a21.333333 21.333333 0 0 1-21.333333-21.333334v-42.666666a21.333333 21.333333 0 0 1 21.333333-21.333334H469.333333z" fill="#FFFFFF" /></svg>