<?xml version="1.0" standalone="no"?><!DOCTYPE svg PUBLIC "-//W3C//DTD SVG 1.1//EN" "http://www.w3.org/Graphics/SVG/1.1/DTD/svg11.dtd"><svg class="icon" width="26px" height="26.00px" viewBox="0 0 1024 1024" version="1.1" xmlns="http://www.w3.org/2000/svg"><path d="M213.333333 640l-85.333333 277.333333 277.333333-85.333333z" fill="#FFFFFF" /><path d="M554.666667 85.333333c235.648 0 426.666667 191.018667 426.666666 426.666667s-191.018667 426.666667-426.666666 426.666667S128 747.648 128 512 319.018667 85.333333 554.666667 85.333333zM305.834667 578.346667C370.261333 674.944 454.229333 725.333333 554.666667 725.333333c100.437333 0 184.405333-50.346667 248.832-146.986666a42.666667 42.666667 0 1 0-70.997334-47.36C683.093333 605.056 624.896 640 554.666667 640c-70.229333 0-128.426667-34.986667-177.834667-109.013333a42.666667 42.666667 0 1 0-70.997333 47.36z" fill="#FFFFFF" /></svg>