<?xml version="1.0" standalone="no"?><!DOCTYPE svg PUBLIC "-//W3C//DTD SVG 1.1//EN" "http://www.w3.org/Graphics/SVG/1.1/DTD/svg11.dtd"><svg class="icon" width="26px" height="26.00px" viewBox="0 0 1024 1024" version="1.1" xmlns="http://www.w3.org/2000/svg"><path d="M213.333333 85.333333h597.333334a85.333333 85.333333 0 0 1 85.333333 85.333334v85.333333a85.333333 85.333333 0 0 1-85.333333 85.333333H213.333333a85.333333 85.333333 0 0 1-85.333333-85.333333V170.666667a85.333333 85.333333 0 0 1 85.333333-85.333334z m256 85.333334a42.666667 42.666667 0 0 0 0 85.333333h213.333334a42.666667 42.666667 0 0 0 0-85.333333h-213.333334zM298.666667 256a42.666667 42.666667 0 1 0 0-85.333333 42.666667 42.666667 0 0 0 0 85.333333z" fill="#FFFFFF" /><path d="M213.333333 384h597.333334a85.333333 85.333333 0 0 1 85.333333 85.333333v85.333334a85.333333 85.333333 0 0 1-85.333333 85.333333H213.333333a85.333333 85.333333 0 0 1-85.333333-85.333333v-85.333334a85.333333 85.333333 0 0 1 85.333333-85.333333z m256 85.333333a42.666667 42.666667 0 0 0 0 85.333334h213.333334a42.666667 42.666667 0 0 0 0-85.333334h-213.333334z m-170.666666 85.333334a42.666667 42.666667 0 1 0 0-85.333334 42.666667 42.666667 0 0 0 0 85.333334z" fill="#FFFFFF" /><path d="M213.333333 682.666667h597.333334a85.333333 85.333333 0 0 1 85.333333 85.333333v85.333333a85.333333 85.333333 0 0 1-85.333333 85.333334H213.333333a85.333333 85.333333 0 0 1-85.333333-85.333334v-85.333333a85.333333 85.333333 0 0 1 85.333333-85.333333z m256 85.333333a42.666667 42.666667 0 0 0 0 85.333333h213.333334a42.666667 42.666667 0 0 0 0-85.333333h-213.333334z m-170.666666 85.333333a42.666667 42.666667 0 1 0 0-85.333333 42.666667 42.666667 0 0 0 0 85.333333z" fill="#FFFFFF" /></svg>