<?xml version="1.0" standalone="no"?><!DOCTYPE svg PUBLIC "-//W3C//DTD SVG 1.1//EN" "http://www.w3.org/Graphics/SVG/1.1/DTD/svg11.dtd"><svg class="icon" width="26px" height="26.00px" viewBox="0 0 1024 1024" version="1.1" xmlns="http://www.w3.org/2000/svg"><path d="M768.325973 597.333333a128 128 0 1 1 0-256 128 128 0 0 1 0 256z m-384-128a170.666667 170.666667 0 1 1 0-341.333333 170.666667 170.666667 0 0 1 0 341.333333z" fill="#FFFFFF" /><path d="M751.301973 640c145.365333 1.621333 264.021333 75.093333 272.938667 230.4 0.384 6.272 0 25.6-23.125333 25.6H836.59264c0-96-31.744-184.661333-85.290667-256z m-750.933333 221.866667C16.88064 658.176 182.085973 554.666667 383.60064 554.666667c204.288 0 372.138667 97.834667 384.64 307.2 0.512 8.32 0 34.133333-32.042667 34.133333H31.34464c-10.666667 0-31.872-23.04-30.976-34.133333z" fill="#FFFFFF" /></svg>