<?xml version="1.0" standalone="no"?><!DOCTYPE svg PUBLIC "-//W3C//DTD SVG 1.1//EN" "http://www.w3.org/Graphics/SVG/1.1/DTD/svg11.dtd"><svg class="icon" width="26px" height="26.00px" viewBox="0 0 1024 1024" version="1.1" xmlns="http://www.w3.org/2000/svg"><path d="M469.333333 810.666667v-128a42.666667 42.666667 0 0 1 85.333334 0v128h106.666666a21.333333 21.333333 0 1 1 0 42.666666h-298.666666a21.333333 21.333333 0 1 1 0-42.666666H469.333333z" fill="#FFFFFF" /><path d="M170.666667 170.666667h682.666666a42.666667 42.666667 0 0 1 42.666667 42.666666v426.666667a42.666667 42.666667 0 0 1-42.666667 42.666667H170.666667a42.666667 42.666667 0 0 1-42.666667-42.666667V213.333333a42.666667 42.666667 0 0 1 42.666667-42.666666z m64 128a21.333333 21.333333 0 0 0 0 42.666666h341.333333a21.333333 21.333333 0 1 0 0-42.666666h-341.333333z m0 85.333333a21.333333 21.333333 0 0 0 0 42.666667h128a21.333333 21.333333 0 0 0 0-42.666667h-128z" fill="#FFFFFF" /></svg>