<?xml version="1.0" standalone="no"?><!DOCTYPE svg PUBLIC "-//W3C//DTD SVG 1.1//EN" "http://www.w3.org/Graphics/SVG/1.1/DTD/svg11.dtd"><svg class="icon" width="26px" height="26.00px" viewBox="0 0 1024 1024" version="1.1" xmlns="http://www.w3.org/2000/svg"><path d="M512 352m-312.874667 0a312.874667 312.874667 0 1 0 625.749334 0 312.874667 312.874667 0 1 0-625.749334 0Z" fill="#FFFFFF" /><path d="M610.944 430.208H412.714667l98.346666 252.842667 99.84-252.842667zM455.978667 757.333333L298.368 352h427.562667l-160.170667 405.461333-54.698667-21.589333-55.04 21.418667z" fill="#FFFFFF" /><path d="M433.792 860.458667h156.416a78.208 78.208 0 0 1-156.458667 0z" fill="#FFFFFF" /><path d="M394.666667 782.208a39.125333 39.125333 0 1 1 0-78.208 39.125333 39.125333 0 1 1 0-78.208h234.666666a39.125333 39.125333 0 1 1 0 78.208 39.125333 39.125333 0 1 1 0 78.208 39.125333 39.125333 0 0 1 0 78.250667h-234.666666a39.125333 39.125333 0 0 1 0-78.250667z" fill="#FFFFFF" /></svg>