<?xml version="1.0" standalone="no"?><!DOCTYPE svg PUBLIC "-//W3C//DTD SVG 1.1//EN" "http://www.w3.org/Graphics/SVG/1.1/DTD/svg11.dtd"><svg class="icon" width="26px" height="26.00px" viewBox="0 0 1024 1024" version="1.1" xmlns="http://www.w3.org/2000/svg"><path d="M707.882667 85.333333H810.666667a128 128 0 0 1 128 128v597.333334a128 128 0 0 1-128 128h-102.784z" fill="#FFFFFF" /><path d="M170.666667 85.333333h512a128 128 0 0 1 128 128v597.333334a128 128 0 0 1-128 128H170.666667a42.666667 42.666667 0 0 1-42.666667-42.666667V128a42.666667 42.666667 0 0 1 42.666667-42.666667z m298.666666 384a85.333333 85.333333 0 1 0 0-170.666666 85.333333 85.333333 0 0 0 0 170.666666z m-213.333333 234.666667c-0.469333 6.912 11.306667 21.333333 17.237333 21.333333h391.552c17.834667 0 18.090667-16.128 17.834667-21.333333-6.954667-130.858667-100.181333-192-213.674667-192-111.914667 0-203.733333 64.725333-212.906666 192z" fill="#FFFFFF" /></svg>