<?xml version="1.0" standalone="no"?><!DOCTYPE svg PUBLIC "-//W3C//DTD SVG 1.1//EN" "http://www.w3.org/Graphics/SVG/1.1/DTD/svg11.dtd"><svg class="icon" width="26px" height="26.00px" viewBox="0 0 1024 1024" version="1.1" xmlns="http://www.w3.org/2000/svg"><path d="M170.666667 128l325.589333-61.013333a85.333333 85.333333 0 0 1 31.488 0L853.333333 128v396.074667a363.093333 363.093333 0 0 1-170.666666 307.925333l-148.053334 92.544a42.666667 42.666667 0 0 1-45.226666 0L341.333333 832a363.093333 363.093333 0 0 1-170.666666-307.925333V128z m341.333333 298.666667a85.333333 85.333333 0 1 0 0-170.666667 85.333333 85.333333 0 0 0 0 170.666667z m-213.333333 234.666666c-0.469333 6.912 11.306667 21.333333 17.237333 21.333334h391.552c17.834667 0 18.090667-16.128 17.834667-21.333334-6.954667-130.858667-100.181333-192-213.674667-192-111.914667 0-203.733333 64.725333-212.906667 192z" fill="#FFFFFF" /></svg>