<?xml version="1.0" standalone="no"?><!DOCTYPE svg PUBLIC "-//W3C//DTD SVG 1.1//EN" "http://www.w3.org/Graphics/SVG/1.1/DTD/svg11.dtd"><svg class="icon" width="32px" height="32.00px" viewBox="0 0 1024 1024" version="1.1" xmlns="http://www.w3.org/2000/svg"><path d="M931.84 334.5408c-39.936-10.4448-133.8368-10.24-271.2576-13.9264 6.5536-30.0032 7.9872-57.0368 7.9872-104.96C668.672 100.9664 585.1136 0 511.1808 0c-52.224 0-95.232 42.7008-95.8464 95.1296-0.7168 64.3072-20.48 175.4112-127.7952 231.8336-7.8848 4.096-30.3104 15.1552-33.5872 16.6912l1.6384 1.4336a101.376 101.376 0 0 0-63.8976-25.6H95.8464A95.9488 95.9488 0 0 0 0 415.3344V926.72c0 52.8384 43.008 95.8464 95.8464 95.8464h95.8464a94.72 94.72 0 0 0 85.2992-55.1936l1.4336 0.4096 7.68 2.048c0.512 0 0.8192 0.1024 1.4336 0.3072 18.432 4.608 53.8624 13.0048 129.536 30.4128 16.384 3.6864 101.9904 22.016 190.8736 22.016h174.6944c53.248 0 92.672-19.8656 114.3808-61.6448 21.2992-37.0688 125.5424-236.032 125.44-516.5056 0-40.3456-27.9552-91.8528-90.624-109.7728v-0.1024zM223.6416 926.72c0 17.6128-14.336 31.9488-31.9488 31.9488H95.8464a31.9488 31.9488 0 0 1-31.9488-31.9488V415.3344c0-17.6128 14.336-31.9488 31.9488-31.9488h95.8464c17.7152 0 31.9488 14.336 31.9488 31.9488V926.72z m734.208-462.2336c-13.312 321.024-117.1456 466.3296-117.1456 466.3296-9.728 17.408-25.1904 27.8528-58.1632 27.8528h-174.592c-87.7568 0-174.7968-19.8656-177.0496-20.48-132.7104-30.5152-139.6736-32.8704-147.968-35.2256l4.608-469.504c0-48.5376 1.024-36.2496 0-35.6352C433.5616 337.408 478.0032 204.8 479.232 95.9488a32.0512 32.0512 0 0 1 31.9488-31.9488c33.792 0 93.4912 67.7888 93.4912 151.7568 0 75.776-3.072 88.7808-29.5936 167.7312 319.488 0 317.3376 4.608 345.4976 11.9808 35.0208 10.0352 37.888 38.912 37.888 48.9472 0 10.9568-0.2048 9.4208-0.6144 20.0704z" fill="#A8A8A8" /></svg>