<?xml version="1.0" standalone="no"?><!DOCTYPE svg PUBLIC "-//W3C//DTD SVG 1.1//EN" "http://www.w3.org/Graphics/SVG/1.1/DTD/svg11.dtd"><svg class="icon" width="32px" height="32.00px" viewBox="0 0 1024 1024" version="1.1" xmlns="http://www.w3.org/2000/svg"><path d="M352.128 667.84l213.568-60.672L413.12 455.68l-60.992 212.224z m570.368-415.296l-152.512-151.616-335.616 333.504L586.88 586.048l335.616-333.44z m-44.48 561.408a95.36 95.36 0 0 1-95.36 95.36H210.112a95.36 95.36 0 0 1-95.36-95.36V241.472c0-52.736 42.688-95.424 95.36-95.424h381.696l95.36-95.36h-508.8A159.04 159.04 0 0 0 19.264 209.6v636.096A159.04 159.04 0 0 0 178.304 1004.8h636.16a159.04 159.04 0 0 0 158.976-159.04V336.896l-95.36 95.36v381.696z m115.392-688.768l-95.36-94.72c-15.808-15.68-42.24-14.848-59.136 1.92l-45.76 45.44 152.576 151.616 45.76-45.44c16.832-16.768 17.664-43.072 1.92-58.816z" fill="#1D77DE" /></svg>