<?xml version="1.0" standalone="no"?><!DOCTYPE svg PUBLIC "-//W3C//DTD SVG 1.1//EN" "http://www.w3.org/Graphics/SVG/1.1/DTD/svg11.dtd"><svg class="icon" width="32px" height="32.00px" viewBox="0 0 1024 1024" version="1.1" xmlns="http://www.w3.org/2000/svg"><path d="M931.84 334.5408c-39.936-10.4448-133.8368-10.24-271.2576-13.9264 6.5536-30.0032 7.9872-57.0368 7.9872-104.96C668.672 100.9664 585.1136 0 511.1808 0c-52.224 0-95.232 42.7008-95.8464 95.1296-0.7168 64.3072-20.48 175.4112-127.7952 231.8336-7.8848 4.096-30.3104 15.1552-33.5872 16.6912l1.6384 1.4336a101.376 101.376 0 0 0-63.8976-25.6H95.8464A95.9488 95.9488 0 0 0 0 415.3344V926.72c0 52.8384 43.008 95.8464 95.8464 95.8464h95.8464a94.72 94.72 0 0 0 85.2992-55.1936l1.4336 0.4096 7.68 2.048c0.512 0 0.8192 0.1024 1.4336 0.3072 18.432 4.608 53.8624 13.0048 129.536 30.4128 16.384 3.6864 101.9904 22.016 190.8736 22.016h174.6944c53.248 0 92.672-19.8656 114.3808-61.6448 21.2992-37.0688 125.5424-236.032 125.44-516.5056 0-40.3456-27.9552-91.8528-90.624-109.7728v-0.1024zM191.6928 958.6688H95.8464a31.9488 31.9488 0 0 1-31.9488-31.9488V415.3344c0-17.6128 14.336-31.9488 31.9488-31.9488h95.8464c17.7152 0 31.9488 14.336 31.9488 31.9488V926.72c0 17.6128-14.336 31.9488-31.9488 31.9488z" fill="#1D77DE" /></svg>