<?xml version="1.0" standalone="no"?><!DOCTYPE svg PUBLIC "-//W3C//DTD SVG 1.1//EN" "http://www.w3.org/Graphics/SVG/1.1/DTD/svg11.dtd"><svg class="icon" width="32px" height="32.00px" viewBox="0 0 1024 1024" version="1.1" xmlns="http://www.w3.org/2000/svg"><path d="M0 438.823385l90.663385-7.010462V1024H0V438.823385z m916.558769-57.816616c56.162462 0 103.502769 42.141538 107.204923 96.886154 0.630154 9.294769 0 18.589538-1.96923 27.569231L940.504615 889.304615C923.963077 967.68 852.283077 1024 769.181538 1024h-575.015384V426.614154l3.229538-0.236308-3.229538 0.157539L423.069538 0l39.384616 11.264c56.713846 16.147692 92.947692 69.474462 85.779692 126.030769L513.890462 406.449231l395.421538-25.127385c2.441846-0.157538 4.804923-0.236308 7.246769-0.236308z m29.144616 109.489231a28.120615 28.120615 0 0 0 0.551384-7.640615 29.459692 29.459692 0 0 0-31.744-26.781539l-489.235692 30.956308 45.764923-358.793846a40.644923 40.644923 0 0 0-11.264-33.634462L271.911385 444.731077v504.359385h497.270153c45.922462 0 85.858462-31.507692 95.153231-74.83077l81.368616-383.763692z" fill="#A8A8A8" /></svg>