<?xml version="1.0" standalone="no"?><!DOCTYPE svg PUBLIC "-//W3C//DTD SVG 1.1//EN" "http://www.w3.org/Graphics/SVG/1.1/DTD/svg11.dtd"><svg class="icon" width="32px" height="32.00px" viewBox="0 0 1024 1024" version="1.1" xmlns="http://www.w3.org/2000/svg"><path d="M828.928 110.08V0h73.152v170.752h0.192v72.96h-0.192v0.128h-73.152v-0.064h-170.88V170.752h129.6A436.8 436.8 0 0 0 512 73.152 439.296 439.296 0 0 0 73.152 512 439.296 439.296 0 0 0 512 950.848a439.296 439.296 0 0 0 438.272-461.76h73.216c0.32 7.616 0.512 15.232 0.512 22.912 0 282.432-229.568 512-512 512s-512-229.568-512-512 229.568-512 512-512c119.616 0 229.76 41.152 316.928 110.08z" fill="#FFFFFF" /></svg>