<?xml version="1.0" standalone="no"?><!DOCTYPE svg PUBLIC "-//W3C//DTD SVG 1.1//EN" "http://www.w3.org/Graphics/SVG/1.1/DTD/svg11.dtd"><svg class="icon" width="32px" height="32.00px" viewBox="0 0 1024 1024" version="1.1" xmlns="http://www.w3.org/2000/svg"><path d="M795.884308 738.382769L1024 966.183385l-57.895385 57.816615-228.115692-227.879385a448.669538 448.669538 0 0 1-287.665231 103.817847A450.087385 450.087385 0 0 1 0 449.929846 450.087385 450.087385 0 0 1 450.323692 0a450.087385 450.087385 0 0 1 345.560616 738.382769z m-345.560616 79.714462a368.246154 368.246154 0 0 0 368.403693-368.167385A368.246154 368.246154 0 0 0 450.323692 81.92a368.246154 368.246154 0 0 0-368.482461 368.088615 368.246154 368.246154 0 0 0 368.482461 368.167385z" fill="#182238" /></svg>