<?xml version="1.0" standalone="no"?><!DOCTYPE svg PUBLIC "-//W3C//DTD SVG 1.1//EN" "http://www.w3.org/Graphics/SVG/1.1/DTD/svg11.dtd"><svg class="icon" width="32px" height="32.00px" viewBox="0 0 1024 1024" version="1.1" xmlns="http://www.w3.org/2000/svg"><path d="M782.5408 726.8864l224.0512 224-56.832 56.832-224.1536-224.0512A440.32 440.32 0 0 1 443.0848 885.76C198.8096 885.76 0.8192 687.616 0.8192 443.2896 0.8192 198.912 198.8096 0.8192 443.0848 0.8192c244.224 0 442.2656 198.0928 442.2656 442.4704a440.832 440.832 0 0 1-102.8096 283.5968z m-339.456 78.3872a361.984 361.984 0 0 0 361.8304-361.984 361.984 361.984 0 0 0-361.8304-362.0352 361.984 361.984 0 0 0-361.8816 361.984 361.984 361.984 0 0 0 361.8816 362.0352z" fill="#141414" /></svg>