<?xml version="1.0" standalone="no"?><!DOCTYPE svg PUBLIC "-//W3C//DTD SVG 1.1//EN" "http://www.w3.org/Graphics/SVG/1.1/DTD/svg11.dtd"><svg class="icon" width="32px" height="22.68px" viewBox="0 0 1445 1024" version="1.1" xmlns="http://www.w3.org/2000/svg"><path d="M923.467294 599.130353v-141.854118c0-80.444235-60.747294-150.317176-145.859765-167.785411a174.019765 174.019765 0 0 0-40.448-4.848942c-13.462588 0-26.955294 1.566118-40.448 4.758589-85.142588 17.468235-145.859765 87.311059-145.859764 167.785411v141.854118c0 27.798588-9.938824 53.910588-27.346824 74.480941h427.188706a115.139765 115.139765 0 0 1-27.226353-74.390588z m76.649412 58.639059c0.933647 0.632471 1.295059 1.355294 2.800941 2.108235 9.276235 5.722353 15.36 15.661176 15.269647 26.925177 0 17.648941-14.757647 31.894588-33.039059 31.894588H489.170824c-18.281412 0-33.039059-14.245647-33.039059-31.894588 0-10.601412 5.210353-19.907765 13.372235-25.690353 5.421176-3.855059 6.234353-4.397176 8.252235-5.963295a70.776471 70.776471 0 0 0 27.919059-56.109176v-141.854118c0-103.966118 77.884235-190.674824 181.940706-212.028235v-5.059765c0-26.413176 22.196706-47.826824 49.543529-47.826823s49.543529 21.383529 49.54353 47.826823v5.12c104.056471 21.383529 181.940706 108.122353 181.940706 212.028236v141.854117c0 24.304941 12.348235 45.718588 31.472941 58.669177zM737.28 830.584471c45.718588 0 82.763294-35.719529 82.763294-79.811765h-165.466353c0 44.001882 36.954353 79.811765 82.733177 79.811765z" fill="#333333" /></svg>