<?xml version="1.0" standalone="no"?><!DOCTYPE svg PUBLIC "-//W3C//DTD SVG 1.1//EN" "http://www.w3.org/Graphics/SVG/1.1/DTD/svg11.dtd"><svg class="icon" width="32px" height="22.68px" viewBox="0 0 1445 1024" version="1.1" xmlns="http://www.w3.org/2000/svg"><path d="M421.647059 749.688471V364.574118c0-6.324706 3.312941-11.053176 8.31247-14.185412l299.580236-167.30353a15.811765 15.811765 0 0 1 16.655059 0l299.580235 167.30353a16.384 16.384 0 0 1 8.342588 14.185412v385.114353c0 34.725647-29.967059 63.126588-66.56 63.126588H488.207059c-36.623059 0-66.56-28.400941-66.56-63.126588z" fill="#1D77DE" /><path d="M825.735529 633.976471h-175.706353c-10.541176 0-17.558588-8.764235-17.558588-21.955765 0-13.161412 7.017412-21.955765 17.558588-21.955765h175.706353c10.541176 0 17.558588 8.794353 17.558589 21.985883 0 13.161412-7.017412 21.955765-17.558589 21.955764z" fill="#FFFFFF" /></svg>