<?xml version="1.0" standalone="no"?><!DOCTYPE svg PUBLIC "-//W3C//DTD SVG 1.1//EN" "http://www.w3.org/Graphics/SVG/1.1/DTD/svg11.dtd"><svg class="icon" width="32px" height="22.68px" viewBox="0 0 1445 1024" version="1.1" xmlns="http://www.w3.org/2000/svg"><path d="M859.557647 407.973647l7.559529 14.848 14.336 28.039529 21.353412-23.130352 11.294118-12.257883 98.514823-106.767059c-0.090353 0.361412 0 0.451765 0.301177 0.180706a24.395294 24.395294 0 0 1 16.685176-6.565647 23.792941 23.792941 0 0 1 24.154353 23.341177c0 0.783059 0.180706 1.325176 0.361412 1.505882l-20.540235 365.417412-2.650353 11.38447a70.264471 70.264471 0 0 1-33.551059 41.170824l-9.637647 4.397176 0.180706 0.481883c-53.970824 18.823529-153.088 32.015059-266.209883 32.978823-112.278588 1.024-210.341647-10.270118-263.68-27.949176l0.150589-0.39153-9.818353-4.487529a69.722353 69.722353 0 0 1-34.816-46.712471l-0.90353-5.722353L391.529412 326.294588c0.361412 0 0.542118-0.512 0.542117-1.596235a23.792941 23.792941 0 0 1 24.064-23.491765c4.306824 0 8.342588 1.054118 11.836236 2.95153l103.604706 111.495529 11.203764 12.077177 21.504 23.16047 14.396236-28.16 7.499294-14.667294 107.279059-209.92c5.692235-10.330353 16.865882-17.408 29.726117-17.408 11.023059 0 20.751059 5.029647 26.895059 13.010824l109.477647 214.256941z m128.873412 279.250824l0.210823 0.030117 17.106824-304.489412-135.04753 146.371765-147.817411-289.370353-147.757177 289.129412-135.107764-145.408 17.648941 310.181647a24.877176 24.877176 0 0 0 16.143059 18.582588l-0.150589 0.39153c49.091765 15.932235 143.329882 26.142118 247.68753 25.178353 105.562353-0.903529 201.185882-12.980706 250.819764-30.147765l-0.180705-0.481882a24.997647 24.997647 0 0 0 16.444235-19.968z" fill="#333333" /><path d="M722.823529 602.352941m-60.235294 0a60.235294 60.235294 0 1 0 120.470589 0 60.235294 60.235294 0 1 0-120.470589 0Z" fill="#333333" /></svg>