<?xml version="1.0" standalone="no"?><!DOCTYPE svg PUBLIC "-//W3C//DTD SVG 1.1//EN" "http://www.w3.org/Graphics/SVG/1.1/DTD/svg11.dtd"><svg class="icon" width="32px" height="22.68px" viewBox="0 0 1445 1024" version="1.1" xmlns="http://www.w3.org/2000/svg"><path d="M1000.116706 657.769412a70.746353 70.746353 0 0 1-31.472941-58.639059v-141.854118c0-103.905882-77.884235-190.704941-181.940706-212.028235v-5.12c0-26.503529-22.196706-47.856941-49.54353-47.856941s-49.543529 21.413647-49.543529 47.826823v5.059765c-104.056471 21.353412-181.940706 108.062118-181.940706 212.028235v141.854118a70.776471 70.776471 0 0 1-27.919059 56.109176c-2.017882 1.566118-2.831059 2.108235-8.252235 5.963295a31.262118 31.262118 0 0 0-13.372235 25.690353c0 17.648941 14.757647 31.894588 33.039059 31.894588H985.148235c18.281412 0 33.039059-14.245647 33.039059-31.894588 0.060235-11.233882-6.023529-21.202824-15.269647-26.895059-1.505882-0.783059-1.867294-1.505882-2.800941-2.138353zM737.28 830.584471c45.718588 0 82.763294-35.719529 82.763294-79.811765h-165.466353c0 44.001882 36.954353 79.811765 82.733177 79.811765z" fill="#1D77DE" /></svg>