<?xml version="1.0" standalone="no"?><!DOCTYPE svg PUBLIC "-//W3C//DTD SVG 1.1//EN" "http://www.w3.org/Graphics/SVG/1.1/DTD/svg11.dtd"><svg class="icon" width="32px" height="22.68px" viewBox="0 0 1445 1024" version="1.1" xmlns="http://www.w3.org/2000/svg"><path d="M745.863529 301.477647v26.774588h167.032471c77.944471 0.090353 141.131294 68.698353 141.221647 153.328941v208.293648c0 84.630588-63.186824 153.298824-141.131294 153.419294H532.781176C454.746353 843.203765 391.529412 774.505412 391.529412 689.874824v-208.414118c0.090353-84.690824 63.277176-153.298824 141.312-153.298824h167.03247v-26.624a60.235294 60.235294 0 1 1 45.989647-0.030117z m-213.022117 71.860706c-52.224 0-96.075294 47.585882-96.13553 108.122353v208.414118c0 60.506353 43.881412 108.182588 96.045177 108.242823h380.205176c52.103529-0.060235 95.984941-47.766588 95.984941-108.242823v-208.233412c-0.060235-60.536471-43.941647-108.122353-96.045176-108.212706h-212.208941l-167.845647-0.090353z" fill="#9EACBC" /><path d="M602.413176 512c33.430588 0.301176 60.385882 27.256471 60.175059 60.175059 0.301176 33.039059-26.624 59.994353-60.175059 60.295529a61.078588 61.078588 0 0 1-42.797176-17.859764A59.632941 59.632941 0 0 1 542.117647 572.175059c-0.210824-32.918588 26.804706-59.873882 60.295529-60.175059zM843.354353 512c33.430588 0.301176 60.385882 27.256471 60.175059 60.175059 0.301176 33.039059-26.624 59.994353-60.175059 60.295529a61.078588 61.078588 0 0 1-42.797177-17.859764A59.632941 59.632941 0 0 1 783.058824 572.175059c-0.210824-32.918588 26.804706-59.873882 60.295529-60.175059z" fill="#9EACBC" /></svg>