<?xml version="1.0" standalone="no"?><!DOCTYPE svg PUBLIC "-//W3C//DTD SVG 1.1//EN" "http://www.w3.org/Graphics/SVG/1.1/DTD/svg11.dtd"><svg class="icon" width="30px" height="30.00px" viewBox="0 0 1024 1024" version="1.1" xmlns="http://www.w3.org/2000/svg"><path d="M334.2336 192h355.5328a142.2336 142.2336 0 1 1 0 284.433067H334.2336a142.2336 142.2336 0 1 1 0-284.433067z m0 213.333333a71.099733 71.099733 0 1 0 0-142.2336 71.099733 71.099733 0 0 0 0 142.2336z" fill="#0285FF" /><path d="M334.2336 547.566933h355.5328a142.2336 142.2336 0 1 1 0 284.433067H334.2336a142.2336 142.2336 0 1 1 0-284.433067z m355.5328 213.333334a71.099733 71.099733 0 1 0 0-142.2336 71.099733 71.099733 0 0 0 0 142.2336z" fill="#00E2A0" /></svg>