<?xml version="1.0" standalone="no"?><!DOCTYPE svg PUBLIC "-//W3C//DTD SVG 1.1//EN" "http://www.w3.org/Graphics/SVG/1.1/DTD/svg11.dtd"><svg class="icon" width="30px" height="30.00px" viewBox="0 0 1024 1024" version="1.1" xmlns="http://www.w3.org/2000/svg"><path d="M796.433067 819.2h-56.866134A56.661333 56.661333 0 0 1 682.666667 762.811733v-56.388266a56.661333 56.661333 0 0 1 56.900266-56.4224V526.336a41.8816 41.8816 0 0 0-39.8336-45.499733h-159.300266v169.1648c31.402667 0 56.900267 25.258667 56.900266 56.4224v56.388266A56.661333 56.661333 0 0 1 540.433067 819.2h-56.866134a56.661333 56.661333 0 0 1-56.900266-56.388267v-56.388266a56.661333 56.661333 0 0 1 56.900266-56.4224v-169.1648H330.478933a41.437867 41.437867 0 0 0-46.045866 38.570666v130.594134c31.402667 0 56.900267 25.258667 56.900266 56.4224v56.388266A56.661333 56.661333 0 0 1 284.433067 819.2H227.566933A56.661333 56.661333 0 0 1 170.666667 762.811733v-56.388266a56.661333 56.661333 0 0 1 56.900266-56.4224v-152.9856c0-50.756267 27.101867-67.310933 66.8672-72.567467h189.098667V339.8656h-85.333333A56.661333 56.661333 0 0 1 341.333333 283.4432V227.054933A56.661333 56.661333 0 0 1 398.2336 170.666667h227.5328C657.169067 170.666667 682.666667 195.925333 682.666667 227.054933v56.388267a56.661333 56.661333 0 0 1-56.900267 56.4224h-85.333333v84.5824h181.930666c47.104 4.778667 76.8 20.992 74.069334 69.597867 1.297067 73.216 0 155.989333 0 155.989333 31.402667 0 56.900267 25.258667 56.900266 56.388267v56.388266A56.661333 56.661333 0 0 1 796.433067 819.2z" fill="#0285FF" /><path d="M341.333333 170.666667m34.133334 0l273.066666 0q34.133333 0 34.133334 34.133333l0 102.4q0 34.133333-34.133334 34.133333l-273.066666 0q-34.133333 0-34.133334-34.133333l0-102.4q0-34.133333 34.133334-34.133333Z" fill="#00E2A0" /></svg>