<?xml version="1.0" standalone="no"?><!DOCTYPE svg PUBLIC "-//W3C//DTD SVG 1.1//EN" "http://www.w3.org/Graphics/SVG/1.1/DTD/svg11.dtd"><svg class="icon" width="30px" height="30.00px" viewBox="0 0 1024 1024" version="1.1" xmlns="http://www.w3.org/2000/svg"><path d="M697.617067 527.530667h60.484266a61.098667 61.098667 0 1 1 0 122.197333H231.765333a61.098667 61.098667 0 1 1 0-122.197333h60.484267l22.7328-205.4144a181.0432 181.0432 0 0 1 359.901867 0l22.698666 205.4144z" fill="#0285FF" /><path d="M413.866667 690.414933m81.066666 0l0 0q81.066667 0 81.066667 81.066667l0 0.785067q0 81.066667-81.066667 81.066666l0 0q-81.066667 0-81.066666-81.066666l0-0.785067q0-81.066667 81.066666-81.066667Z" fill="#00E2A0" /></svg>