<?xml version="1.0" standalone="no"?><!DOCTYPE svg PUBLIC "-//W3C//DTD SVG 1.1//EN" "http://www.w3.org/Graphics/SVG/1.1/DTD/svg11.dtd"><svg class="icon" width="32px" height="30.57px" viewBox="0 0 1072 1024" version="1.1" xmlns="http://www.w3.org/2000/svg"><path d="M827.928381 246.979048h-299.495619V122.782476a62.22019 62.22019 0 0 0 53.443048-61.049905c0-34.133333-28.281905-61.732571-63.146667-61.732571S455.582476 27.648 455.582476 61.732571c0 30.866286 23.161905 56.466286 53.443048 61.049905v124.196572h-300.860953a28.818286 28.818286 0 0 0-29.159619 28.476952v429.397333c0 15.701333 13.019429 28.476952 29.110858 28.476953h185.295238v58.904381H330.264381a28.818286 28.818286 0 0 0-29.159619 28.476952v154.86781c0 15.701333 13.06819 28.476952 29.159619 28.476952h374.979048c16.091429 0 29.159619-12.775619 29.159619-28.476952V820.662857a28.818286 28.818286 0 0 0-29.159619-28.476952h-63.146667v-58.904381h185.782857c16.14019 0 29.208381-12.775619 29.208381-28.476953V275.456a28.818286 28.818286 0 0 0-29.159619-28.476952zM364.251429 551.887238c-34.864762 0-63.146667-27.648-63.146667-61.732571 0-34.133333 28.281905-61.732571 63.146667-61.732572 34.913524 0 63.146667 27.648 63.146666 61.732572 0 34.133333-28.281905 61.732571-63.146666 61.732571z m308.955428 0c-34.864762 0-63.146667-27.648-63.146667-61.732571 0-34.133333 28.281905-61.732571 63.146667-61.732572s63.146667 27.648 63.146667 61.732572c0 34.133333-28.281905 61.732571-63.146667 61.732571zM0 490.154667c0 65.584762 54.418286 118.735238 121.514667 118.735238v-237.470476C54.418286 371.419429 0 424.569905 0 490.154667z m915.065905-118.735238v237.470476c67.096381 0 121.514667-53.150476 121.514666-118.735238s-54.418286-118.735238-121.514666-118.735238z" fill="#616161" /></svg>