<?xml version="1.0" standalone="no"?><!DOCTYPE svg PUBLIC "-//W3C//DTD SVG 1.1//EN" "http://www.w3.org/Graphics/SVG/1.1/DTD/svg11.dtd"><svg class="icon" width="32px" height="32.00px" viewBox="0 0 1024 1024" version="1.1" xmlns="http://www.w3.org/2000/svg"><path d="M204.8 204.8v68.266667h546.2016V204.8zM204.8 375.466667v68.266666h443.8016v-68.266666H204.8zM204.8 546.133333v68.266667h341.4016v-68.266667H204.8z" fill="#1D77DE" /><path d="M136.533333 989.866667l-68.266666-68.266667h68.266666v68.266667zM136.533333 102.4h750.933334v378.094933h68.266666V34.133333H68.266667v955.733334h376.661333v-68.266667H136.533333V102.4z m750.933334 0V34.133333l68.266666 68.266667h-68.266666z m0 0v378.094933h68.266666V34.133333H68.266667v955.733334h376.661333v-68.266667H136.533333V102.4h750.933334z" fill="#141414" /><path d="M979.968 594.432c9.762133 9.728 15.086933 22.664533 15.018667 36.386133 0 13.7216-5.358933 26.624-15.0528 36.352l-303.377067 303.342934a23.790933 23.790933 0 0 1-13.550933 6.7584l-129.2288 17.5104a23.825067 23.825067 0 0 1-19.933867-6.724267 23.620267 23.620267 0 0 1-6.7584-19.968l17.544533-129.194667c0.682667-5.12 3.072-9.898667 6.724267-13.585066l303.445333-303.377067a50.8928 50.8928 0 0 1 36.386134-15.0528c13.7216 0 26.624 5.358933 36.352 15.0528l72.465066 72.4992z m-328.9088 341.674667l215.005867-214.971734-85.333334-85.333333-215.04 214.971733-13.346133 98.7136 98.7136-13.380266z m298.973867-298.871467a9.0112 9.0112 0 0 0 2.628266-6.485333 9.0112 9.0112 0 0 0-2.628266-6.417067l-72.465067-72.430933a9.0112 9.0112 0 0 0-6.4512-2.6624 9.0112 9.0112 0 0 0-6.417067 2.6624l-57.582933 57.617066 85.265067 85.333334 57.6512-57.617067z" fill="#1D77DE" /></svg>