<?xml version="1.0" standalone="no"?><!DOCTYPE svg PUBLIC "-//W3C//DTD SVG 1.1//EN" "http://www.w3.org/Graphics/SVG/1.1/DTD/svg11.dtd"><svg class="icon" width="32px" height="32.00px" viewBox="0 0 1024 1024" version="1.1" xmlns="http://www.w3.org/2000/svg"><path d="M533.845675 759.125333h-77.2096v-78.813866h77.243733zM626.244608 413.696a81.6128 81.6128 0 0 1-13.653333 31.197867c-6.075733 8.157867-13.141333 15.36-21.060267 21.504l-24.917333 17.92a126.293333 126.293333 0 0 0-21.504 17.92 44.987733 44.987733 0 0 0-10.752 18.909866c-1.809067 6.144-2.798933 12.526933-2.935467 18.944v66.013867h-71.3728v-79.837867c0.546133-11.605333 2.3552-23.108267 5.393067-34.269866 3.822933-11.605333 10.001067-22.289067 18.090666-31.232a170.325333 170.325333 0 0 1 31.744-29.149867c9.693867-6.485333 18.568533-14.2336 26.4192-23.04 5.8368-8.8064 8.6016-19.456 7.816534-30.208a46.250667 46.250667 0 0 0-11.741867-32.768 58.743467 58.743467 0 0 0-24.917333-15.837867 96.256 96.256 0 0 0-24.439467-5.12 74.5472 74.5472 0 0 0-28.842667 4.608c-8.055467 2.935467-15.36 7.645867-21.504 13.824a36.864 36.864 0 0 0-10.752 20.992c-0.682667 9.0112-0.682667 18.090667 0 27.101867v23.552H346.112341v-37.376c0.9216-13.038933 3.3792-25.941333 7.338667-38.365867 4.778667-15.4624 12.970667-29.4912 23.9616-40.96a128.785067 128.785067 0 0 1 48.878933-31.744 173.738667 173.738667 0 0 1 64.512-12.765866 144.042667 144.042667 0 0 1 85.538134 24.064A119.466667 119.466667 0 0 1 620.885675 328.704c6.587733 16.1792 9.898667 33.5872 9.762133 51.2a171.963733 171.963733 0 0 1-4.881067 33.757867h0.477867z" fill="#1D77DE" /><path d="M185.446741 947.5072l314.914134 8.0896c3.857067 0.1024 7.748267 0.136533 11.639466 0.136533 245.077333 0 443.733333-198.656 443.733334-443.733333S757.077675 68.266667 512.000341 68.266667 68.267008 266.922667 68.267008 512c0 120.046933 47.786667 232.3456 131.413333 315.1872L239.787008 866.986667l-54.3744 80.520533zM51.439275 1024l100.1472-148.343467A510.429867 510.429867 0 0 1 0.000341 512C0.000341 229.239467 229.239808 0 512.000341 0c282.760533 0 512 229.239467 512 512 0 239.752533-164.7616 441.002667-387.242666 496.708267l-86.186667 15.121066h-51.950933V1024h-447.146667z" fill="#141414" /></svg>