<?xml version="1.0" standalone="no"?><!DOCTYPE svg PUBLIC "-//W3C//DTD SVG 1.1//EN" "http://www.w3.org/Graphics/SVG/1.1/DTD/svg11.dtd"><svg class="icon" width="32px" height="32.00px" viewBox="0 0 1024 1024" version="1.1" xmlns="http://www.w3.org/2000/svg"><path d="M799.5392 490.9056A214.186667 214.186667 0 0 0 887.466667 316.962133c0-100.488533-68.9152-187.938133-163.908267-207.872-18.602667-3.208533-36.181333 9.796267-39.253333 29.047467-2.9696 18.3296 8.260267 35.908267 25.736533 40.2432C773.290667 191.6928 819.2 249.9584 819.2 316.962133c0 77.960533-61.2352 141.4144-136.533333 141.4144a32.256 32.256 0 0 0-6.007467 0.6144c-3.6864-0.136533-7.304533-0.6144-11.0592-0.6144-18.8416 0-34.133333 15.803733-34.133333 35.328 0 19.524267 15.291733 35.362133 34.133333 35.362134 148.343467 0 256 133.802667 256 318.1568 0 19.524267 15.291733 35.362133 34.133333 35.362133s34.133333-15.837867 34.133334-35.362133c0-163.703467-76.117333-297.437867-190.327467-356.352zM273.066667 263.918933c0 89.736533 69.290667 161.518933 153.6 161.518934S580.266667 353.655467 580.266667 263.918933 510.976 102.4 426.666667 102.4 273.066667 174.1824 273.066667 263.918933zM426.666667 34.133333C549.205333 34.133333 648.533333 137.0112 648.533333 263.918933c0 126.907733-99.328 229.7856-221.866666 229.7856S204.8 390.826667 204.8 263.918933C204.8 137.0112 304.128 34.133333 426.666667 34.133333z" fill="#141414" /><path d="M426.666667 562.653867c-17.5104 0-49.698133 3.1744-66.6624 7.338666C230.4 601.8048 136.533333 723.182933 136.533333 864.938667 136.533333 920.2688 231.150933 955.733333 426.666667 955.733333s290.133333-35.464533 290.133333-90.794666c0-140.288-91.989333-260.8128-219.818667-294.024534-17.749333-4.608-52.565333-8.260267-70.314666-8.260266z m87.4496-57.821867C669.764267 545.28 785.066667 691.165867 785.066667 864.938667 785.066667 988.603733 624.605867 1024 426.666667 1024S68.266667 988.637867 68.266667 864.938667c0-175.479467 117.486933-322.4576 275.456-361.233067 26.624-6.519467 65.877333-9.3184 82.944-9.3184 17.066667 0 59.460267 3.1744 87.4496 10.4448z" fill="#141414" /><path d="M426.666667 865.518933c-17.066667 0-85.333333-57.0368-85.333334-85.572266 0-28.535467 68.266667-199.68 85.333334-199.68s85.333333 171.2128 85.333333 199.68c0 28.5696-68.266667 85.572267-85.333333 85.572266z" fill="#1D77DE" /></svg>