<svg height="28.44" viewBox="0 0 1152 1024" width="32" xmlns="http://www.w3.org/2000/svg"><path d="m562.304 1023.872v.128h-411.456v-.192l-56.832-.064 75.264-149.184c-104.576-92.672-169.28-220.928-169.28-362.56 0-282.752 257.92-512 576-512s576 229.248 576 512-257.92 512-576 512c-4.608 0-9.152 0-13.696-.128zm-13.76-83.52c9.088.384 18.24.64 27.456.64 275.968 0 493.696-196.544 493.696-428.992s-217.728-428.992-493.696-428.992-493.696 196.544-493.696 428.992c0 135.616 74.112 259.008 190.72 338.304l-44.992 90.688h320.448v-.64zm241.536-492.352h105.92v128h-105.92zm-267.072 0h105.984v128h-105.984zm-267.008 0h105.92v128h-105.92z" fill="#fff"/></svg>