<svg height="32" viewBox="0 0 1024 1024" width="32" xmlns="http://www.w3.org/2000/svg"><g fill-opacity=".45"><path d="m512 0a512 512 0 0 0 -512 512 512 512 0 0 0 512 512 512 512 0 0 0 512-512 512 512 0 0 0 -512-512zm311.076571 823.076571a437.686857 437.686857 0 0 1 -139.849142 94.354286 435.785143 435.785143 0 0 1 -171.227429 34.596572 437.394286 437.394286 0 0 1 -311.076571-128.804572 437.686857 437.686857 0 0 1 -94.354286-139.922286 436.662857 436.662857 0 0 1 -34.596572-171.300571 437.394286 437.394286 0 0 1 128.804572-311.076571 437.686857 437.686857 0 0 1 139.922286-94.354286 436.662857 436.662857 0 0 1 171.300571-34.596572 437.394286 437.394286 0 0 1 311.076571 128.804572 437.686857 437.686857 0 0 1 94.354286 139.922286 436.662857 436.662857 0 0 1 34.596572 171.300571 437.394286 437.394286 0 0 1 -128.950858 311.076571z"/><path d="m644.096 678.692571h-85.211429v-350.134857a35.986286 35.986286 0 0 0 -35.913142-35.986285h-96.036572a35.986286 35.986286 0 1 0 0 71.972571h59.977143v314.221714h-85.211429a35.986286 35.986286 0 1 0 0 71.972572h242.395429a35.986286 35.986286 0 1 0 0-71.972572zm-205.238857-496.420571a35.986286 35.986286 0 1 0 71.972571 0 35.986286 35.986286 0 0 0 -71.972571 0z"/></g></svg>